<mxfile host="app.diagrams.net" agent="Mozilla/5.0 (Windows NT 10.0; Win64; x64) AppleWebKit/537.36 (KHTML, like Gecko) Chrome/136.0.0.0 Safari/537.36" version="26.2.14" pages="3">
  <diagram id="C5RBs43oDa-KdzZeNtuy" name="Page-1">
    <mxGraphModel dx="783" dy="537" grid="1" gridSize="10" guides="1" tooltips="1" connect="1" arrows="1" fold="1" page="1" pageScale="1" pageWidth="827" pageHeight="1169" math="0" shadow="0">
      <root>
        <mxCell id="WIyWlLk6GJQsqaUBKTNV-0" />
        <mxCell id="WIyWlLk6GJQsqaUBKTNV-1" parent="WIyWlLk6GJQsqaUBKTNV-0" />
        <mxCell id="0" value="" style="group" vertex="1" connectable="0" parent="WIyWlLk6GJQsqaUBKTNV-1">
          <mxGeometry x="140" y="50" width="510" height="530" as="geometry" />
        </mxCell>
        <mxCell id="ZRpAcRi9Kn3N0MtbUfiD-23" style="edgeStyle=orthogonalEdgeStyle;rounded=0;orthogonalLoop=1;jettySize=auto;html=1;exitX=0.5;exitY=1;exitDx=0;exitDy=0;entryX=0.5;entryY=0;entryDx=0;entryDy=0;startArrow=block;startFill=1;" parent="0" source="ZRpAcRi9Kn3N0MtbUfiD-0" target="ZRpAcRi9Kn3N0MtbUfiD-18" edge="1">
          <mxGeometry relative="1" as="geometry" />
        </mxCell>
        <mxCell id="ZRpAcRi9Kn3N0MtbUfiD-0" value="Input" style="rounded=1;whiteSpace=wrap;html=1;" parent="0" vertex="1">
          <mxGeometry x="173.03571428571428" width="163.92857142857144" height="54.82758620689655" as="geometry" />
        </mxCell>
        <mxCell id="ZRpAcRi9Kn3N0MtbUfiD-4" value="&lt;font&gt;preguntas&amp;nbsp;&lt;/font&gt;" style="ellipse;whiteSpace=wrap;html=1;" parent="0" vertex="1">
          <mxGeometry y="328.96551724137936" width="91.07142857142857" height="91.3793103448276" as="geometry" />
        </mxCell>
        <mxCell id="M-8su_GckMI3d904jpOa-2" style="edgeStyle=orthogonalEdgeStyle;rounded=0;orthogonalLoop=1;jettySize=auto;html=1;exitX=0.5;exitY=0;exitDx=0;exitDy=0;entryX=0;entryY=1;entryDx=0;entryDy=0;startArrow=classic;startFill=1;" parent="0" source="ZRpAcRi9Kn3N0MtbUfiD-5" edge="1">
          <mxGeometry relative="1" as="geometry">
            <mxPoint x="182.14285714285714" y="255.86206896551724" as="targetPoint" />
          </mxGeometry>
        </mxCell>
        <mxCell id="ZRpAcRi9Kn3N0MtbUfiD-5" value="&lt;font&gt;examinador&lt;/font&gt;" style="ellipse;whiteSpace=wrap;html=1;" parent="0" vertex="1">
          <mxGeometry x="136.60714285714283" y="328.96551724137936" width="91.07142857142857" height="91.3793103448276" as="geometry" />
        </mxCell>
        <mxCell id="ZRpAcRi9Kn3N0MtbUfiD-8" value="&lt;font&gt;tools&lt;/font&gt;" style="ellipse;whiteSpace=wrap;html=1;" parent="0" vertex="1">
          <mxGeometry x="18.214285714285715" y="475.17241379310343" width="54.642857142857146" height="54.82758620689655" as="geometry" />
        </mxCell>
        <mxCell id="ZRpAcRi9Kn3N0MtbUfiD-16" value="" style="endArrow=classic;html=1;rounded=0;exitX=0.393;exitY=0.993;exitDx=0;exitDy=0;exitPerimeter=0;dashed=1;entryX=0.337;entryY=0.052;entryDx=0;entryDy=0;entryPerimeter=0;" parent="0" source="ZRpAcRi9Kn3N0MtbUfiD-4" target="ZRpAcRi9Kn3N0MtbUfiD-8" edge="1">
          <mxGeometry width="50" height="50" relative="1" as="geometry">
            <mxPoint x="-18.214285714285715" y="420.34482758620686" as="sourcePoint" />
            <mxPoint x="36.42857142857143" y="475.17241379310343" as="targetPoint" />
          </mxGeometry>
        </mxCell>
        <mxCell id="ZRpAcRi9Kn3N0MtbUfiD-17" value="" style="endArrow=classic;html=1;rounded=0;exitX=0.704;exitY=0.041;exitDx=0;exitDy=0;exitPerimeter=0;entryX=0.624;entryY=0.982;entryDx=0;entryDy=0;entryPerimeter=0;dashed=1;" parent="0" source="ZRpAcRi9Kn3N0MtbUfiD-8" target="ZRpAcRi9Kn3N0MtbUfiD-4" edge="1">
          <mxGeometry width="50" height="50" relative="1" as="geometry">
            <mxPoint x="-54.642857142857146" y="475.17241379310343" as="sourcePoint" />
            <mxPoint x="36.42857142857143" y="383.79310344827593" as="targetPoint" />
          </mxGeometry>
        </mxCell>
        <mxCell id="ZRpAcRi9Kn3N0MtbUfiD-20" style="edgeStyle=orthogonalEdgeStyle;rounded=0;orthogonalLoop=1;jettySize=auto;html=1;exitX=0;exitY=0.5;exitDx=0;exitDy=0;startArrow=block;startFill=1;" parent="0" source="ZRpAcRi9Kn3N0MtbUfiD-18" target="ZRpAcRi9Kn3N0MtbUfiD-4" edge="1">
          <mxGeometry relative="1" as="geometry" />
        </mxCell>
        <mxCell id="ZRpAcRi9Kn3N0MtbUfiD-18" value="orquestador" style="rounded=0;whiteSpace=wrap;html=1;" parent="0" vertex="1">
          <mxGeometry x="182.14285714285714" y="182.7586206896552" width="145.71428571428572" height="73.10344827586208" as="geometry" />
        </mxCell>
        <mxCell id="ZRpAcRi9Kn3N0MtbUfiD-24" value="&lt;font&gt;elaborar plan de estudio&lt;/font&gt;" style="ellipse;whiteSpace=wrap;html=1;" parent="0" vertex="1">
          <mxGeometry x="281.5" y="327.1379310344828" width="91.07142857142857" height="91.3793103448276" as="geometry" />
        </mxCell>
        <mxCell id="M-8su_GckMI3d904jpOa-0" style="edgeStyle=orthogonalEdgeStyle;rounded=0;orthogonalLoop=1;jettySize=auto;html=1;exitX=0.5;exitY=0;exitDx=0;exitDy=0;entryX=1;entryY=0.5;entryDx=0;entryDy=0;startArrow=classic;startFill=1;" parent="0" source="ZRpAcRi9Kn3N0MtbUfiD-25" target="ZRpAcRi9Kn3N0MtbUfiD-18" edge="1">
          <mxGeometry relative="1" as="geometry" />
        </mxCell>
        <mxCell id="ZRpAcRi9Kn3N0MtbUfiD-25" value="&lt;font&gt;explicar&lt;/font&gt;" style="ellipse;whiteSpace=wrap;html=1;" parent="0" vertex="1">
          <mxGeometry x="418.9285714285714" y="328.96551724137936" width="91.07142857142857" height="91.3793103448276" as="geometry" />
        </mxCell>
        <mxCell id="M-8su_GckMI3d904jpOa-4" style="edgeStyle=orthogonalEdgeStyle;rounded=0;orthogonalLoop=1;jettySize=auto;html=1;entryX=0.942;entryY=1.025;entryDx=0;entryDy=0;entryPerimeter=0;startArrow=classic;startFill=1;" parent="0" source="ZRpAcRi9Kn3N0MtbUfiD-24" edge="1">
          <mxGeometry relative="1" as="geometry">
            <mxPoint x="326.69142857142856" y="255.86206896551724" as="targetPoint" />
          </mxGeometry>
        </mxCell>
      </root>
    </mxGraphModel>
  </diagram>
  <diagram id="uGnBbCS2R3sJSnRk6Z4E" name="Página-2">
    <mxGraphModel dx="1209" dy="642" grid="1" gridSize="10" guides="1" tooltips="1" connect="1" arrows="1" fold="1" page="1" pageScale="1" pageWidth="827" pageHeight="1169" math="0" shadow="0">
      <root>
        <mxCell id="0" />
        <mxCell id="1" parent="0" />
        <mxCell id="V7VpkrUbAWtt0Lb4yNeB-21" value="" style="html=1;whiteSpace=wrap;strokeColor=none;" vertex="1" parent="1">
          <mxGeometry x="90" y="360" width="640" height="610" as="geometry" />
        </mxCell>
        <mxCell id="SgS0V56UMz8pu0Pxa2FE-2" value="Interfaz" style="shape=umlFrame;whiteSpace=wrap;html=1;pointerEvents=0;width=70;height=30;" vertex="1" parent="1">
          <mxGeometry x="190" y="380" width="160" height="100" as="geometry" />
        </mxCell>
        <mxCell id="SgS0V56UMz8pu0Pxa2FE-4" value="Orquestador" style="shape=umlFrame;whiteSpace=wrap;html=1;pointerEvents=0;width=90;height=30;" vertex="1" parent="1">
          <mxGeometry x="190" y="540" width="160" height="100" as="geometry" />
        </mxCell>
        <mxCell id="SgS0V56UMz8pu0Pxa2FE-8" value="" style="shape=image;verticalLabelPosition=bottom;labelBackgroundColor=default;verticalAlign=top;aspect=fixed;imageAspect=0;image=https://brandlogos.net/wp-content/uploads/2025/04/langgraph-logo_brandlogos.net_nezpd.png;" vertex="1" parent="1">
          <mxGeometry x="208.69" y="590" width="126.31" height="20" as="geometry" />
        </mxCell>
        <mxCell id="SgS0V56UMz8pu0Pxa2FE-9" value="Tools" style="shape=umlFrame;whiteSpace=wrap;html=1;pointerEvents=0;width=90;height=30;" vertex="1" parent="1">
          <mxGeometry x="110" y="700" width="600" height="250" as="geometry" />
        </mxCell>
        <mxCell id="SgS0V56UMz8pu0Pxa2FE-12" value="&lt;div&gt;Resumen estadístico&lt;/div&gt;" style="html=1;whiteSpace=wrap;verticalAlign=top;" vertex="1" parent="1">
          <mxGeometry x="128.69" y="750" width="133.15" height="70" as="geometry" />
        </mxCell>
        <mxCell id="SgS0V56UMz8pu0Pxa2FE-13" value="" style="shape=image;verticalLabelPosition=bottom;labelBackgroundColor=default;verticalAlign=top;aspect=fixed;imageAspect=0;image=https://images.icon-icons.com/2699/PNG/512/python_logo_icon_168886.png;" vertex="1" parent="1">
          <mxGeometry x="180.26" y="780" width="30" height="30" as="geometry" />
        </mxCell>
        <mxCell id="SgS0V56UMz8pu0Pxa2FE-14" value="&lt;div&gt;Búsqueda en internet&lt;/div&gt;" style="html=1;whiteSpace=wrap;verticalAlign=top;" vertex="1" parent="1">
          <mxGeometry x="281.84000000000003" y="750" width="133.15" height="70" as="geometry" />
        </mxCell>
        <mxCell id="V7VpkrUbAWtt0Lb4yNeB-13" style="edgeStyle=orthogonalEdgeStyle;rounded=0;orthogonalLoop=1;jettySize=auto;html=1;entryX=0.5;entryY=0;entryDx=0;entryDy=0;" edge="1" parent="1" source="SgS0V56UMz8pu0Pxa2FE-22" target="V7VpkrUbAWtt0Lb4yNeB-11">
          <mxGeometry relative="1" as="geometry" />
        </mxCell>
        <mxCell id="SgS0V56UMz8pu0Pxa2FE-22" value="&lt;div&gt;RAG&lt;/div&gt;" style="html=1;whiteSpace=wrap;verticalAlign=middle;" vertex="1" parent="1">
          <mxGeometry x="431.84" y="750" width="133.15" height="70" as="geometry" />
        </mxCell>
        <mxCell id="SgS0V56UMz8pu0Pxa2FE-24" value="Libros de&lt;div&gt;estadística (PDF)&lt;/div&gt;" style="shape=document;whiteSpace=wrap;html=1;boundedLbl=1;size=0.125;" vertex="1" parent="1">
          <mxGeometry x="180.26" y="860" width="108.16" height="60" as="geometry" />
        </mxCell>
        <mxCell id="V7VpkrUbAWtt0Lb4yNeB-9" style="edgeStyle=orthogonalEdgeStyle;rounded=0;orthogonalLoop=1;jettySize=auto;html=1;entryX=1;entryY=0.5;entryDx=0;entryDy=0;" edge="1" parent="1" source="SgS0V56UMz8pu0Pxa2FE-25" target="V7VpkrUbAWtt0Lb4yNeB-2">
          <mxGeometry relative="1" as="geometry" />
        </mxCell>
        <mxCell id="V7VpkrUbAWtt0Lb4yNeB-16" style="edgeStyle=orthogonalEdgeStyle;rounded=0;orthogonalLoop=1;jettySize=auto;html=1;entryX=0;entryY=0.5;entryDx=0;entryDy=0;startArrow=classic;startFill=1;" edge="1" parent="1" source="SgS0V56UMz8pu0Pxa2FE-25" target="V7VpkrUbAWtt0Lb4yNeB-11">
          <mxGeometry relative="1" as="geometry" />
        </mxCell>
        <mxCell id="SgS0V56UMz8pu0Pxa2FE-25" value="DB" style="shape=cylinder3;whiteSpace=wrap;html=1;boundedLbl=1;backgroundOutline=1;size=7.627462948069933;verticalAlign=top;align=left;" vertex="1" parent="1">
          <mxGeometry x="459.41" y="860" width="80" height="60" as="geometry" />
        </mxCell>
        <mxCell id="SgS0V56UMz8pu0Pxa2FE-27" value="LLM" style="shape=umlFrame;whiteSpace=wrap;html=1;pointerEvents=0;width=70;height=30;" vertex="1" parent="1">
          <mxGeometry x="470" y="540" width="160" height="100" as="geometry" />
        </mxCell>
        <mxCell id="V7VpkrUbAWtt0Lb4yNeB-1" value="" style="shape=image;verticalLabelPosition=bottom;labelBackgroundColor=default;verticalAlign=top;aspect=fixed;imageAspect=0;image=https://upload.wikimedia.org/wikipedia/commons/thumb/4/4d/OpenAI_Logo.svg/2560px-OpenAI_Logo.svg.png;" vertex="1" parent="1">
          <mxGeometry x="503.99" y="585" width="92.03" height="25" as="geometry" />
        </mxCell>
        <mxCell id="V7VpkrUbAWtt0Lb4yNeB-10" style="edgeStyle=orthogonalEdgeStyle;rounded=0;orthogonalLoop=1;jettySize=auto;html=1;entryX=1;entryY=0.5;entryDx=0;entryDy=0;" edge="1" parent="1" source="V7VpkrUbAWtt0Lb4yNeB-2" target="SgS0V56UMz8pu0Pxa2FE-24">
          <mxGeometry relative="1" as="geometry" />
        </mxCell>
        <mxCell id="V7VpkrUbAWtt0Lb4yNeB-2" value="Embeddings" style="html=1;whiteSpace=wrap;verticalAlign=top;align=left;" vertex="1" parent="1">
          <mxGeometry x="320.68" y="860" width="108.16" height="60" as="geometry" />
        </mxCell>
        <mxCell id="V7VpkrUbAWtt0Lb4yNeB-3" value="" style="shape=image;verticalLabelPosition=bottom;labelBackgroundColor=default;verticalAlign=top;aspect=fixed;imageAspect=0;image=https://upload.wikimedia.org/wikipedia/commons/thumb/4/4d/OpenAI_Logo.svg/2560px-OpenAI_Logo.svg.png;" vertex="1" parent="1">
          <mxGeometry x="347.15" y="890.84" width="55.22" height="15" as="geometry" />
        </mxCell>
        <mxCell id="V7VpkrUbAWtt0Lb4yNeB-11" value="Retriever" style="html=1;whiteSpace=wrap;verticalAlign=middle;align=center;" vertex="1" parent="1">
          <mxGeometry x="590" y="870" width="90" height="40" as="geometry" />
        </mxCell>
        <mxCell id="V7VpkrUbAWtt0Lb4yNeB-14" value="" style="shape=image;verticalLabelPosition=bottom;labelBackgroundColor=default;verticalAlign=top;aspect=fixed;imageAspect=0;image=https://miro.medium.com/v2/resize:fit:793/0*RTW5byy6eH_eSWTP.png;" vertex="1" parent="1">
          <mxGeometry x="487.00000000000006" y="883.0000000000001" width="47.51" height="30.68" as="geometry" />
        </mxCell>
        <mxCell id="V7VpkrUbAWtt0Lb4yNeB-17" style="edgeStyle=orthogonalEdgeStyle;rounded=0;orthogonalLoop=1;jettySize=auto;html=1;entryX=0.499;entryY=1.001;entryDx=0;entryDy=0;entryPerimeter=0;startArrow=classic;startFill=1;exitX=0.733;exitY=-0.002;exitDx=0;exitDy=0;exitPerimeter=0;" edge="1" parent="1" source="SgS0V56UMz8pu0Pxa2FE-9" target="SgS0V56UMz8pu0Pxa2FE-27">
          <mxGeometry relative="1" as="geometry" />
        </mxCell>
        <mxCell id="V7VpkrUbAWtt0Lb4yNeB-18" style="edgeStyle=orthogonalEdgeStyle;rounded=0;orthogonalLoop=1;jettySize=auto;html=1;entryX=0.474;entryY=1.007;entryDx=0;entryDy=0;entryPerimeter=0;exitX=0.26;exitY=-0.002;exitDx=0;exitDy=0;exitPerimeter=0;startArrow=classic;startFill=1;" edge="1" parent="1" source="SgS0V56UMz8pu0Pxa2FE-9" target="SgS0V56UMz8pu0Pxa2FE-4">
          <mxGeometry relative="1" as="geometry" />
        </mxCell>
        <mxCell id="V7VpkrUbAWtt0Lb4yNeB-19" style="edgeStyle=orthogonalEdgeStyle;rounded=0;orthogonalLoop=1;jettySize=auto;html=1;startArrow=classic;startFill=1;" edge="1" parent="1" source="SgS0V56UMz8pu0Pxa2FE-2">
          <mxGeometry relative="1" as="geometry">
            <mxPoint x="269.65999999999997" y="540" as="targetPoint" />
          </mxGeometry>
        </mxCell>
        <mxCell id="V7VpkrUbAWtt0Lb4yNeB-20" style="edgeStyle=orthogonalEdgeStyle;rounded=0;orthogonalLoop=1;jettySize=auto;html=1;entryX=-0.012;entryY=0.5;entryDx=0;entryDy=0;entryPerimeter=0;startArrow=classic;startFill=1;" edge="1" parent="1" source="SgS0V56UMz8pu0Pxa2FE-4" target="SgS0V56UMz8pu0Pxa2FE-27">
          <mxGeometry relative="1" as="geometry" />
        </mxCell>
        <mxCell id="V7VpkrUbAWtt0Lb4yNeB-23" value="" style="shape=image;verticalLabelPosition=bottom;labelBackgroundColor=default;verticalAlign=top;aspect=fixed;imageAspect=0;image=https://streamlit.io/images/brand/streamlit-logo-primary-colormark-darktext.svg;" vertex="1" parent="1">
          <mxGeometry x="197.93" y="420" width="144.14" height="40" as="geometry" />
        </mxCell>
        <mxCell id="V7VpkrUbAWtt0Lb4yNeB-24" value="" style="shape=image;verticalLabelPosition=bottom;labelBackgroundColor=default;verticalAlign=top;aspect=fixed;imageAspect=0;image=https://miro.medium.com/v2/resize:fit:1200/1*WQ6i2QY2CFKCytJDQVrOEA.png;" vertex="1" parent="1">
          <mxGeometry x="313.31" y="780" width="70.22" height="55.41" as="geometry" />
        </mxCell>
      </root>
    </mxGraphModel>
  </diagram>
  <diagram name="Copia de Página-2" id="_e6WVVxYLxdK6QgZBaoM">
    <mxGraphModel dx="1429" dy="904" grid="1" gridSize="10" guides="1" tooltips="1" connect="1" arrows="1" fold="1" page="1" pageScale="1" pageWidth="827" pageHeight="1169" math="0" shadow="0">
      <root>
        <mxCell id="9y-pd3OVOo4H0gQNzhl5-0" />
        <mxCell id="9y-pd3OVOo4H0gQNzhl5-1" parent="9y-pd3OVOo4H0gQNzhl5-0" />
        <mxCell id="9y-pd3OVOo4H0gQNzhl5-2" value="" style="html=1;whiteSpace=wrap;strokeColor=none;" parent="9y-pd3OVOo4H0gQNzhl5-1" vertex="1">
          <mxGeometry x="14" y="10" width="800" height="610" as="geometry" />
        </mxCell>
        <mxCell id="9y-pd3OVOo4H0gQNzhl5-3" value="Interfaz" style="shape=umlFrame;whiteSpace=wrap;html=1;pointerEvents=0;width=70;height=30;" parent="9y-pd3OVOo4H0gQNzhl5-1" vertex="1">
          <mxGeometry x="331" y="30.5" width="160" height="100" as="geometry" />
        </mxCell>
        <mxCell id="9y-pd3OVOo4H0gQNzhl5-4" value="Orquestador" style="shape=umlFrame;whiteSpace=wrap;html=1;pointerEvents=0;width=90;height=30;" parent="9y-pd3OVOo4H0gQNzhl5-1" vertex="1">
          <mxGeometry x="331" y="190.5" width="160" height="100" as="geometry" />
        </mxCell>
        <mxCell id="9y-pd3OVOo4H0gQNzhl5-5" value="" style="shape=image;verticalLabelPosition=bottom;labelBackgroundColor=default;verticalAlign=top;aspect=fixed;imageAspect=0;image=https://brandlogos.net/wp-content/uploads/2025/04/langgraph-logo_brandlogos.net_nezpd.png;" parent="9y-pd3OVOo4H0gQNzhl5-1" vertex="1">
          <mxGeometry x="349.69" y="240.5" width="126.31" height="20" as="geometry" />
        </mxCell>
        <mxCell id="9y-pd3OVOo4H0gQNzhl5-6" value="Tools" style="shape=umlFrame;whiteSpace=wrap;html=1;pointerEvents=0;width=90;height=30;" parent="9y-pd3OVOo4H0gQNzhl5-1" vertex="1">
          <mxGeometry x="34" y="350" width="760" height="250" as="geometry" />
        </mxCell>
        <mxCell id="9y-pd3OVOo4H0gQNzhl5-7" value="&lt;div&gt;Resumen estadístico&lt;/div&gt;" style="html=1;whiteSpace=wrap;verticalAlign=top;" parent="9y-pd3OVOo4H0gQNzhl5-1" vertex="1">
          <mxGeometry x="52.629999999999995" y="425" width="133.15" height="100" as="geometry" />
        </mxCell>
        <mxCell id="9y-pd3OVOo4H0gQNzhl5-8" value="" style="shape=image;verticalLabelPosition=bottom;labelBackgroundColor=default;verticalAlign=top;aspect=fixed;imageAspect=0;image=https://images.icon-icons.com/2699/PNG/512/python_logo_icon_168886.png;" parent="9y-pd3OVOo4H0gQNzhl5-1" vertex="1">
          <mxGeometry x="102.75" y="450" width="32.31" height="32.31" as="geometry" />
        </mxCell>
        <mxCell id="9y-pd3OVOo4H0gQNzhl5-9" value="&lt;div&gt;Búsqueda en internet&lt;/div&gt;" style="html=1;whiteSpace=wrap;verticalAlign=top;" parent="9y-pd3OVOo4H0gQNzhl5-1" vertex="1">
          <mxGeometry x="205.77999999999997" y="425" width="133.15" height="100" as="geometry" />
        </mxCell>
        <mxCell id="9y-pd3OVOo4H0gQNzhl5-12" value="Libros de&lt;div&gt;estadística (PDF)&lt;/div&gt;" style="shape=document;whiteSpace=wrap;html=1;boundedLbl=1;size=0.125;" parent="9y-pd3OVOo4H0gQNzhl5-1" vertex="1">
          <mxGeometry x="637" y="460" width="108.16" height="60" as="geometry" />
        </mxCell>
        <mxCell id="9y-pd3OVOo4H0gQNzhl5-13" style="edgeStyle=orthogonalEdgeStyle;rounded=0;orthogonalLoop=1;jettySize=auto;html=1;entryX=0.5;entryY=0;entryDx=0;entryDy=0;" parent="9y-pd3OVOo4H0gQNzhl5-1" source="9y-pd3OVOo4H0gQNzhl5-15" target="9y-pd3OVOo4H0gQNzhl5-19" edge="1">
          <mxGeometry relative="1" as="geometry" />
        </mxCell>
        <mxCell id="9y-pd3OVOo4H0gQNzhl5-14" style="edgeStyle=orthogonalEdgeStyle;rounded=0;orthogonalLoop=1;jettySize=auto;html=1;entryX=0;entryY=0.5;entryDx=0;entryDy=0;startArrow=classic;startFill=1;" parent="9y-pd3OVOo4H0gQNzhl5-1" source="9y-pd3OVOo4H0gQNzhl5-15" target="9y-pd3OVOo4H0gQNzhl5-21" edge="1">
          <mxGeometry relative="1" as="geometry" />
        </mxCell>
        <mxCell id="9y-pd3OVOo4H0gQNzhl5-15" value="DB" style="shape=cylinder3;whiteSpace=wrap;html=1;boundedLbl=1;backgroundOutline=1;size=7.627462948069933;verticalAlign=top;align=left;" parent="9y-pd3OVOo4H0gQNzhl5-1" vertex="1">
          <mxGeometry x="381.08" y="410" width="80" height="60" as="geometry" />
        </mxCell>
        <mxCell id="9y-pd3OVOo4H0gQNzhl5-16" value="LLM" style="shape=umlFrame;whiteSpace=wrap;html=1;pointerEvents=0;width=70;height=30;" parent="9y-pd3OVOo4H0gQNzhl5-1" vertex="1">
          <mxGeometry x="597.08" y="190" width="160" height="100" as="geometry" />
        </mxCell>
        <mxCell id="9y-pd3OVOo4H0gQNzhl5-17" value="" style="shape=image;verticalLabelPosition=bottom;labelBackgroundColor=default;verticalAlign=top;aspect=fixed;imageAspect=0;image=https://upload.wikimedia.org/wikipedia/commons/thumb/4/4d/OpenAI_Logo.svg/2560px-OpenAI_Logo.svg.png;" parent="9y-pd3OVOo4H0gQNzhl5-1" vertex="1">
          <mxGeometry x="631.07" y="235" width="92.03" height="25" as="geometry" />
        </mxCell>
        <mxCell id="MHVC_q947Bw1XRnwQ276-2" value="" style="edgeStyle=orthogonalEdgeStyle;rounded=0;orthogonalLoop=1;jettySize=auto;html=1;entryX=0;entryY=0.5;entryDx=0;entryDy=0;" parent="9y-pd3OVOo4H0gQNzhl5-1" source="9y-pd3OVOo4H0gQNzhl5-19" target="MHVC_q947Bw1XRnwQ276-1" edge="1">
          <mxGeometry relative="1" as="geometry" />
        </mxCell>
        <mxCell id="9y-pd3OVOo4H0gQNzhl5-19" value="Embeddings" style="html=1;whiteSpace=wrap;verticalAlign=top;align=left;" parent="9y-pd3OVOo4H0gQNzhl5-1" vertex="1">
          <mxGeometry x="366.99999999999994" y="500" width="108.16" height="60" as="geometry" />
        </mxCell>
        <mxCell id="9y-pd3OVOo4H0gQNzhl5-20" value="" style="shape=image;verticalLabelPosition=bottom;labelBackgroundColor=default;verticalAlign=top;aspect=fixed;imageAspect=0;image=https://upload.wikimedia.org/wikipedia/commons/thumb/4/4d/OpenAI_Logo.svg/2560px-OpenAI_Logo.svg.png;" parent="9y-pd3OVOo4H0gQNzhl5-1" vertex="1">
          <mxGeometry x="391.63" y="523" width="58.9" height="16" as="geometry" />
        </mxCell>
        <mxCell id="9y-pd3OVOo4H0gQNzhl5-21" value="Retriever" style="html=1;whiteSpace=wrap;verticalAlign=middle;align=center;" parent="9y-pd3OVOo4H0gQNzhl5-1" vertex="1">
          <mxGeometry x="507.0799999999999" y="420" width="90" height="40" as="geometry" />
        </mxCell>
        <mxCell id="9y-pd3OVOo4H0gQNzhl5-22" value="" style="shape=image;verticalLabelPosition=bottom;labelBackgroundColor=default;verticalAlign=top;aspect=fixed;imageAspect=0;image=https://miro.medium.com/v2/resize:fit:793/0*RTW5byy6eH_eSWTP.png;" parent="9y-pd3OVOo4H0gQNzhl5-1" vertex="1">
          <mxGeometry x="408.67" y="433" width="47.51" height="30.68" as="geometry" />
        </mxCell>
        <mxCell id="9y-pd3OVOo4H0gQNzhl5-23" style="edgeStyle=orthogonalEdgeStyle;rounded=0;orthogonalLoop=1;jettySize=auto;html=1;entryX=0.499;entryY=1.001;entryDx=0;entryDy=0;entryPerimeter=0;startArrow=classic;startFill=1;exitX=0.733;exitY=-0.002;exitDx=0;exitDy=0;exitPerimeter=0;" parent="9y-pd3OVOo4H0gQNzhl5-1" target="9y-pd3OVOo4H0gQNzhl5-16" edge="1">
          <mxGeometry relative="1" as="geometry">
            <mxPoint x="677.0799999999999" y="349.5" as="sourcePoint" />
          </mxGeometry>
        </mxCell>
        <mxCell id="9y-pd3OVOo4H0gQNzhl5-25" style="edgeStyle=orthogonalEdgeStyle;rounded=0;orthogonalLoop=1;jettySize=auto;html=1;startArrow=classic;startFill=1;" parent="9y-pd3OVOo4H0gQNzhl5-1" source="9y-pd3OVOo4H0gQNzhl5-3" edge="1">
          <mxGeometry relative="1" as="geometry">
            <mxPoint x="410.65999999999997" y="190.5" as="targetPoint" />
          </mxGeometry>
        </mxCell>
        <mxCell id="9y-pd3OVOo4H0gQNzhl5-26" style="edgeStyle=orthogonalEdgeStyle;rounded=0;orthogonalLoop=1;jettySize=auto;html=1;startArrow=classic;startFill=1;" parent="9y-pd3OVOo4H0gQNzhl5-1" source="9y-pd3OVOo4H0gQNzhl5-4" edge="1">
          <mxGeometry relative="1" as="geometry">
            <mxPoint x="597" y="240" as="targetPoint" />
          </mxGeometry>
        </mxCell>
        <mxCell id="MHVC_q947Bw1XRnwQ276-14" style="edgeStyle=orthogonalEdgeStyle;rounded=0;orthogonalLoop=1;jettySize=auto;html=1;exitX=1.001;exitY=0.539;exitDx=0;exitDy=0;exitPerimeter=0;" parent="9y-pd3OVOo4H0gQNzhl5-1" source="9y-pd3OVOo4H0gQNzhl5-3" edge="1">
          <mxGeometry relative="1" as="geometry">
            <mxPoint x="642" y="84.5333333333333" as="targetPoint" />
          </mxGeometry>
        </mxCell>
        <mxCell id="9y-pd3OVOo4H0gQNzhl5-27" value="" style="shape=image;verticalLabelPosition=bottom;labelBackgroundColor=default;verticalAlign=top;aspect=fixed;imageAspect=0;image=https://streamlit.io/images/brand/streamlit-logo-primary-colormark-darktext.svg;" parent="9y-pd3OVOo4H0gQNzhl5-1" vertex="1">
          <mxGeometry x="360.85" y="75.75" width="106.3" height="29.5" as="geometry" />
        </mxCell>
        <mxCell id="9y-pd3OVOo4H0gQNzhl5-28" value="" style="shape=image;verticalLabelPosition=bottom;labelBackgroundColor=default;verticalAlign=top;aspect=fixed;imageAspect=0;image=https://miro.medium.com/v2/resize:fit:1200/1*WQ6i2QY2CFKCytJDQVrOEA.png;" parent="9y-pd3OVOo4H0gQNzhl5-1" vertex="1">
          <mxGeometry x="237.25" y="455" width="70.22" height="55.41" as="geometry" />
        </mxCell>
        <mxCell id="MHVC_q947Bw1XRnwQ276-0" value="RAG" style="shape=umlFrame;whiteSpace=wrap;html=1;pointerEvents=0;width=90;height=30;" parent="9y-pd3OVOo4H0gQNzhl5-1" vertex="1">
          <mxGeometry x="354" y="370" width="413" height="210" as="geometry" />
        </mxCell>
        <mxCell id="MHVC_q947Bw1XRnwQ276-4" style="edgeStyle=orthogonalEdgeStyle;rounded=0;orthogonalLoop=1;jettySize=auto;html=1;entryX=0;entryY=0.5;entryDx=0;entryDy=0;" parent="9y-pd3OVOo4H0gQNzhl5-1" source="MHVC_q947Bw1XRnwQ276-1" target="9y-pd3OVOo4H0gQNzhl5-12" edge="1">
          <mxGeometry relative="1" as="geometry">
            <Array as="points">
              <mxPoint x="617" y="530" />
              <mxPoint x="617" y="490" />
            </Array>
          </mxGeometry>
        </mxCell>
        <mxCell id="MHVC_q947Bw1XRnwQ276-1" value="Splitter" style="html=1;whiteSpace=wrap;verticalAlign=middle;align=center;" parent="9y-pd3OVOo4H0gQNzhl5-1" vertex="1">
          <mxGeometry x="507.0799999999999" y="510" width="90" height="40" as="geometry" />
        </mxCell>
        <mxCell id="MHVC_q947Bw1XRnwQ276-5" value="Pruebas" style="shape=umlFrame;whiteSpace=wrap;html=1;pointerEvents=0;width=70;height=30;" parent="9y-pd3OVOo4H0gQNzhl5-1" vertex="1">
          <mxGeometry x="77.31000000000006" y="190.5" width="160" height="100" as="geometry" />
        </mxCell>
        <mxCell id="MHVC_q947Bw1XRnwQ276-7" style="edgeStyle=orthogonalEdgeStyle;rounded=0;orthogonalLoop=1;jettySize=auto;html=1;entryX=0.003;entryY=0.495;entryDx=0;entryDy=0;entryPerimeter=0;startArrow=classic;startFill=1;" parent="9y-pd3OVOo4H0gQNzhl5-1" source="MHVC_q947Bw1XRnwQ276-5" target="9y-pd3OVOo4H0gQNzhl5-4" edge="1">
          <mxGeometry relative="1" as="geometry" />
        </mxCell>
        <mxCell id="MHVC_q947Bw1XRnwQ276-9" value="Preguntas de prueba (csv)" style="shape=document;whiteSpace=wrap;html=1;boundedLbl=1;size=0.125;" parent="9y-pd3OVOo4H0gQNzhl5-1" vertex="1">
          <mxGeometry x="103.22999999999995" y="80" width="108.16" height="60" as="geometry" />
        </mxCell>
        <mxCell id="MHVC_q947Bw1XRnwQ276-11" style="edgeStyle=orthogonalEdgeStyle;rounded=0;orthogonalLoop=1;jettySize=auto;html=1;entryX=0.493;entryY=0.942;entryDx=0;entryDy=0;entryPerimeter=0;" parent="9y-pd3OVOo4H0gQNzhl5-1" source="MHVC_q947Bw1XRnwQ276-5" target="MHVC_q947Bw1XRnwQ276-9" edge="1">
          <mxGeometry relative="1" as="geometry">
            <mxPoint x="158" y="140" as="targetPoint" />
          </mxGeometry>
        </mxCell>
        <mxCell id="MHVC_q947Bw1XRnwQ276-12" style="edgeStyle=orthogonalEdgeStyle;rounded=0;orthogonalLoop=1;jettySize=auto;html=1;startArrow=classic;startFill=1;" parent="9y-pd3OVOo4H0gQNzhl5-1" source="9y-pd3OVOo4H0gQNzhl5-4" edge="1">
          <mxGeometry relative="1" as="geometry">
            <mxPoint x="411" y="350" as="targetPoint" />
          </mxGeometry>
        </mxCell>
        <mxCell id="MHVC_q947Bw1XRnwQ276-15" value="EC2" style="text;html=1;align=center;verticalAlign=middle;whiteSpace=wrap;rounded=0;" parent="9y-pd3OVOo4H0gQNzhl5-1" vertex="1">
          <mxGeometry x="647.09" y="117.75" width="60" height="30" as="geometry" />
        </mxCell>
        <mxCell id="MHVC_q947Bw1XRnwQ276-16" value="" style="sketch=0;points=[[0,0,0],[0.25,0,0],[0.5,0,0],[0.75,0,0],[1,0,0],[0,1,0],[0.25,1,0],[0.5,1,0],[0.75,1,0],[1,1,0],[0,0.25,0],[0,0.5,0],[0,0.75,0],[1,0.25,0],[1,0.5,0],[1,0.75,0]];outlineConnect=0;fontColor=#232F3E;fillColor=#ED7100;strokeColor=#ffffff;dashed=0;verticalLabelPosition=bottom;verticalAlign=top;align=center;html=1;fontSize=12;fontStyle=0;aspect=fixed;shape=mxgraph.aws4.resourceIcon;resIcon=mxgraph.aws4.ec2;" parent="9y-pd3OVOo4H0gQNzhl5-1" vertex="1">
          <mxGeometry x="642" y="49.25" width="68.5" height="68.5" as="geometry" />
        </mxCell>
        <mxCell id="8-EVtDwhSgNOyVy5udmj-0" value="" style="shape=image;verticalLabelPosition=bottom;labelBackgroundColor=default;verticalAlign=top;aspect=fixed;imageAspect=0;image=https://brandlogos.net/wp-content/uploads/2025/03/langchain-logo_brandlogos.net_9zgaw.png;" vertex="1" parent="9y-pd3OVOo4H0gQNzhl5-1">
          <mxGeometry x="70.8" y="455" width="96.81" height="96.81" as="geometry" />
        </mxCell>
        <mxCell id="8-EVtDwhSgNOyVy5udmj-3" value="" style="shape=image;verticalLabelPosition=bottom;labelBackgroundColor=default;verticalAlign=top;aspect=fixed;imageAspect=0;image=data:image/png,iVBORw0KGgoAAAANSUhEUgAABHUAAADfCAYAAAB4Wu+2AAAAAXNSR0IArs4c6QAAAARnQU1BAACxjwv8YQUAAAAJcEhZcwAAFiUAABYlAUlSJPAAANZGSURBVHhe7N13WJzXnS/w7/Q+DAxD7733IooKIFC1bBXbcWI7cUm8WSe7m03Z56Zt9sndTXZvkt2sN9mbYjt2bEdK3GQVJEBCoglJIEBCFAGidxgYmIHpc/+4vO+iUYEZBphB5/M888jmfRmGl7ec8zu/8zsMi8ViAUEQBEEQBEEQBEEQBOFSmNZfIAiCIAiCIAiCIAiCIJwfCeoQBEEQBEEQBEEQBEG4IBLUIQiCIAiCIAiCIAiCcEEkqEMQBEEQBEEQBEEQBOGCSFCHIAiCIAiCIAiCIAjCBZGgDkEQBEEQBEEQBEEQhAsiQR2CIAiCIAiCIAiCIAgXRII6BEEQBEEQBEEQBEEQLogEdQiCIAiCIAiCIAiCIFwQCeoQBEEQBEEQBEEQBEG4IBLUIQiCIAiCIAiCIAiCcEEkqEMQBEEQBEEQBEEQBOGCSFCHIAiCIAiCIAiCIAjCBZGgDkEQBEEQBEEQBEEQhAsiQR2CIAiCIAiCIAiCIAgXRII6BEEQBEEQBEEQBEEQLogEdQiCIAiCIAiCIAiCIFwQCeoQBEEQBEEQBEEQBEG4IBLUIQiCIAiCIAiCIAiCcEEkqEMQBEEQBEEQBEEQBOGCSFCHIAiCIAiCIAiCIAjCBTEsFovF+ovE+jKZTNDr9dDr9TCZTDAajbBYLFCr1RgbG8PMzAzUajUWFxeh1Wqh0+mg1WphMBhgMBig1+thMBis35YgNgyHwwGXy6X/5fF44PP54PF4EAgEEIvF8PDwgI+PD0QiERgMBlgsFjgcDvh8PrhcrvVbEgRBEARBEARBEDYiQZ11ZjQa6YCMXq+HRqPB3NwcNBoN/d8LCwuwWCzQ6XR0QEer1dKBHyqYYzQaYTKZYDAYYDKZrH8UQWwYNpsNNpsNFosFNpt9X5CHz+dDIpFAJpOBx+OBwWBAIBBAKpXCzc0Nbm5uEAgEdICHy+VCIBCAxWJZ/yiCIAiCIAiCIAjiIUhQZx0ZjUZMTU1hZGQE09PTmJmZwejoKEZHRzE1NYWJiQn09fVhcnISAMBgMGAymWA2m2GxWO57AbjvX4LYDAwG475/rV9MJpMO0lgsFnh6eiIoKAj+/v7w8fGBp6cn5HI5PD094eXlhYCAAMjlcjCZZFYoQRAEQRAEQRDEapCgjoNYLBYolUo6eKNUKjEzM4OJiQmMjY1hdnYWc3Nz9D5zc3OYnZ3FxMSE9VsRxJZFBXE8PDzuydqRy+Xw9/eHQqGARCKBXC6Ht7c3PDw8IJFI6OARQRAEQRAEQRAE8T9IUMdBpqen0dLSgqamJjQ1NaG3txdKpRIqlQpqtRpGoxEA6Cwc6l8yjYp4nDCZTPpFZfNgqUaPVCqFVCqFWCxGVFQUduzYgaSkJISHh8Pd3Z1MzSIIgiAIgiAIgrBCgjp20Ov1UKlUmJubw+TkJLq7u9HV1YWBgQH09/ejt7cXExMTWFhYsP5WgiAegcFggMfjwdfXF7GxsQgMDIS3tzfCw8MRFRUFb29vyGQyuLm5kWlaBEEQBEEQBEE89khQx0ZarRYjIyPo7u7GwMAAOjs7UV5ejpaWFmApE4HUvSEI+1FTrZhMJp3JlpKSguLiYsTHxyMsLAzh4eHw8fEhgR2CIAiCIAiCIB5rJKizSr29vRgaGsLQ0BA6OjrQ0dGBqakpTE9Po7OzE1qt1vpbCIJwEIFAgKioKHh5ecHLywvR0dGIiYlBWFgYAgMD4eXlZf0tBEEQBEEQBEEQWx4J6jzA8kPCYDDQ29uL2tpatLS0oK2tDbdv30Z/f/8930MQxMYJCgpCUlIStm3bhvT0dMTHx8PHxwcsFotefYsgCIIgCIIgCGKrI0EdKxaLBXNzc5iYmEBHRweuXr2Krq4uTExMYHJyEtPT05ienobBYLD+VoIgNgibzYanpyf8/Pzg7e0NqVSKiIgI7Nq1C7GxsVAoFOByudbfRhAEQRAEQRAEsaWQoM4yWq0Wk5OTdK2c6upq/OUvf4FGo7HelSAIJyOTyfDCCy+goKAAkZGR8PHxgUQiAY/Hs96VIAiCIAiCIAhiSyBBnSUajQYdHR2oq6vDjRs30NPTQ9fRIQjCNYSGhiIiIgIxMTFITk5GamoqoqKiIBaLrXclCIIgCIIgCIJweY91UMdkMkGn00GpVKKjowONjY2orKxEc3MzxsfH6f0YDAZZyYognJj1NRocHIyUlBTk5uYiIyMDcXFxkMlkYLFYYLPZpOYOQRAEQRAEQRBbwmMd1JmamkJ5eTnOnz+Pnp4ejI+PY3p6GnNzczAajda7EwThIng8HsRiMTw8PBAREYGUlBTk5OQgLS2NLqhMEARBEARBEATh6h7LoI5Go8HAwACam5vx6aef4vz581CpVNa7EQSxBXA4HERFRSE7Oxvbt29HRkYGIiMjSa0dgiAIgiAIgiBc3mMX1FlcXERzczNOnjyJTz/9FENDQ1hcXITZbLbelSCILUIgEIDNZsPPzw/PPfccjh49ipiYGLDZbOtdCYIgCIIgCIIgXAbrRz/60Y+sv7gVGQwGDA0N4erVq6ioqMC5c+dw+/ZtGAwGUi+HILY4o9EIvV6P6elp6HQ6YKkOj0AgAJ/PB5PJtP4WgiAIgiAIgiAIp/fYZOr09vbigw8+wKVLl3Dr1i1MTU3BZDJZ70YQxBbHZDLh5+eHXbt2Yffu3di9ezf8/f2tdyMIgiAIgiAIgnB6WzpTx2KxYHZ2Fp2dnaioqMCpU6fQ0NAApVJJZ+eQVXAI4vFAXesWiwVzc3NQqVTQaDTQ6/VgMpmQSqXgcrnW30YQBEEQBEEQBOG0tmymjsViwfz8PJqamvDnP/8ZNTU16OnpgUajsd6VIIjHlFQqRUhICHbu3IlXXnkFSUlJJNBLEARBEARBEITL2LKZOtPT07h8+TJKS0tRWVmJO3fuQKvVWu9GEMRjZnnQRqfTQalUYnFxERaLBUwmE3K5nKyMRRAEQRAEQRCES9hymToWiwVqtRo3btzAb37zG1RWVmJ6ehoGg8F6V4IgCAAAn89HUFAQioqK8NJLLyEhIQF8Pp9k7RAEQRAEQRAE4dS2VFDHYDCgr68P5eXlqKysxLVr1zAwMGC9G0EQxH14PB6CgoKQkZGB4uJiHDhwAF5eXta7EQRBEARBEARBOI0tE9QxmUzo6+tDdXU1/uu//guNjY3WuxAEQazKjh078P3vfx8ZGRlwc3MjS54TBEEQBEEQBOGUtkRPhcrQOXnyJN599110dHRY70IQBLFqbW1tePvtt3H+/HmoVCrrzQRBEARBEARBEE7B5TN1zGYzenp6UFdXh3feeQeVlZXWu7gMBoMBJpMJFotF/0v9N7Wd+nNZLBaYzWaYTCaYzeb7XgRBrI1YLMYTTzyBl156CUlJSfDy8iI1dgiCIAiCIAiCcCouH9QZHR3FiRMn8MEHH6C9vR1qtdp6F5fBYDAQGBgIX19feHl5ITg4GBEREfDw8ACPxwODwYDJZILFYsHi4iJGRkYwNDSEiYkJTExMYHJyEuPj4ySzgCAcxNPTE/Hx8XjhhRfwzDPPQCKRWO9CEARBEARBEASxaVw6qDMyMoLGxkb85je/wZkzZ6w3uwQGgwEulwuxWAw/Pz8kJiYiIiICAQEBiI6ORkJCAjw8PKy/DQBw9+5d9PT0YGhoiH719vbizp07mJqagsFggMFgoLN7CIKwz7Fjx/D1r3/9kdcjQRAEQRAEQRDERnPZoI5arUZ5eTn+9Kc/4cqVKxgaGrLexSUIBAIEBQVhx44dyM7ORnx8PLy9vcHlciESiSCVSh9apFWn00Gj0UCr1WJhYQFqtRqjo6O4c+cObty4gfr6evT19UGv19Pfs3wKF0EQqxMUFITt27fjhRdeQHFx8UOvSYIgCIIgCIIgiI3E+tGPfvQj6y86u6mpKVy/fh1nz55FWVkZxsbGXDJQwWQyER8fj4KCAuzbtw87duxAXFwc3N3dIZVKwefzH1nDg81mQyAQQCKRwMPDAz4+PggKCoKvry8dDGKxWDCZTNDpdDCZTNZvQRDEKqhUKkxNTcHT0xO+vr4QCoXgcrnWuxEEQRAEQRAEQWwolwzqXL9+Hb/85S9x8eJFTE1NuWywgsVi4cUXX8SXv/xlJCQkwN3dfc0ZAGw2GyKRCD4+PoiJiUFwcDAkEglmZ2cxNTVF7/eoYBHhvNhsNrCsqLYrBjNdlV6vh9FohE6ng0KhgI+Pj/UuBEEQBEEQBEEQG8qlpl/p9XoMDg7ixIkT+MUvfoHp6WnrXVyGu7s70tPT8fd///fYt2+f9WaHGR0dRXNzM8rKylBeXo7e3l4sLCxY70ZsMoFAAJFIBIFAAA6HAxaLRf/LYDDA5/MhlUrB5XLpKXRmsxkGgwF6vR4LCwtYWFiAXq+naynpdDqo1ep7pt+tBwaDATc3N4jFYnA4HBiNRszOzmJxcZEu7L1VyOVyJCYm4nOf+xyKiooQFBREMnbWwGQyQa/XY3FxEYuLi7BYLKsOOFP7ikQiSCQSsFgs610IgiC2PJPJRK+EajQaodfr6bYA9a/JZILRaKRf1CAFlgaLeDweveIqn88Hn88Hl8sFl8sFh8MBh8MBk8kEk8kEm81e8wAkQdjDZDLBYDDcs9Ivg8EAg8Ggz9ONQrVfbF1xmGq7UNfSRn5ma9RA5eLiInQ6nfXmRzKZTGAwGJDJZGQRESfhUkGd7u5unDhxAufPn8e1a9dsPgGdydNPP40vfvGLyMjIgLe3t/Vmh6FWyuru7kZ9fT3effdd1NbWWu9GbCIej0evdBYcHEwHSKRSKUQiEfh8PoRCIaRSKQQCAdhsNsxmM91w02q1mJ2dhVKpxNTUFJRKJVQqFcbGxnDnzh2MjIzAYDDQP8/RdZUkEgnS0tIQHR0Nd3d3zM7O4vr167h79y7m5+ddNpPuYWQyGXbu3Il9+/bhySefJBk7a6DRaDA5OYmenh709/fDZDKtOjhjNBrpKazJyckQCoXWuxAEQWx5MzMzUKvV0Gq1UKlUUCqVmJ6ehlKpxPz8PNRq9T0v6muLi4swm80QCARwd3eHUCiEUCikM1E9PDzol5ubG3g8HgQCAcRiMUQi0aZ2RonHk1KphFKpxOLiIh2UpIIj7u7uUCgUG3ZeajQajI6OQqPR2NSmtlgs4HA4EAgEkMlk8PDwWPVglqOpVCqMjIygt7cXo6OjsFgsKwZsqc+q0WjAZDKRm5uLlJQU692ITeAyQZ25uTlcuHABv/rVr9DY2IjZ2VnrXVyGp6cnvva1r+ErX/kKvL29V7yAHMFisaC7uxtvv/02jh8/jsHBQfqGSGw8Pp8PhUIBf39/BAYG0kGdwMBAiMVi8Pl8OnOHx+OBx+PRI2dUUIcafdPr9dBoNJifn8fs7CxUKhXUajXGx8fR3d2NwcFBjI+Po7+//56C4msJ7vD5fAQGBsLPzw/BwcFITk5GeHg4PDw8MDU1hcrKSly9ehWtra1bMjPMz88P+fn5+OpXv4r8/Hx6Whxhm5mZGXR1daGqqgq1tbXQ6/Xg8XjWuz2QVqsFm83GE088gaeffhoymcx6F4IgiC1nYWEBKpUK8/PzmJ6exsjICCYmJjA1NUU//1UqFebm5qDRaOhMSCqjl/pvKouXw+FAIpHQGTpUR9PNzQ0SiYQeaBKJRHBzc4NCoYBCoYCnpye9zc3NbUPassTjaXp6Gv39/WhtbcXAwAAd1KECDCwWCz4+PoiOjkZUVBRCQkKs38Lhent7UVpaiqGhIVgsllVlGlMZRjKZDMHBwUhISEBCQsKmtSFHRkZw+/ZtVFdXo7m5mQ44rcbc3Bz4fD5eeeUVHD582HozsQlcIqij0WjQ2NiIU6dO4d1338XExIT1Li5DLpcjISEBL7zwAo4cOQJ3d3frXdaNwWBAVVUVTp8+jVOnTqGnp8d6F2IDsFgshIeHIy8vD8XFxQgNDYW7uzvkcjkkEgldK4dKKaUeEsv/m0Jdvpal6VjUvyaTCQsLC5iZmaEDOhUVFXjvvffozJm1BHXi4uKwZ88eZGdnIzY2Fl5eXhCLxRCLxZiamkJdXR3Onj2LDz/80KWnST5KQEAAXn/9dTzxxBOIiIhYdTCC+B8TExNoamrC+++/j7/85S/QarXg8/nWuz2QVqsFi8XC3/zN3+B//a//BYVCYb0LQRDElnP79m20t7fTGY7Dw8Po7++nO7tUG2KlF5ZNBbF+MZlM+l/LUkdPLBZDLpcjICAAAQEB9IBUaGgoIiMjSdYqsS7UajXq6upw8eJFXL58GR0dHTAajfS5S03zDwgIQEZGBg4ePIj9+/eve/+qtrYW3/ve93Djxg1gaTrSSoFNahpkcHAw8vPzcfDgQTzxxBObNo3/7t27qKmpwZ/+9CeUl5fDbDavui2r1WohEAjw05/+FH/zN39jvZnYBE5fKNloNKK9vR0fffQRKioq0Nvba3dH1BkEBAQgNzcXOTk5iIyMXPVUA0dgsVgQi8UQCoWYnZ3FxMQEdDqdzfNBCfu4u7sjKysLu3fvRlFREXbt2oX09HSEhobSQRE2m03Pa2exWPQcdqqB9bAXc2mlMxaLBTabDS6XC5FIBLlcDi8vL/j4+MDHxwf+/v4wm80YHR196N/dOnAklUrh7++PmJgYpKWlYceOHdi7dy+2b9+O5ORkhIaGws3NjX4oCQQC6PV6jIyM4MaNG1Cr1fe8nytbfmyokU6TyQQvLy94eHis+EAn7qVWqzE0NIRr167h1q1bwNI9fzUvLHVIkpOTUVBQAJFIZPXuBEEQrm9iYgIdHR2ora1FaWkpLl26hKtXr6KpqQkdHR3o7e3F4OAg1Go1jEYjDAYDfZ9cXm+HGvh5UBua+jq1H9X5pN5Lp9PR2cBU+5EKJnV3d+POnTvo7e2lO3orrd5KECvRaDSor6/HX/7yF5SXl6OhoQFtbW2Ym5u7p2YUda4rlUqo1WpMTk5iaGgIOp0OQqGQrhflaH19fTh9+jT6+vru+TyPehmNRvr6CgwMRHR0NGJiYjYtU2d6ehq9vb24du0a+vv7ARvbYEajEYWFhcjLy7N6Z2IzOHVQx2AwYHBwEFVVVXj77bfR1tb2wIeRK0lKSkJxcTGSkpI2ZWRZJBJBoVBAp9NBo9FgenoaGo3GejfCgRgMBng8HlJSUvDqq6/iC1/4AoqLixEXFwc3Nze6AOF64XA4kEqlCA8Px65du6DT6XDhwgX6pvwoIpEIMTExyMrKQklJCZ599lm8+OKL2LFjB13/hwo4UXQ6HZRKJbq6unDt2rUtFdRZzmw2o7+/H0qlEsHBwVAoFBAKhev6t9xqFhYWMDY2htbWVrS2tlpvXpWcnBzs3LmTBHUIgthSLBYLZmZmcOPGDZSWluL3v/893nvvPVy9ehUdHR0YGBjA1NTUhtauM5vN0Gg0UCqVGBoawp07d9Dc3IyamhrU19dDq9VCLpdDJBJBKBSSwA5hF71ej+HhYbz55pv413/9V9y6dQtjY2P0lMGHUalU6OzsRFVVFQwGA7y9veHu7g6xWGy965qNjo7i+vXrmJychMFgsKl/qlAoEBcXh4SEhA0f4F9OpVJheHgYt2/fxt27d603r4jBYGDfvn3Iycmx3kRsAqfufWg0GtTU1KCiogIjIyP0113lIbH8cwqFQmRnZ6OgoACpqanrWhx5JTKZDGlpacjNzb2nYrmrHFdX4+3tjb179+Lo0aPYtm0bwsLC6CkmVKaNI1gsFszOzmJoaAi9vb3o6urCnTt30NHRgfb2dvT19WFsbAxqtXpVD5+0tDQ899xzePHFF/HMM8+goKAACQkJdOd5efbQclqtFm1tbWhvb3fpYuarNTAwgLq6OrS0tKwqUEY4nvU5SBAE4aosFgump6dx/fp1fPzxx/jLX/6C0tJStLe30/usJvtmPVhn9FBZBwaDAaOjo7hw4QLefPNNfPDBB7h06RJGRkY27LMRW4dSqcStW7fQ3d1Nnz/Uuf4oy/dtaWnB5cuXMTo6ar2bQ1BZ8vYM5D2o7byZnOmzEPaz/UzcQGNjY6isrERNTc090dmVLmpnsfxzxsTE4Mknn8Tu3bsRHR0NqVR6z74byWKxIDIyEpmZmfDz87vn64TjsNls+Pr6Ij09HceOHcOTTz7p0OJtVOPKZDJBpVKhr68Pt27dwtWrV1FTU4OqqipcvHgR5eXlKC0txcmTJ/HJJ5+gqalpxVG9wMBAHDx4EF/60pfw3HPPYc+ePYiPj3/kaIfFYoHBYMDdu3dRXV2NxsbGLVkk2dri4iLq6+tRX1+PmZkZ680EQRAEsWoTExNobm5GaWkpjh8/js8++wzNzc0uMWjQ3d2NP/3pT3j33XfxySefoKGhAUNDQ9Bqtda7EsRDDQ4Oor6+HuPj49abVm14eBg1NTXo7e213uQQVBvc3r6Tvd+3HpzpsxD2c9rpV9To99mzZ9HZ2fnQ+h/OTiwWY9u2bThw4AD27duH6OhoSCSSTY2KMhgMesrPyMgIPQXLFRoMzsr678lmsxEVFYVnn30Wn/vc55Ceng4/Pz+HFUMzmUyYmprCzZs3ceHCBZSXl6O8vBwXL15ETU0NGhsb0dzcjJaWFty6dQutra24ffs2WltbcefOHczMzNx3E+dyuQgJCcGTTz6JF154AYWFhYiKilr1cotmsxnnzp3Dhx9+iOrqavT19UGn0933c7Yao9EIlUoFDoeDgIAAeHh4kOW1V4laErSlpcXu6VdZWVlk+hVBEC7JsmzFHGpKb3l5Of74xz+iqqoKvb29mJ6edrnnKLUyV39/P0ZHR8Hn8+Hm5rbqQvjE42txcREXL17EBx98gDt37sBgMFjvsio6nQ46nQ5hYWEICQmBUCh06DSnoaEhXL58ma7fY8s16ubmhvDwcERHR2/q9KvZ2VkMDAygpaXF7ulXe/bsIdOvnIRTZuqo1Wo0Njbi8uXLGBgYsN7sUsLCwuiATkpKCtzc3FbVQd4Inp6eyMnJQX5+Ptzc3Kw3EzZYfjMXCoWIiYnB9u3b8cwzz6CkpARBQUFrDuiYTCYsLi5iamoKHR0duHbtGs6ePYv33nsPb7/9Nt555x18+OGHqKiowKVLl+hloq9cuYKrV6+ivr4eV65cwd27d+8LknK5XAQHByMvLw+vvPIKXn31VaSmptq0TPTo6ChKS0vx4YcforW1FRqN5r6fsxVZLBYsLi6ivb0dVVVVuHnzJhmVJAiCIFa0vD04ODiI2tpafPbZZ/j000/R1taGyclJl3yOLiwsoKOjA6dPn8bx48dx/vx5NDc3Q6lUWu9KEDSj0Yjp6Wl0dXWhubl5zdneU1NTdCHvubk5680EsaU4XVDHaDRiYGAAZWVlOHv2rMsuX87n8xEeHo7c3Fzs2rULsbGxds27XE9U8d709PR7Ag7OEnRyBdbHKiAgAAcPHsRrr72GV155BVFRUfdsX4v+/n5cvHgRv/3tb/F//s//wc9//nP85S9/wc2bNzEyMmJ3wWsul4ugoCA89dRTeOmllxAfH2+9yyNZLBZ0d3ejvLwcTU1NGBsbc8lG6FqNj4+jtLQUly9fxtTUlPVmgiAIgriP0WjEnTt3UFpaijfffBOXL1+23sVlWSwW9Pf344MPPsBvfvMb1NTUrGlKDbG1LS4uYmxsDLOzs9ab7GJZKjY+Ojq65gARQTg7p4oyWCwWDA0NobGxEVevXsXo6ChMJtN9HWdXIJFIkJGRgby8PMTGxjrldAwmk4mgoCDExcUhKCiI/rotKYSPu+XHytPTE3l5eXjiiSfw5JNPIjMzc81TQsxmMwwGA7q7u1FdXY3Tp0/jo48+wscff4xLly7hzp07mJ6eXnFFgEcJCAhAbm4u9uzZg507d8Ld3d16l0eamJhATU0NSktL0dPTY7151aiic65Kq9WitbUVN27cwN27dzE3N0euJYIgCOKRqGkcZ8+eRWVlJV2bzRXbvg+i0+nQ29uLs2fPorS0FFevXsXk5KT1bgQBg8EAtVoNg8HgkClJTCYTer0eCwsLpMQEseU5VQ+KwWDgxo0bOH369D2rXblix8jNzQ35+fnIysqCQCCw3uwUGAwGWCwWAgMDUVRUhOzsbDLf2U4xMTH467/+a7zyyisoLCyEr6+v9S52mZ2dRXV1NT744AP87ne/w8cff4zOzs41LRNu3VDMyMjACy+8gOTk5Pu2rWRqagrNzc04f/48Kioq1tRQ4/F49wU/bf08zmBkZATNzc3o7++33kQQBEEQwNKgzeTkJK5du4b3338fFy5cuGe7K7Z9H2Vubg4ffvgh3nnnHVy5coVk7BD3YbFYEAgE4HA41pvsxmaz6TqiBLGVOdUZPj8/j1u3bqG+vt7l592KxWLEx8cjIiICbDbberNTkcvl2LZtGzIzM22qofI4YzAYYLPZEAqFCAoKQklJCQ4dOoS8vDz4+fmt+W9usVhgNBoxNjaG6upqnDt3DleuXMHExAQ0Gs2aGnvU9zIYDPj7+yM7Oxs5OTnw9PS03vWRNBoNbty4gfPnz+Pq1at08WVbAjFMJhMKhQKJiYkoLi5GQUEBvTock8lc0++5WUZHR1FdXY3W1laS7ksQBEE80MzMDGpra3Hu3Dlcu3aNfl7Y8gy1B4vFAofDAZfLBYfDWfefh2W/09TUFKqqqlBaWoorV65genraelfiMcbn8+Hp6emwFYItFgskEgk8PT3JoDWx5TlNUEen06Gvrw/d3d0YGBiwu9q5s+DxeJDL5S4RGebz+YiKikJ8fDwUCoX1ZuIBmEwmpFIpCgoK8P3vfx8vvfQSYmJi7ss0sZfFYsHc3Bz6+/tx9epV3Lx50+F1apKTk/HCCy8gJyfH5mliarUa7e3tOHnyJN577717loy0JRAjFotx9OhR/Mu//Av+7d/+DT/4wQ/w0ksvITc312HHcqONjo7SQbjJyUmbjgdBEATxeBgYGMDbb7+N48ePY3Fxkf76ej4zWCwW3cn18vKCXC7fkM7u8t9pamoKf/rTn3D8+HE0NTWRwA5B4/F4CA0NhZeXl0P6T2azGQqFAmFhYZBIJNabCWJLWfsV4yDj4+NobW3F4OCg9SaXwmQyIRKJEBwc7LBI83rjcrkICAhAeHg4goKC4OHh4ZC5rFsZn8+Hn58f0tLSUFJSgpSUFJsDIyths9lgs9kwm80wGo0OH00LCAhAXl4ewsLCrDc9ksFgQEdHByoqKlBXV0dPubL183l4eCA7Oxu7d+9GcXExYmJikJmZiYMHDyI3N9fhx3MjUMdArVajo6ODXr2EIAiCILC0kuXU1BTa29vR3NxMB3RsfYY+Co/Hg5+fH6Kjo5GcnIzU1FRkZWWhsLAQhYWFKCoqQlFREXbv3o2ioiJkZWUhLS0NGRkZiIuLQ0BAAJ0x60jU76hSqXDlyhWcP38et27dcvmBXMJxqHqfsbGxa1411tvbG0FBQfD393fZgUKCWC3H3q3XoL+/H9evX3fZ1a4oAoEAqampSE1N3ZDRD0dgMBjg8XgICAhAdHQ0AgICSFBnBSKRCOHh4QgLC4NcLrfevGZUJlB4eDgSEhIQEREBHo9nvduaSCQS+Pv72zR6YTKZMD09jZqaGpw4cQJdXV30NltHF7Ozs/H8888jLS3tnt8tPj4e2dnZTluL6lGWH4OxsTHU1tbek8VEEARBPN50Oh2am5vR0NBwT/FWW5+hj+Lv7489e/bg5Zdfxne+8x384Ac/wA9/+EN861vfwte+9jW89tpreO211/DVr34Vf//3f48f/OAH+PGPf4x//Md/xF/91V9h3759iIuLc/iU/OW/4/DwME6cOIHKykqy3DRxj7CwMBw8eBBxcXHWm1ZNoVAgNTUVUVFRNi8AQhCuyCmCOtPT07h58yauXLmC0dFR680uhcp6CQgIWHOEeaN5e3sjPz8fSUlJDm1cbEVcLhceHh5wd3df1+CDh4cHkpKSEB8f79Cf4+7uDj8/P8hkMpvOU51Oh6mpKfT19aGrq8uuZdRFIhEyMzNRXFyMvLw8BAQEWO8CiUTi8oHFoaEhVFVV4c6dO9abCIIgiMfU1NQUrl+/juvXr69p0YPlZDIZ4uLikJ+fj6eeegpf+MIX8MQTT6C4uBg7duzA9u3bkZeXh6ysLKSnpyMlJQVJSUlISUmhV2rNy8tDfn4+ioqKcPDgQTzzzDN44YUX8PnPfx7FxcVISkqCj4+Pw4rYmkwmDA4OoqWlhUzDIu4RGBiIgoICpKWl2RVYZLPZiI+Px+7duxEREWG9mSC2pE0P6qhUKnR1daGhoQHXr1/H7Oys9S4uhclkQiKRrEva6npzd3fH7t27kZOT4/CskK2GyWSCx+OBzWbDZDJZb3YYPp+PlJQUpKWlOSx11N3dHfHx8QgMDASXy7Up5Vun02F2dhYLCwt2B/7S09Px8ssvY+/evQgLC3tgA3FmZmZdj+tGmJmZwZUrV9DZ2Yn5+XnrzQRBEMRjxGKxQKPRYHBwEA0NDbhx44ZDng0ikQgxMTE4duwYvv/97+NXv/oV/uEf/gH79u1DQkICfH194eHhAalUCqlUCrFYDKFQCIFAAIFAAJFIBDc3N7rtGhkZiZKSErz22mv4p3/6J/zsZz/Dj3/8Yzz//PPYtm2bw+qdUHp6enD+/Hm0t7dbbyIeUwqFAhkZGdi2bRuSkpLg5uZmvctDMRgM+Pj4ICcnB/v27UNwcLD1LgSxJTnurmyn2dlZ9PT0YGRkxOU7cVi2TDiLxbKps+wMGAwGJBIJEhISUFBQsC7TirYKnU5n80pP9uDxeIiKikJERITDMld4PB6kUilEIhHYbLZNvwOXy4VUKgWPx7P5euVwOIiJicGuXbuwc+dOhIeH3/ezqVoD4+Pj96SluyqTyYS+vj60tbU5pPFOEARBuCZqAYTR0VGMjIysaXAES8/j8PBw7N+/H0ePHkVJSQmysrLg5+cHkUgEPp8PDocDFosFJpP5wBeDwbjvaxwOB3w+H0KhEG5ubvD19UVycjJKSkpw9OhRPPvss8jJybH+OHbr6+tDZWUlWlpaMDMzY72ZeEzJZDJkZGTgqaeewp49exAVFbViO1ihUCAvLw9PP/00du3ahdDQUIdmuROEM9v0oM7k5CQ6Ojq2TNql2WyGVqvF4uIi/bA2Go0wGAwwGo1reoBvlLCwMDz77LPYuXPnijfQxxWPx6MbTOuJwWCAz+cjICDAYQ+m5YFHW4OPQqEQvr6+9MifLcLDw3HgwAEUFhYiJibmgdO+dDod+vv7MTAwAL1eb73ZJY2MjOD69esYGRmx3kQQBEE8JsxmM6ampjA8PLzmaVfUVP+8vDx88YtfxOc//3lkZWWtW+0QPp+P5ORkHDlyBK+99hqeeuopeHp6Wu9mF7VajcbGRjQ1NaG3t3fNx4bYOuLi4nDs2DE8++yz2LNnzyOzbuRyOVJTU3H48GG88soryM3NdVi7mSBcAetHP/rRj6y/uJFqampw/PhxdHZ2QqfTWW92ORwOB3K5HIGBgUhISACfz0dXVxeuX7+OqqoqTE9P01kSj2I2m2E2mx2a4rpaPB4Pbm5u0Ol0mJiYgEqleixWJrAOblDTlHbt2oXdu3cjPz8faWlpCA0NxbZt21BQUICYmBi4u7uv+99pcXERPT09mJychFarXdPy5m5ubggODkZCQgJiYmJseugxGAyw2WwwmUwIhUJoNBqMjY1Z73bPseRwOIiMjERxcTEOHTqEpKSkh04l02g0aG1txY0bN9Da2nrPMq+uSiKRQCaTITg4GIGBgfedZ48zjUaD0dFRtLS0oLW11XrzqmRlZWHnzp0r3lMJgiA2k9FoxI0bN1BXV4fW1tY1FQdWKBQ4fPgwDh06hLS0NPj5+W3IIByHw4FMJgOfz4dIJKKzj7RarfWuNpPJZJDL5fD29l634BThWthsNsRiMaRSKby8vBAcHIzo6Gh6QZrU1FRkZmYiPz8fu3fvxq5du5CVlYWoqKiHtjMdZWhoCJcvX8bQ0BCdvb9abm5uCA8PR3R0NCIjIzfk2n2Q2dlZDAwMoKWlBXfv3rXevCIGg4E9e/Y4NHOPsN+mBnU0Gg1KS0vxxz/+0SEPBGdAZUH4+PggMzMTFosF9fX1KC0txaeffgqlUgkPDw9wOBx6Coter4fBYIBWq4VKpYJKpcLCwgLMZrPNNU8cgc1m04EKrVaLubm5B3bctzIul4vU1FQUFxfj2LFjOHz4MAoKCpCVlYXo6Gh66U9vb+91D+hgKYNFrVZDrVZjaGhoTUE2KsAQHx+P6Ohom+snsdls+Pr6IiQkhH4gPCrQFBISgpKSEuzbtw87duyAVCq13oU2Pz+P69evo6mpCT09PVsiW4fL5UIoFCIsLAxBQUE2H++tjAR1CIJ4XBgMBlRUVODChQt0R9AeDAYDycnJ+OpXv4ri4uJHPlPXA5PJhEKhQHR0NMRiMYaGhjA/P7/m5zU1YBQWFvbIjAzi8cJkMunByNTUVOTk5CAzMxMZGRnIzMzEjh07sGfPHmzfvh2JiYnw8/Nb9yx6kKAOQII6Tmf9e6MPsbCwgLt372J0dPShnUFXpNPp0NXVhY6ODszNzWF2dhYdHR3o6OhAT08PKioq8MYbb+Df/u3f8Itf/AJvvvkm3nvvPfz2t7/Fz372M3z3u9/Fv/7rv6KsrAz9/f021y1xpJiYGBw5cgTFxcWIjIzckJukM4iKisLLL7+ML3/5yzh69ChSUlLg7e0NmUwGf39/xMfHIyIiAmKx2Ppb1w2Xy4WXlxc8PT0dEkRiMBhrChbyeDwEBwfj6NGj+Nu//Vvs3bv3gatYBQcHY+fOnThw4ADS09NXzArS6/WYmprC9PT0pp77jkQFLbq7uzE1NWV3Q54gNpstjVbi/7NYLPRxI8dvdZYfs63EbDajt7cXra2tUKlU1ptXRSAQIDc3F3v27EFYWJhD2gP24HA4CAwMRH5+Pp5//nlkZGSs+W/W19eHK1euoLe313oTQYDJZEIgEMDT0xOBgYEICwtDREQEQkJC4OnpCaFQCA6Hs6a2ra3Wes4T/8P6vm/9/8TKNi1TZ2JiAg0NDbh27Ro6Ozu31B/OZDKBw+EgLS0NKpUKly9fRmdnJ0ZGRujVvm7fvo3Ozk7cvXsXnZ2duHbtGqqqqlBVVYVbt24BS9N/QkJCVuwIrxcej4eAgACYzWaoVCrMz89v+SJ2AoEABw8exJe+9CXs2rULQUFB9xx/qsbNRmdb6HQ6jI+Po6enB62trWsKDLi5uSEwMBAxMTGIjIy0+3ehGnURERFgMBhYXFyEVqvFwsICmEwmQkJCkJ+fj+LiYhQWFkKhUFi/xX3GxsZQXV2N27dvb5nAjsVigUqlQlhYGMLCwuDu7g4+n2+922OJZOpsPovFArPZDJPJBKPRSNeAMxgMdIagSqXCzMwMVCoVtFotvZ2qFWc0GmEymWA2m2FZKiC/kQ3rzUQdv+XHTavVQq1WY2ZmBkqlks7AnZ2dxdzcHDQaDZ3VQB17k8m0pY8ddYyWn2PL/3txcRHz8/NQKpX0uTY/P4+FhQUYDIZ7zlM4YGBiM+h0Ovz5z39GQ0OD9aZVk0gkOHToEPbu3YvQ0FC7n9+OwGAw4OHhAX9/f0xNTaGxsXFN2TpmsxnT09NISUlBQkICBAKB0/6Nre+b1L/Lz+vlL+oa38x7pMVioT/Haj7z8s+9WZ/5YZhMJthsNl0IfDMMDw+vKVMnIiKCbodv1u+w0Zk61Dm4/LzT6XSYmZnB1NQU/ayknpdUm4PBYMBisdDnJHWsnemcdAYMiy1noQO1trbi3XffRUVFBVpaWrZUtg4A+Pj44NChQxCJRGhra0NXV9d9FwyXy4VAIACLxaIbNcalFX88PDxw+PBhfOc730FUVNQ937fRxsbGcOPGDZw+fRoVFRXo6+tb0/QfZ8RgMJCQkIDCwkLs2bMHubm5Ni2huN5mZmZw7do1fPbZZ3j//fftHuUDgMDAQOTl5eHw4cPYv3//mjOOTCYTurq60NXVhcHBQahUKjCZTHh4eCA0NBShoaEICQl55EPLbDZjcXERjY2N+N3vfofLly9jbGxsS51nR48exdNPP43t27fDz8/PevNjaWJiAo2NjXj33Xdx/Phx682r8rWvfQ0//OEPVxU0JO5nNBoxNjaG8fFxTE9PY25ujn4WUdfl4uIi3ZnmcrngcrngcDj06nl8Ph8SiQQKhQK+vr4blv7uDEwmE4aHh9Hf3w+lUgm1Wo2FhQUsLCzQAbDlGEtTtEUiEWQyGb28NJ/Ph1gsRnBwsMMK0DqThYUF9PT00HX6dDod3cE1Go3QarX0IhNUO4jNZoPH40EoFEIsFkMsFkMmkyEoKAgBAQEPLLa/nqiOrb00Gg1ee+01vP/++9abVs3DwwM//vGP8cwzz8DDw2PTMnWWM5vNOHfuHN555x1cuXIFg4OD1rvY5OWXX8YLL7yApKSkFRdkWOvfxF4WiwWDg4OYmpqiawrp9fp7zl8Km82maxBRtWF8fHw2fHDHbDbf85l1Ot1DPzOLxQKbzQabzYZAIICvry+CgoIgk8nu2e9x1tHRge9+97uoqqrCzMyMTf3Y4OBg7N+/H8eOHUNhYaH1ZodZ6fro7e1FTU0N3R+3FYPBwM9//nN84xvfsN70QEajEQMDAxgfH8fU1BTm5+eh0WigVqvpBYaWhyWo+p1ubm4QCoUQCoUQiURwc3ODj48PvLy8Hpu2xmpsWlDn4sWL+MUvfoHr169jcnLSpginKxAKhQgICIBIJIJer4dSqcT4+LhNF31aWhq++93vIi8vD15eXpv68J6dncXFixdx9uxZ1NbWoquri27kuzoOhwOFQoFDhw7h+eefR0JCglMFdLB0/KmgznvvvbemoE5AQAByc3PpoI4j5uNT0XaNRgOj0Ug3xgUCwarSYY1GI8bHx1FXV4ff/e53uHr1KtRqtU3XizNjMplIT09HcXExnnvuOSQkJFjv8lgiQZ2NQ40qU5kkCwsLmJ+fx9TUFAYGBjA0NITR0VHMzMxArVbDYDDAbLWaI5PJpBv7y4M6AoEAHh4e8PX1pYO4AQEBEIvF4Cwtj8zlcsFk/v8llNebXq+HVqulA1O2oOrdPWgEmAo+6HQ6aLVazM/PY3p6ms64HR8fh0qlohuoOp2O7ixRI42MpSWkhUIhZDIZ3NzcIJFI6IZrdHQ0wsPD4ebmBpFIBJFIBC6Xe99ncVZmsxmGpSwv6hhotVr09/fj9u3bGBwcxPT0NHQ6HZ25QJ2TOp2O/jqWOpbUc4RqyCsUCkRFRSEiIgKenp6QSqV0UIzH4913nKj312g0dK3ClVAdC+rcFQqFDsmYnp+fx1//9V/jvffes960aiEhIfjZz36Go0ePWm/aVP39/bh8+TKOHz+O0tJS682rxmAwUFBQgIMHD+KJJ55ARESE9S4PRAUFl4/ir4S6n62UfU0FHqnzWqPRYGBgAD09PRgdHcX09DSdqUxl4VH3Oeo8EolEkEgk8PDwQGBgIIKCgqBQKCCVSiEQCO5ZUdUR90jqM+v1euj1eqjVagwMDKC7uxtjY2NQKpV0wH5hYeGez4yla4/D4YDL5UIkEiEkJASRkZHw9/eHp6cnRCIR/Xmp54Cjmc1m+rpd7d8US9+HpX6YSCRa8fNZLBY6s9JkMq3Y16KCdDU1NXjjjTdw48YNqFSqVd1bKL6+vti+fTt2796NgoICSCQSaNdYW5Z6vggEAvqeyGazrXe7x3oFdSxLGTnUc4B6Jg8PD6OrqwsDAwP0eTg/P0/vY15aJIh6b+r6pIL6EokEUqkUcrkcQUFBCAwMpMtjCAQCesBppb/hVrXhQR2LxYL5+Xl88skn+PnPf46Ojo77RrK2AiaTeU8Dg3oY2MLX1xfFxcU4fPgwDh48uOLFuZ5MJhNmZmbQ0dGBTz75BBUVFbhz586ab0LOIDAwENu3b8cTTzyBffv2OV1ABw4O6vj5+SErK4s+r1YaCVsty1I68vKOy6MepMsZDAYMDAzgwoUL+K//+i96CuJWQR2PhIQE/Mu//Av2799vvctjiQR1Ng41fXZgYABXr15Fc3MzxsfH6cwcqvOt1+vpzjaW7v3Lr2vqtfz6pjoAVAeYKg4eHR2N9PR0JCcnIyoqClKpdEOeY93d3bh58yZGRkYwPz9PB6QexWg0gslkIjQ0FHFxcQgMDLzv3jg6OoqbN2+isbERV69excTEBBgMBhYWFqBWq+lAktFqOpo1qrFKdYioABI1Ki6TyeDr64u4uDgUFhY65UDDw6jVagwPD+PWrVu4fPkyent76QCiRqO5p/FuWQqeUB0AqkFPHTPqPGOxWPd0MsViMb3ykqenJ3bt2oWcnBxER0ffl+U0Pz+PgYEBVFZW4tKlS1Cr1XS77GHPJ6oj7O/vj7S0NGzfvh1ZWVnWu9lscnISf/u3f4s//elP1ptWxGQyIZFIkJmZiW9961vYvXv3fQGszWSxWDA8PIz//M//xK9+9SssLCxY77JqPj4+2LlzJ/7u7/4O27Zts978QDdv3kRTUxOUSiXdLn3Y35c6vwQCARQKBdLS0hAbG2u9G02v12NiYgJ9fX2oq6tDZWUlJiYm6MGs5fdMo9F43zW//HrncDgQCAT01DKJRIL09HRkZmYiMTHRYYspGAwGjI2NoaurC1euXEFVVRWmpqZs+szLrz8qW47BYEAul2Pnzp3IyclBeHg4vL29wXFwtoRlaVW1S5cuoaqqCjqdbsVnB/X3pgYEd+zYgcLCQnh7ez8yq0+r1eLcuXP4/e9/j8nJyRWz16njMjMzg76+PqhUqgcew0fh8Xjw8PCAp6cn5HI52Gy2TUGhB9HpdBAKhcjOzkZubi7S09Ph5eVlvds91iuoQw3UdnR0oL6+Hp2dnRgdHaWnU1FBUGoK1vI2x/L7P5baF9TzkXpxuVzweDxIJBJ4enoiLCwMubm5SEhIgJ+fn8s8Lx1tw4M6Wq0Wg4OD+PDDD/Gf//mfj92qSrbg8Xjw9/fHl770JXz729/e8FTNB9Hr9aioqMDZs2dRUVGBzs5O611cTkxMDJ588kk88cQTyMvLs97sFObm5tDS0oJPPvkEv//97zE/P2+9y6r5+PggLS0NR44cwaFDh+Dp6fnQxs9G0Wq1aGxsRGlpKf7whz9geHjYeheXxVgaoQcAPp+P3/zmN3jxxRetd3sskaDO+jKbzZifn8fY2Bj6+/sxPDyM7u5u1NTUoLGxERqNxvpbHEoulyMnJwepqamIj49HYGAgfHx84OnpCbFYvGKgxV51dXU4ffo0bt++jfHxcVgslhU7wHq9HiwWC9u2bUNJSQnS09Ph4+MDo9GIiYkJDA8Po7OzEw0NDaivr8fVq1et38Kh+Hw+4uPjUVJSguzsbLrzRI2Qr9exs4fBYIBKpcLExAQGBwfR1dWFhoYGepWn9Zafn4+CggKkpaUhKioKfn5+9DSRmZkZtLS04A9/+APeffddmzpeMpkMJSUl+PznP48nn3zSerPNhoeH8c1vfhMnTpyw3rQiFosFX19f5OTk4LXXXsOOHTsc3pF2hLfeegv/8R//ge7ubiwuLlpvvg+VGcfj8cBcKoTr4eFBr+6VnZ1t/S0PRK0wS3WysRQIexCz2UwHVEJDQ3H06FGUlJRY74aFhQVMTU1haGgId+/eRUdHByorK1FXV2e965rExsYiJycHSUlJdI0VHx8fCO1Ykluj0WBychL9/f24e/cu2tracOnSpTXVcXqQbdu2YdeuXYiNjUVYWBj8/f2hUChWDIjYYmJiAr/73e/w1ltvYWFhYdV9oNnZWQDAF7/4RXz5y19GWFjYIzPtNBoN/u///b/41re+Zb1pXSxvE66HoqIiHDt2DPv27VtxFTlHBHV+8Ytf4O/+7u+ApeeoUqnE0NAQOjo60NjYiLq6OrS1tUGtVlt/u8OEhIRgx44dSE9PR0REBIKDg+ngzsPuA1vRhhdKVqvV6OnpwfXr13Ht2jXo11BUbaujsmMiIiJQVFTkkOj9WjGZTMjlcri7u2N6epquweDKqCW+qWkDzngDMJlMWFxcpDtky1P6bUWNTkVHRyM6Ohoikciu93EkjUaDqqoq1NTUoKenZ1WNQVckEAhQWFiI+Pj4FUedHgekUPL6mp6exrVr11BWVoaTJ0+irKwMdXV16Ovro6dUrSdqhLu5uRnXrl1DX18f5ufnIRAIIJVKV91It1V7ezuqq6tx8+ZNdHV1YXx8HJOTk5iYmHjoa2RkBJOTk/S9MTIyEgKBAHfu3MH58+fx5z//GSdPnkRDQwP6+/vXPcPYZDJhdnYWra2tuH37NmZmZqDVasFmsyEUCp2iPUAZGBhAfX09zpw5g88++wwVFRV01sRaR59XY2pqCr29veju7sb09DRde4fP58NkMmFoaAhNTU1oaWmx/tZHotoGCQkJiImJsd5ss5mZGZSVlaGtrc1604oYDAZ4PB58fHyQlZWF0NBQp2yrqFQqaDQajI+Pr2phDV9fX0RGRiI5ORnZ2dnIz89Hbm4usrKyEB0dveoR96amJlRXV6OtrQ29vb2YmJh46DU/Pj6OiYkJzM7Owmw2Iz4+HomJife8n8ViQVNTEy5cuIDPPvsM586dQ11dHe7evevwa1+tVtMrf928eZPOuPD19bXpb2w0GtHQ0IDS0lIcP34cZ86cQUNDAwYHBx3+mZVKJZ0R2dXVhfn5efB4PAQGBlrvajeNRoPKykqcP38ec3NzdMbfSi+NRgOdTofk5GRkZWXBw8PjkQFQs9mMmzdvorKykm5bu7KEhAQkJCTQ03gfxRGFkvft20cHX8fGxnD58mV89tln+Oijj1BdXY3h4eF1b28sLCygr68PbW1taG9vx9TUFIRCIT0993Gx4UGd+fl5dHR0oLm5GTdv3qTnThMPFxAQgMzMTMjlcptu8OuBwWDQFwo1d1m7tNKHq/4tqfRSX19fREREPDKiv1kYS+m7SqUSvb29mJqasvt4S6VSBAUFISkpCXFxcU5xw+vv78epU6dQW1u7ZVa9ehAej4ekpCS63tajGhqPAxLUWR9KpRJNTU30iopXrlzBjRs30Nvbi/n5eej1+nVtYFGo54NGo8HU1BSmp6ehVqsxOzsLtVpNBygcfR10dHTg6tWr6Orqwuzs7D21JR72oqYhBAYGIi4uDhKJBLOzs6ioqEBpaSlqa2vR09OD+fl5uoO03sFwg8GAhYUFDA8PY2FhAbOzs5icnMTCwgJdN2GlDKT1otVq6eloVVVVuHz5Murq6tDS0kI34tc7oEMdf4PBgJmZGUwsFWGmOhAeHh4wmUyYnp7GzZs30dzcbP0WjySTyRAYGIiEhIRHTs9Zrfn5eZSXl+P27dvWm1bFZDJBJpNh27ZtiIyM3PT24INol2rbUIVQpVIpfHx84O3tjYCAAISEhNCvlJQUZGZmIiMjAxkZGUhNTUViYiKio6MREhICDw+PR06bWa65uRn19fXo7++na4JZX+PUy7C0Sp1er4dUKkV2djaSk5OBZdOWrl27hoqKCjrLpaOjAzMzMw699qn3MBqN9BTOwcFB6JaKiAuWaklR9cgeZnFxERNLWa9lZWWorKzE1atXMTQ05PD71fJrbm5uDmNjY3ThZYPBQNc/4fF4a/55VFDnypUrwNL5v5oXJTU1FdnZ2SsGdUwmE1paWnDx4kXoXTzRgMPhIDY2FnFxcQgNDV2xZqYjgjp79+5FVlYW7ty5g7KyMly4cAF1dXW4efMmFpatXrieTEsD39PT0/S08oWlxQqoGkjONBCyXjY8qKNSqXDr1i20traiu7t7y3beHEmhUMDf3x9ubm5wd3e33rwpuFwuAgIC4OvrC71eD41Gg+np6XVvxK2HhYUFDA4OQi6XIz4+Hm5ubk6XRcFkMu95uC8uLmJgYMB6t1VRKBRISEhAeno6YmNjN61TgKVO38TEBJqamvDxxx+jpaVlS98T2Gw2vL294e7uDl9f38c+EEGCOo5nMplQW1uLn/70pzh+/DhaWlowMDAAjUaz7g2rlWi1WoyMjKC+vh5tbW1gs9l00UNH3nN7enrQ0tKC0dFRmzNJqSyd0dFRVFVV4eTJk6irq1tTHTNHmJ2dxZ07d1BfX4/h4WHweDzIZLL7ashsBJ1Oh8HBQZw6dQpvvfUWzp49i8bGRoyOjkJn49K+jmQ0GjE5OYkbN25AqVTSKwwZDAa0tbXZPAWFGgBJTEx0SKaOXq/H+fPn7b7XUVkE27dvR3R0NNgrFIDdDFS9FrVaDR6Ph5SUFOTm5mL79u0oKSmhV4E8evQoDhw4gJ07dyIzMxPx8fEIDQ2Fr68v5HI5pFKpTYGBtrY23Lp1iw56roZIJEJAQADy8vLoxQsmJiZw/PhxvPPOO6ioqEBbW5vNRXDXamRkBCMjI/Q0Il9f34cOvul0Oty9exeffvopTpw4gfLycnR0dECr1W7Ydbi4uIjBwUEMDQ1henoaDAbDIbWBNBoNamtrUV9fb71pVdLT07Ft27ZVBXVu3LiBiooKlw/qsFgsOgt/o4I6hYWFCA4OxjvvvIP//u//puv1beQ1s5zJZMLU1BRu3bqFnp4eqFQqutj3VrfhQZ2hoSHU1dWhtbUVw8PDW7oD5yhU0UQ/Pz/4+/tbb94UVJCBSnG2WCyYnJzE7Ozshj1IHMm8VJyRy+XC3d0dPj4+1rvYzGg0YmRkBOPj4zAurQi11o4LVayOCkTZ09EICQnB7t27kZKSsunnk1arRW1tLc6dO4crV66s65xbZ8BkMiGVSuHu7o7o6GinCdJuFhLUcRyj0YihoSFUVVXh1KlTKC0tpVdlsbWI43oxL61ERBVR1C6tVkOtaLHWTgClu7sbzc3NGB4etimow2QyIZPJYLFY0N7ejoaGBty+fXvVncT1sHw037C04MLU1BR0Oh0YS3VBqFXGNoJarUZjYyNOnTqFc+fO4dq1axgbG4NuadWqzTzPLEvF+o1GI9RqNQQCAX3OdXZ2or293abpFVRQx1HTr4xGI86ePbumhQCYTCZiYmLg6+sLd3f3TR2UeRAGg0EXsw4KCkJqaiqdFRwTE0N/dg8PD8hkMkilUrpOFLVyDZvNBovFWnVABwBu376N5uZmjI2NrbpWmFgshr+/P7Zt24bo6Gj09/ejrKwMp06dwpUrVzA5OQmjHSvo2Yv6fS0WC6anpzE/Pw+j0Uhn7FhPpVlYWEBTUxMqKipQVlaGhoYGjI6Obvh1SF1309PTdJvUzc2NLmhur7UGdTIyMlaVqWM0GunjuFWCOjExMRsW1FEoFFCpVDh79ixaWlroTDNq+0azLBXe1y9N/6b6FVR2K1WkfCva0KDOwsICenp66Oi3qwYANppYLIZCoUBYWBjCw8OtN28qPp+P4OBgiMVieo6yPYEGZ0BVsvfz80N6evoj011XY3FxEZcuXcK1a9eg1WrB4XDg7u6+ppsJl8uFt7c3jEvFO+fm5mzqtABAcnIynnvuOcTExDisE2WvsbExvP/++/joo48wOTm5YY2nzUI1eOVyOdLS0h774r4kqOMYZrMZIyMjqK6uxq9//WuUlZU5RWbOSgYHBzE6Ogre0ioW3t7eDumkUkGdoaGhVd8fWUtLp1Jz89vb29Hf3w+tE67wqNfrcffuXczMzMBisThsIGIlarUaHR0dOHHiBP77v/+bXr3UGc8zi8VCL5dLBTxHRkZsyiRar6DOzZs3rTetGpvNpjvLISEhD83g2CxcLhdubm4ICQlBQkICoqKiEBgYSC/fbWuwZrXsCepIpVL4+fkhOTkZ7u7u+PTTT/HHP/4RN2/edIp2rFKphFKphEajgUQiQVRUFN0uNZlMGBgYwIkTJ3D8+HG6T7XZZmZm6Cm+YrEYwcHBdt/TNRoNampq7A7qpKenk6DOOgd1AGB8fBzNzc3o7e2FzsZVnteb2WzG+Pg4lEol5ubmIBQK4efnt+ppna5mbb1WG+n1eszMzKC7uxsjIyNbvgPnKAsLC/T8ZGcrIMtYKt4XFxeH/fv3o7i4GBERES55wej1evT09KC5uRktLS1rbsxTKzp9/PHHePfdd/Huu+/io48+Qn19PW7fvo07d+6gu7vb5gcxm81GfHw8Dhw4gIyMjFWvNsBisRASEoLU1FSEhYWteLNfTxaLBb29vaiurkZzczNGR0dtGkF1VRaLBfPz81AqlVs+K4nYGAaDAT09PTh16hQ+/PBDNDU1YX5+3qmfr8s7dd3d3Thz5gzKy8sxMDCw6g73ejCZTFCpVBgZGYFSqXTKgAV17EwmE27duoWzZ8+iuroaQ0ND65r5rNVqcePGDbz//vsoKyujO73Oep4tLi6ir68PTU1NdIFbs9lsdwfTEaig/lrodDo0NjbSxaid7TnCYDDoGhZCofCeDJz1CujYi8qcbm1txSeffIKKigq0trZCqVRa77qhlh+jwcFB1NbWoqamBu3t7fT1dvfuXVy8eBH19fXo6upyqvOgt7eXXiWst7fX5QMlxKNNTEzQ05yckcViQXd3Ny5duoRLly6hqalpVUXcXdGGBnWowlpUITBnayw5q8XFRYyPj2N8fByzS9X6nY2Hhwf27t2Lp556Cnl5eQgJCXGqh/dqmUwmtLW1oby83O6oNUWtVqOtrQ11dXX48MMP8d///d/49a9/jXfeeQdnzpxBRUUFKisr7UrvDwgIwP79+7Fr1y6EhoauarTO398fe/fuRX5+/qbUYVhuZmYG9fX1OH36NHp6eqw3b1kWiwU6nQ5qtZouLEgQ9qJGa2tra/HHP/4Rn376qdM2rJZb/uw3mUz0ii1NTU0YHR3dlGecyWSi64GsZ3BkrZYfO7VajZqaGly4cAH19fUYHR29Z19HWVhYQFdXF8rKyvDWW2+hvb3dehenYzabsbCwgN7eXly9ehXd3d2b3u5kMBhwc3ODRCKx3rRqBoMBfX19uHTpEioqKtDY2LjqzBTifouLi6iursYf/vAHXL16FfPz89a7bLjl56jZbEZvby/q6+tRXV2N7u5uaDQaXL9+HZ9++ina29ud7n5lMBjQ3t6O2tpaXLt2DUNDQ9a7EMSG0uv1aG9vx+XLlx3Sv3NWGzr9SqVS0dWxyUNo9fR6PXQ6HYKCguhVOR6VSrgZmEwmBAIBJBIJPDw8wGazMTc3B7Va7XIZGBqNBjMzM+DxeHBzc4Obm5vNo3smkwk9PT04ffo0+vr6gKXGw9zcHCYnJzE4OIiOjg60tbWhr68PIyMjYLPZUCgUq/pZDAYDIpEIbDYbPB4P8/PzGBkZeWiDVSQSYdu2bXjmmWeQkZEBmUxmvcuG6erqQmVlJV1HZ2xszOkaJeuFwWCAwWDA3d0diYmJdBroWqf6uSoy/WptxsfH8fHHH+PPf/4zmpubXW5EdHngX7+0IpdQKFxzkU17pl+5Mp1OB4PBAIVCgcDAwDXXblvOtLQyzB//+EeUlpZicHCQ3uYKAzdmsxn6pRWPLEu1Px72nLTm6OlXJpMJd+/epVcLsnWqwvLjvbCwQLcnpqenYTQa6XoRjyN7pl8xGAxotVpMTEzQRdVXe25sFmqFrIqKCtTU1GBqasppP7NKpYJSqYRcLkdMTMyq2rbLbeT0q4aGBpw9e3ZTBhQcyWw2Izw8HDExMQgLC7uvDpM1R0y/ciUqlQrz8/NQKBQICAiAUCjcUu3vDf1NFhYWoNfrt9QB3AhmsxkTExMYGRnBzMyMUzfcfX19sXfvXhw6dAg7duxAWFiY9S5OT6lUora2lp4S0N/fb73LI1H1LXp6eu6bwqVUKtHR0YHa2lpcunQJFy5cwPvvv4/f/OY3KC8vp7PYVisxMRFPP/00tm/fDl9f3wc25iUSCeLi4rBt2zbk5ubC19fXepcNQdUBqq+vx0cffYSLFy865Rzc9WSxWLC4uAiVSkUXFXxcAlqE41gsFqjVanR1deGzzz5DZWWlU6Xfr9byzsjMzAzKyspQXV3t1B0VZzQwMICLFy+isbERQ0ND9z137KXX6zEyMoIrV67gvffeuy/w6kp/I/NSweTNvN+yWCxERUUhLS3NriL51hluLS0t+POf/4y3336bXj1yed0gV/r7bAZq5sDY2BjUarXNHXpqkGb5a72oVCo0NDTg5MmT+OCDD1BVVWXzgBj1GZlMJphM5rp/5pmZGZw/fx51dXWYmpqy3uw0GAwGOBwOPTDEYrFW9aKOob2ov4X1+9r7wlKdUz6fDzabTfraD6DRaHDt2jXU1dWhubl506daOtqGZup0dHSgq6sLdXV1q46kE/8jOjoaGRkZ8PLycurRGGplLDc3N3rqmDOktNpKqVRiZmYGAoEAMpnsniLHFovlkTfzmpoalJaWoqWlZcXpENRKHTqdDlqtFn5+fpDL5da7PRCbzYZIJKIfzqOjo/TPYzKZ4HK5iImJweHDh1FUVITw8PBNudHfvXsXTU1NdOpjfX09xsbGHstGp8VigUAgQHJyMsLCwiCTyR45irSVkUwd+xiNRrS2tuLSpUuoqqraEg0Ts9kMtVoNhUKBqKgouLu72/2ce9wydSwWC7RaLdzd3ellzh1RM02lUtEr67S0tNCd3kc9+7YSR2fqYFkZghs3bmB6ehqw43gu31+v12N+fh4TExO4e/cuBgYGMD09TRdKX2mkfquwJ1NnrSQSCeRyOTw9Pel22KMGqWz9Oy9HTSecnZ3F+Pg4nZ1lCw6Hg6CgIHh7e0Mmk0EoFMKyNCX8YdbymSl+fn4IDg6mf+ZqbVSmDoPBoFcb8/X1RXJyMmJjY+mCw9avuLg4JCQkwNPTE4uLi3SWqS2EQiECAgIQGxuLtLQ0uqi49c9azYv6rMHBwYiJiUF6ejri4uLg7++/4vF+3DJ1KFSAPygoaNNXAXakDQ3qXLlyBd3d3bhx44bTFfx1BeHh4YiLi4O3t/ea5mRvBJFIBB8fHxiNRszOztKpwrbe+DaTVqvF8PAwGMtWLKJG1x70oDOZTHTtgdOnT6O8vBwjIyOrqptiNBoxPT2NmZkZBAQEIDIy8oFZNw/C4XAglUohlUoxMDCAO3fuAEsBH19fX+Tk5ODZZ59FSkoKOBzOAz+7LR71N7QsLSVoMBjoV3d3N65cuYKqqipcunQJjY2NGB0dfeT7bHVcLhepqakIDw+Hp6fnIxscWxkJ6thHqVTi4sWLKCsrQ29vr801uaxRo4UcDgdcLhc8Ho9+CQQCCAQC8Pl8+l8ul0u/qCWIqWDxWq9roVAIhUIBDw8P+Pj42HW/2sigDoPBoI/d8uNHHa/lx486psuPG2upeOxaj5vJZKL/jkFBQQgMDLTexWadnZ04ceIE6urqHFZ8m8lkgs1m08eKGlmmXg86Zg86zzbCegR1WCwWFhYW0NzcbHMW8MPodDpMTk6ivb0dg4ODmJ2dxdzcHN3O5vP5MBqND22L2HONOZv1DOqwWCxwuVwIhUL6nhgYGIjo6GhER0cjLCwMPj4+9LR2k8lE3yep83Wt1w6Vaba4uAiNRrNiQIf6zAKBABwOB0KhEHFxcUhLS0NERAQCAwPh7e0NqVQKy9K0ROp6o7I+1vqZKTKZjF7d0JZV+jYqqMNkMmE2myESiRATE4OUlBTExcU99JWQkIDk5GSIRCIMDQ1BpVI99Np6GKlUiujoaGRnZ2PXrl1ITU1FdHT0fT/LlldUVBRiY2MRFxeHoKAgeHh4gLtCYfaNDOpYtzMedM9/0Gv5M4A6N9f6vFSpVFhYWEBMTAzCw8NXPE6ugmFZ65GxwU9/+lO0t7fj5MmTK2YvEPfLzs7GU089hX379iE5Odl6s1MaHBxES0sLzp8/j8uXL6O3t9flpgm4u7sjOTkZR44cQUFBAeLj4+9rBFksFgwNDeHUqVM4deoU7ty5g4mJCSwsLNj0YHR3d8euXbuwZ88eHDhwAAEBAda7PNTY2BhOnz6NU6dOoaysDAaDAU8++SQOHTqE/fv3O2z5bJPJBJPJdM/vxWAw6EbH1NQUurq60NbWhtbWVgwPD2N2dpYOWpECwYCnpydefvllPPHEE0hJSVn1CmZbzcTEBBobG/Huu+/i+PHj1ptX5Wtf+xp++MMfOuz8dnbz8/Po6OjAb3/7W3z88cf0sta2sA4iiMVi+Pj4ICAgAD4+PlAoFHBzc4NYLKaXT+bz+WAymVhcXMT8/DzUajXm5+fpuh79/f3o7++/p1iv9c9ZDep++9xzz+G5556zawCjtLQUb7/9Nurr6++pAeMI1r8Ti8WCj48PgoODIZfL4eHhAX9/f/j4+EAqlUIgEIDJZMJgMECj0UCj0UCtVmN6ehpjY2MYHR3FyMgIhoaG1hycY7PZiI2NxTe/+U0cOXIEYrH4vmfVahiNRnR3d+PChQv4/e9/j5aWFpv/jg8jFosRFRUFhUIBuVyOkJAQ+Pj40I12qhOKpSwUjUYDpVKJ8fFxjI6OYnh4GP39/RgZGVmxY7tWAQEByMvLw+c+9zk89dRT1pttZlmaEtXd3Y0//OEPKC0tRVdXl0ODEDweD3K5HDKZDDKZDFKpFB4eHvDz80NYWBji4+MREhJCZ8JRQUlXd+LECbz99ttoamrCxMSE9WabWF/jPj4+SE5ORn5+PgICAiAQCOj6RXw+HywWC6alQuvUNa7X6zE4OIjr16/j5s2bdG3FB72/I1i/p5+fH+KWgjhBQUGQy+WQy+WQSCRgsViwWCwwGAzQarVQq9V0eYzx8XHcuXMHjY2NaG5ufuj728LPzw/p6en4whe+gL1790Iqla7qvjQxMYGf/vSn+Pd//3frTavyla98BV//+tcRHh4OwQpZn2q1GkqlEmazecUBVfbS6m7V1dX4z//8TzQ0NGBubs6mtr6fnx927NiB4uJiFBQUQCKRrHnaLDUVb/n5udK13dvbi5qaGrz77ruoqKiw3rwm1ueMp6cnFAoF3dYICAigZyY86HMylqanzc3NYWRkBCMjIxgcHMSdO3fQ19f3yAyz1ZDL5fjyl7+Mo0ePIjY2dksMDG5ops7x48cxMjKCvr4+p64L46z4fD7EYjEiIiJcplaNm5sbAgICwOFwoNPpMDo66jJLyVEPHSpjx2Qy0cWMZTIZDAYDjEYjvcJGfX093n//fVRUVNC1j2x9CFJF+1QqFYKCghAcHLziA4YiFoshkUjA5XLpWjUJCQmIi4tDZGTkig+1RzGZTFCr1RgfH0d/fz/6+vrQ39+PwcFBDA0NYXh4GAMDA+jt7cWtW7dQU1ODsrIynDp1Cj09PRgeHoZSqcTi4qJND76tSiAQIC4uDmFhYfD3919TUVhXRjJ1bNfb24va2lqUl5eju7vberNNeDwefHx8EBcXh9TUVGRnZ2Pbtm3Izs5GdnY2MjMzsW3bNmRlZSEhIQHx8fFISUmh070jIiIQGhoKPz8/uLu7g8Vi0RkCtt77KFqtFpOTkwgODkZ6erpd04jWO1OHwWBAKBTC09MToaGhSElJQU5ODtLT05Geno7t27dj586dyM7ORnx8POLi4pCYmIjk5GTExMQgMjKSDmZQHS0sdSzW0jYym82YmZlBZGQkgoOD7V5UYWZmhp4q29DQsObOBpvNBpfLhVQqRUpKCnbs2IH09HRkZGSgoKAAO3bsQEZGBjIzM5GYmEiPPFPHLDw8HIGBgfDx8YGHhwd4PB6YTCYsFguMRqNNdUVs4ehMHcbSNGkOhwOz2QydToe7d+86dKDLZDJhfn6eXpChu7sbt27dQnd3N6ampuhO/PJBFp1OB8bSwAx1LDcyI8oR1iNTh8ViISAgAJmZmdizZw+OHTuGgoICJCQk0Bk6VFZcUFAQwsLCEB0djcTERKSkpCAwMBBcLhdGoxFKpdKhf+eH4XA4CA4ORmZmJgoLC3HgwAEUFxfTmcEBAQHw9/eHv78//ZljYmLozxwWFgYPDw8YDIZ7pvOvBRUwCgsLQ2RkJIRC4QM78dY2KlMHS9nTbm5udCD0US+xWAw+nw+NRoO6ujq6jpktzzyZTIa4uDhkZGQgKysLQqHwvp9j64sK5IpEonuyxB5lIzJ1+Hw+AgMDkZSUhNTUVGRkZCA3Nxfbt29HQUEB0tPTER8f/8AX1TYJDAykA0AcDoeeEWDrcV/OZDLRgwt+fn52DSA5mw0N6rzzzjuYmppa9ZQU4l4sFgtCoZDuqLsKKhDi5uaGlpYWh6UcbySz2YyxsTFMT0+DzWZDr9dDq9VidHQUzc3NOHnyJN5//33cunVrzef24uIiFhYWwF2a3kCNYmIVtXzc3NwgEokwPz+P+fl53L17FxqNBgkJCfD29rbefdVmZmZQW1uLiooKnDlzhn6Vl5fj4sWLuHDhAi5cuIDKykrU1taipaXF5qLPjxOBQECnfQYFBYHP51vv8lggQR3bVVVV4YMPPsDt27fXnNmxa9cuHDt2DHv37kVBQQEyMzMRExMDf39/yOVySJcyTaxRUxHc3Nzg5eWFoKAgxMbGIjAwEEKhEFqtFmNjY/T+j7pnPYjBYEB8fDyys7Ph5ua2qsbpcusd1OHz+di5cyf27NmDvXv3oqSkBHl5eUhISEBISAi8vb0fmCXDZDLB4/EgEokgl8vh7++PiIgIREVFwdfXF0KhkO5ow47jhqWfQTXsAwICILUjKNbX14e//OUvuHjxIpRKpc2NZuvPrVAokJmZiaNHj9L13ahgjY+PD8Ri8UMHL5hLK2u6u7vTU16ioqIQGhoKkUgEg8GAmZkZOhhh/bPXQurgoA6FxWJBJBJhYWEBVVVVa/p7r5ZWq8XMzAx6enrQ0NCAS5cu4fr16xgYGKBrtCiVSszPz9Ofbz0/j6M5Iqiz/PdlMplITEzEnj178PnPfx47d+6Ej4/PqoIRFLFYjKCgIPj6+kIgEGBhYWFN98UHWf4eHA4HOTk5OHjwII4cOYL8/HwEBQXZ9GwUiUTw9vamBy+1Wu09S5Lb85ktFgv0ej0SExORkJAAqVS6YpAFGxzUscfQ0BAqKysxMDBAFydfLTc3N4SHh9ODI7Y+4xxlvYM6PB4POTk52LdvH5588kkUFhYiPT0dkZGR8Pb2XvV9RigUwsvLCyEhIQgODoafnx/0ej2mp6eh1+vtGiymnpXu7u4ICQmBXC7ftL+Do2xoUOfNN9/E7OwsJicn1z1tdisyGAxgsVhIT09HWlqa9WanxWAwIFgqNkxldmi1Wpc5B6gbjl6vx9TUFF0naHR0FJ2dnbh27RouX76Mmzdv0gGd1dykHkWj0UCn09GRZIVCATabveL7MplMOr1Wr9fj1q1bmJychLu7O4RCIWQy2UMbzw9iNBoxMzODxsZGnD17FpcvX0ZDQwNaWlowPDyMkZERDA8P09k6IyMjdKYRFdBZ6TM/jng8HsLDwxEaGorg4OAVi9ltVSSoYxudTofTp0/j448/XtNqIiKRCImJiThy5Aj27duHlJQUREZGQi6X01Otls9ft8ZYVkeGyiClauCIxWLodDqMjIysqUA+VfTR1uKaWMegDtUIzMrKwsGDB7Fr1y5kZGQgLi4OCoUCEomEHiV92H2PwWCAzWaDx+PRx83Pzw8eHh6QSCRQqVQYHR21OzuGapTy+XwkJibCy8vLepeHMplM9JTIkydPoq2tzaaOijWhUIiwsDBkZWWhqKgIe/fuRWZmJvz9/enpfZxV1HljsVh0MIwK7nh5eUEqlYLH40Gn00GlUq0py+lB1iuow2QyIZVKodfrcefOHQwODq57e8iyVEx7ZmYGExMTGBsbQ09PD70S4/j4OIaGhjA0NASlUgmVSgW1Wo3FxUW6vcZcqonhjBwR1KEwGAyEhYVhz5492L9/P3bs2AEPDw+bf3cqOObr60sHIO1daWslLBYL0dHROHToEPbu3YusrCx4eXnZXCuEwWCAz+fDy8sLMpkMOp0OQ0NDmJ+fX9O9wGAwICEhAbGxsXS23UqcPagzODiIyspKDA0N2RXUCQsLQ1RUFMLDw20+txxlvYI6DAYDbm5uSEtLw/79+1FUVISsrCyEhobC3d19xeekNeqZKZVK6ecldU9TKpV2DXBRP1sgECA2NhZeXl6rOi+d2YYGdX7zm99gfn7+nlEVYvXMS9Xvc3NzkZuba73Z6bHZbPj7+yMgIICeG+9qTCYTpqam0NHRgRs3bqChoQFtbW0YGxtzeKNscnISSqUSDAYDPB4Pfn5+qwrIsNlsBAYGQiaToaenh06/XlhYQEpKik0jtxMTE6ioqMBnn32GsrIydHZ2QqPROLxB8rjhcrl0ynZoaOiWSPu0BwnqrN7i4iK6u7tRVlaGmpoa682rxmQy8fTTT+P111/Hrl27EBISArFY7JARKj6fT2ecmEwmaDQaTE5OWu+2KlQqvJeXl81ZhusV1PHw8MDzzz+PL3zhC9i5cyciIiJWPer8KEwmE+7u7vD29qaz9qjVWGxlsVig0WjA5/ORl5dnU8Fkg8GAa9eu4cKFC2hoaMDs7Kz1Lo+0vIHO5/ORkZGBAwcO4LnnnsOOHTvg5+e36pHZR2EymRAKhQgJCUF4eDjEYjEsFgtGRkbowM5afwbWMaiDpc/H4/HogZbOzs51yTZaiVqtpgM8ra2tuHHjBpqamuh/29raMDIyQp9Tq506s9EcFdRhsViIiIjArl278NxzzyEvL2/NmbQcDgdeXl7w8PCASCSCRqNxaPuXzWYjOTkZe/bswZEjR5CWlrbmzimbzYZcLoebmxskEgnm5+cxMjJivduqMZlMREZGIjQ0lM5kXImzB3WGhoZQVVVld1CHytSJjIzctGtqvYI6Hh4eOHbsGJ577jkUFxcjOjoaQqHQIfc25tIKy9R0LOoeBRvvnRaLBSqVCkajERkZGTZntTmjtbfibLC4uAiDwWDTiU/ci6p8v9YpPpuBw+EgPj4excXFKCwsRGJios2jCJuJsVT0a3Z2lq4NRaUuU6tM2HJDeRjqPcxmM7q6unDhwgVUVFSgu7t71cEULpeLxMREFBcXIzExkX74XLp0CX19fSsGVS0WCyYmJtDQ0ICysjJUVVXRtbAcHbx6HFksFpe+lomNNzY2hsbGRvT29tr9DJVIJMjOzkZJSQmKiooQGhoK/lIBZEcRCARISkpCYWEhkpKS7G4kTUxMoLW1FePj49abNhyfz0dwcDB2795Nj9wHBQXdU9R3rRgMBhQKBbZt24bi4mIkJCQ8cOrbSqh7y/DwMCYnJ206V0wmE1paWlBTU2NXMI76WTweD/Hx8SgpKcG+ffuQnZ1NZys44hmJpWecSCRCdHQ0du/ejT179iA5OZnO6rLl994scrkc+fn52LdvH3Jzc+mO7kZ+dq1WSy+TPTIygoGBATQ3N9M1lc6dO4ezZ8/i1KlT+PTTT/HJJ5/gzJkzqK2tRWdnJ0ZGRjAzM4OFhYUt0TYQiUTIzMzE7t27kZSUtObgCPW3FAqFSElJwb59+5CWlmbXtf0wcrmcXkUpJiZmVYN/q8Hj8ZCYmEhn2K118GlychJ9fX0ODbQTzsfX1xc7d+7Evn37sGvXLoSFhTm8ncHn8xEaGopt27YhMzOTnjplz71zYmICk5OTdj3znI3jjvAqUIVl7TnoxP9YXFy0eQTNmfj6+uLw4cM4evQovUQ4HBQQWU+rOW9Xs89Klr+H2WxGQ0MDSktLUV1dje7u7hUDMhShUIijR4/ixRdfRGxsLIaHh/HWW2/hs88+W/GhqlkqAHfq1ClcvHgRPT091rsQa2CxWKDT6aDT6bZEQ5hYf8PDw7hy5cqaVnPKysrCyy+/jJycHLuDLashk8mQmZmJlJQUuwuBK5VKdHV1QalUWm/aUAwGA/7+/nj++efx+uuvIyMjw6ZsR1sFBQUhPz8f+fn5SEhIsLsjNT8/j6GhIZtqGBqNRrS2tqKxsdHubAcul4ukpCTs3bsXR48eRU5OzroP3sTExGDv3r04ePAgsrKyHNphXk9MJhO+vr7Iy8vDSy+9hD179tyzfTPbRDqdDtPT0+jq6kJ1dTWOHz+On/zkJ/jOd76Db33rW/iXf/kXfPDBB7h48SKamprQ29uL6elpl3+eKRQK7Nq1C7t3715VNslKlv8NhUIhMjIy7imivBYMBgMikQihoaHIzc1FRkaGXffaRxEKhXRx27i4OLvvfRaLBaOjo7hz545L91+IR+Pz+XjiiSfw6quvIjc316bpv/ZQKBQoKSnB4cOH4evra715VRgMBiYnJ9Hb22u9yeVsaFBHp9ORTB0HoObc29vo2mwikQgJCQnYsWMHtm/fTi9FTM6Ley1vDHR1ddHTLlbbyWEtLbWbmZmJoqIi+Pn5oaGhgV7RZHp62vpbgKV0zOvXr9MZOmstkkfcz7JUOFCr1ZJ7IrEqQqEQCoXCro4Ag8GAj48PPVUtJCTEeheH4nA48Pf3R1RUFKKjoyGXy613WRG1jOlKAej1xGQyERwcjKysLHqFJnt+F1uwWCz4+/sjLi4OsbGxdncsqRpwk5OTqw7qDA8Pr7mQq7+/P/Lz87Fr1y6Eh4dbb3ao5ffN4OBgbN++HTt27EBoaChYLJZdn38zBAQEYPv27XjiiSdw4MABuiO0mc8Fy9LKYjqdDmq1mq7FMzAwgI6ODtTV1aG8vBwnT57Ehx9+iE8++QSlpaWorKxEa2srJiYmVn3eOQMGg4GgoCBkZWUhPj5+3YqmstlsxMbGIi8vDwEBAdabbcJkMuHn54f4+HhERkbCy8trXabxcDgcREVFIT093e6OM5YCzVNTU3RmO7G1iEQipKenY+fOndi2bRt8fHysd3E4kUiE5OTkNQWQTCYTxsfHSVDHVmTqhmNMT0+jv7/frvn2zkK4tIrXs88+i/3799vdcN3KljfoNBoNKioqUFpaiq6uLpuKgvn5+eHw4cPYuXMntFotrl+/jjNnzqClpeW+RiNVU+HkyZM4d+4cOjo67tnHen/CPtRytlRQx2w2k2NLPFJISAiKiooQFRVlvWlFfn5+yMnJQWZmJiIiIhw2ZehRqBpq9q68Z7FYoFQqN7UDwGKxkJqaipKSEsTGxm5YBgiLxUJgYCCioqLsztSxLNULmJmZWbHdZbFYMDw8jLa2tnsGi2y5J1GDCImJiSgoKEBGRobDpoE8zPKgDYPBQFJSEnbu3Im0tDQEBQWt+893FCaTiZCQEOzbtw/f+MY3sH//futdnM7c3BwaGxtx6tQp/OEPf8Bvf/tb/P73v8dbb72FEydOoL6+HiMjI6vOLN5sTCaTvtbXGmxZSVhYGPbt24fo6GjrTTZhsVgICwtDcnKy3R3a1fLz88O2bdvg7+9vvWnV9Ho9FhcXXeacIFaPtbSIz4EDB5Ceng4PDw/rXdaFxWJBQEAAYmJi7L4GSFDHTmT6lWNMTk7i7t27mzqC6Qienp7IycnB7t27kZmZCZlMZr0LscRisWB+fh7Xrl3Dm2++ibKyslUHdiQSCeLj47Fjxw4UFxdDLBajvLwcp06dwtWrV+n30Wg0uH79OkpLS3HhwgUMDAzQ7+EqI56uwmKxYGFhAWq1mmTqEKsikUgQHR2No0eP4tVXX8WePXuQmJi4qnT7oKAgFBUVIT4+fkOvZalUSq+IZY+FhYVNHe2nphJt3759TSPUtmKxWAgKCkJ0dDTc3NysN6+K2WyGRqOBWq1eVSdqfHwcPT09dg8WMZlMOgOBWrVsPTIdHobJZEIsFiMiIgK5ublISEhwmaAOxcvLC2lpaXjqqafwyiuvoKioCKmpqfD19d2QQKwtzGYz9Ho9dDodFhcXMTg4iNbWVtTX16OsrAwffPABfv/73+O9995DVVUV+vv7V91m2QwCgQB+fn4ICwuzO5C6WjKZDGFhYfDx8VnzOern54eIiAi77xOr5ePjg4SEBHh6elpvWrWFhQXMzs46fJU6YvN5eXkhJSWFrp+2URgMBjgcDjw9PREeHo7g4GCbs5mNRiOmpqbWNLXdWWzcE3cpGrbaQq/Ew01PT2+JYmNUrYLc3Fzs3bsXqampNl+Mj5uBgQG89dZbOH78OEZHR603P5REIkFOTg5effVVpKeno6OjA2fPnsVnn32Grq4uWCwW3Lx5E6dPn0ZpaSlaW1vv6QiQoINjUSvZaTSaVXW4CILD4cDHxwef+9zn8POf/xzf/va3ceDAAQQFBVnvep/Q0FAUFBSs+7Qra1wuF1Kp1O7VYza7zaBQKBAXF4fw8PA1d75sQU2XCw0NtXuww7K03KtWq13xGFqWCuP39fVBrVZbb14VHo+HlJQUbN++3a7MLEeRy+XIzc1Famqq3efdZnJ3d8eePXvwox/9CN/61rfw1FNPIT093e7aVBtpbm4O/f39aGhowIkTJ/Czn/0MP/vZz/Dmm2/i8uXLuHv3rt1Bw/UmkUjg4eEBmUy27gE06r4ol8vh4eFhd/CTxWLBy8sLgYGB636uCwQChISE3FMH0xaWpVX5ZmZmoNPprDcTLkwqlSI4OBiJiYkbmtG6HJ/PR1RUFGJiYuhi+atlNpsxOzt7z9RjV2XfncROTCZzQ0cJtyrqxrhVot2+vr7YsWMHsrOz6fo6xKO1tbWhsrLSpiUIvby8sG3bNuzevRu5ublYXFzEyZMn8fHHH+PcuXP0nPi+vj76e8j1un7MZjOZdkXYhLoepVIp0tPTcfDgQbz88st48sknERYW9sDOCJfLhY+Pj0MKc9pKJBJBJpOtqcOh0+k2JfAZGRmJ3bt3IywszHrTuqP+zu7u7nZnOWHZPWYli4uLmJ6exuTkJLRarfXmVfH29kZUVBQiIyPX9JnXSiQSISYmBhEREZvSuXAEPp+PgIAAZGRkYN++fXj22Wfx4osv4oUXXsC+ffsQGRnplL+bxWKBxWKhzzmtVouuri7U1NTgj3/8I37/+9/js88+Q3NzM1QqlfW3bxqqXpm3tzc8PDzW/T7JZrMhEong7e2NwMBAu68XoVAIb29v+Pn5rekeu1ocDgcKhcLuumImkwlKpZIEdbYYd3d3BAcHIygoCN7e3g9sh6w3oVAILy8veHl52fzzzWYzXTfM1W1oUIfNZm/oaNdWtbi4CJVK5dSprLbg8/lISkqiC9QpFAoSTFiBUqlEaWnpPdOnVkKN/hYUFOBzn/scQkND0d7ejjNnzuDEiRN0Y2v5A5cEHNYPk8kkgW7CbjKZDLm5ufjiF7+Ir3zlK3Rh2uWjVHw+H+Hh4QgICFjX1a4exhFTC/V6/arvcY7CYDCQnJyMvXv3ws/Pz3rzhhEIBBCJRBAIBHbdJ6gO9qP+BtTU3unpaUxNTdkc1GEwGJDJZAgODkZwcDA8PT3tzjxwFB6Ph4CAADpjyJ5j5ww8PT2RmZmJQ4cO4YUXXsCXv/xlPP/88/TS1dSUG+pZQj1PnOn31el0uHv3LioqKvCHP/wBJ06cwPnz53Hz5k2MjY2tWO9pI4hEInh5eUEul0Mikax7P4XJZILH40GhUKzp3iwWi9ec7WMLk8lET3OxdxWs+fn5TZ1SSziep6cnQkND4e3tvSHn4YPw+Xy4ublBKpXaXCycypx39dkv2OigDo/HA5vNdqoHjiuam5vD0NAQ+vr6MDk5uSmjmI7EYDAgFAqRkpKC5557DllZWY9shD7OOBwOAgICYDQacenSJZw9exbV1dWYnJy03vWhgoKCsHv3bjz11FPYuXMn5ufnUVZWhu7ubutdiXXCYDDA5XLB4/E27SFIuD4GgwFvb29kZGTg1VdfxTe/+U28+OKLSExMBJYa/SUlJUhJSdnQ80yj0eDOnTtoaWlBa2urTfenB9no5wFzaanpyMjIda9V8SgsFgsSiQRubm52NVS1Wu2KhUl1Oh1mZmYwOjqK0dFRmwtTU4MFERERa6q34WheXl7Iy8tDfHz8hp7760EqlSIwMBAxMTHIy8vDiy++iH/4h3/AP/3TP+Gb3/wmDh06hMzMTISHh0Mul9s8Ur1RVCoVPTXrJz/5Cd566y20t7fbfM45GpfLhVAoBI/H27BV03g8HkQiEcRisd2ZQTweb0MztlgsFtzd3eHt7W3zFBcKlc1FbA1UGyQyMtLuqcKOwGQyIRQKIRKJ7HpWUgMbrm5Dn3Q8Hg8cDmdDbphbmVqtxujoKAYGBjAyMrLpD0RHCQkJwf79+5GTk7Puhepcla+vL7KyshAaGor5+Xk0NDTg3LlzuH379iMb7stxuVxER0dj3759OHbsGHx8fDA6Orrq7yfWjsFggM/ng8/nk0A3sSZMJhNeXl7IycnBCy+8gOeeew5FRUXw9PRETEwMCgoKEB0dbXdDmsr2MBqNMBgMMBgM0Ol00Gg0UCqVGB4eRk9PD9rb29HR0YHOzk40Njbi8uXLuHTpEq5fv76mueqbkXkgkUjg6ekJLy+vDe00WWMwGHRQx9bsActSTZ3FxcVHZkPo9XrMzc1hcnISExMTdmXq+Pj4bHqj3pq7uztyc3MRHx9vcyPfGfF4PLp2RX5+Pp599lm8/vrreO2113Ds2DGUlJQgPz8fqampiIqKgo+PD0QikdO1u0dHR9HU1ITS0lL86U9/wqVLl9Dd3b2p2RtsNpsedN6oACCXy4VAIIBQKLTr/GQwGGCxWDbfF9aCzWZDLBZDJpPZHYjajPs5sb4UCgVCQkLsnkboKPYOlFLPyuUrP7oq237zNRIIBOByueSCdoC5uTnMzMxgbm5uy3TGGQwGvLy8kJqait27d29oBXVnx2AwIJfLkZWVhS984Qt49dVX8eSTT8JiseCTTz7BxYsXMTQ0ZNO5EB4ejpKSEhQUFCA2NtbuhzRhOyr9WigUgsvlbtjoILG18Xg8JCcn45lnnsH3vvc9vPzyy4iKioJYLLb7/DIajZiZmcHw8DC6urrQ2tqKhoYGXL58GWfOnMH777+PN954Az/4wQ/w93//9/j2t7+NH//4x/jd736HU6dOoaGhARMTE9Zv67QkEgnCw8Ph5eW16e0VBoMBsVgMiURic8fPYrHQgbhHPRfMZjMMBgPdprA1+MdYGql1hkb9chKJBJGRkfD397e5ke8q2Gw2goKCsHPnTjzzzDN49dVX8dWvfhVf+cpX8Fd/9Vd46aWXcODAASQmJm5o53+1Ojs78bvf/Q4fffQRenp6Nq1OJJPJBIfDAYfDsfk6sxebzaanVzprZpU1qt0iEAic8nwiNodMJoOvr6/d2VuOwlyagvo429DfngR1HEer1WJqagpjY2MbXm9gvUVFRaGkpMRpGyKbwcPDA5mZmSgsLERBQQEOHDiAw4cPIyQkBIODg6irq8Ply5fvWYZ8JRwOB5GRkdixYwd2796NyMjIx/6GuFEYDAZ4PB6dqUMQjuLm5obs7Gx8/vOfx969e+Hr6wveCqvmWCwWGAwGLCwsQKVSQalUYmxsDHfv3kVLSwuuXbuG6upqXLx4EeXl5Th//jzOnTuHM2fO4NSpU/j444/x0UcfobS0FKdOnUJFRQWuX7+Ozs5OjI6OutQzys3NDQEBAXB3d9+wDt7DMJlMCAQCCAQCu+7NJpMJRqPxkcWSqSystWT8enl5ITQ01KmCOnw+H76+vvDw8LDetKXwluoHJSQkIDc3F3v27MGhQ4dw5MgRPP300zh06BCKioqQnZ0Nb29veHl5wdPTE1KpFAKBABwOx65za60YDAYMBgNu3bqFs2fPorKyEt3d3Y8MQK4XqjPIYrE27JpnMpl0ZoG9P3OjpzJRwS8ul7sp5wzhnKjaThtRrPtRSBbYBgd1+Hw+Ceo4iMViweDgINrb26FUKq03uzRfX1/k5uYiPT0dwcHBK3ZIHgcRERH44he/iKeeegpubm7w8vJCfn4+du/ejZSUFNy6dQv//u//jtraWpvTmFNSUnDs2DEUFhYiMjKSZOxsAAaDQY8MEoSjMZlMeHh4wNPTE2KxeMXzzGAwYGxsDNevX8fp06fxhz/8AW+88QZ+8Ytf4D/+4z/w61//mn69+eab+OCDD3Dy5ElcvnwZt27dwvj4uPVbuiwulwuxWEx3eDe7vcJms9f0OVb6PiqoY2/nkMFgwNfXFxEREU41bZrD4UAsFoPP5z8yqLXVCIVC+Pj4IDw8HElJSSgsLMQLL7yAf/7nf8avf/1r/OhHP8KXv/xllJSUID4+Hl5eXpvSxlp+vjU3N+ONN97A2bNnMT09bfe5aK+N/nmUjQ7KOAKLxdq0QCDhnHg83pqygQnH2dCrUiQSgc/nkz+8A5jNZvT39+PmzZsYHR3dtLTV9SASiRAeHo7U1FSkpKQ81sucy2QypKWlobCwEDt27ICvry89qhQUFITc3FwUFhaCw+GgubkZtbW1aG1txfz8vPVbPZSHhwfS0tJQUFCAnTt3IiQkhDyw1xljWaFkkqlDrAcqGLC8ToTZbIZOp4NarcbExARu376NqqoqlJeXo6ysDKWlpTh9+jQ+++wznDp1CqdPn0ZZWRkuXbqEK1euoL29HXfu3EFPTw8GBgYwNjYGlUq1pZ4/1LQIZ7g2GQwGfb+3p920mu8xGAwrFlNeiVgs3tSC0g/DZrPB5/PtXl3IVVFTe2UyGQIDA5GYmIgdO3bgyJEjOHLkCA4dOoQDBw5g37592Lt3L3bt2oXU1FREREQgICAACoUCUql03Qd4qPPTYDCgvb0dNTU1aGpq2tSCpRsdZHG1wA51T1rNvYV4PHCXCo1vNle7ltbDhvbcqNEvcjNYO7PZjKGhITQ1NaG3txezs7OPLIboaoRCIRISElBUVITAwEDrzY8FNzc3JCcn46/+6q/wpS996YEri8TExODQoUPIzc0Fj8fD1atX8Ze//AU9PT3Wuz6SQCBAfn4+nnnmGeTm5iIwMHBTRu8eF4ylQsnUihsEsREWFhYwODiImzdvorS0FD/5yU/w9a9/Hd/61rfwk5/8BO+99x4qKirQ1NSE7u5ujI6OYmZmxqWmT60Vi8UCl8vd0Poam0mr1UKlUkGn01lvWrWVlk3fLGazGQKBAD4+PpseoHMWcrkcCQkJ2L9/P77yla/ge9/7Hn74wx/im9/8Jl5//XV86UtfwsGDB5Geng4vLy/rb3co63Omo6MDp06dsrn9QhDE5lkpE5jYOBsa1JHL5RCLxSQLwIFGR0fR0tKC27dvr2lOvLNhMBgIDg5GVlYWIiIiHovG9XICgQApKSl0IeOoqKgHjpp5eHggMTERhYWFyM/Ph1KpRFlZGerr6zEwMLDqQB+LxYJCoUBqaioKCwuRnZ29qau+bHXMpeUX17KcKUGshkajwcjICG7evImLFy/SmThnzpxBRUUFbt68iY6ODvT09GB4eBhTU1OYm5vD4uIi9Hr9ijVZthoqqMN2klXp1nv00WAwQKvVrvpZYY0atXeGY7Ucdcz4fD7c3d0fu2ydh6FWMPLy8kJAQABCQ0Oxbds2FBYWoqSkBPv27aNfe/bswe7du5GVlYXY2Fh4e3uva92MgYEB1NXVoaur67G65xCEK3O2e//jbEOjK97e3k5RfHArMZlMuHr1Ki5cuACVSmW92aUJhULExMQgNjYWISEhj1VGg0KhwIEDB/D000/D39/fevM9JBIJSkpK8PLLL8PT0xM3btzA+fPnUVNTg7m5OevdH0kqlaK4uBhPPPGEUy1Pu9UwmUxIJBJIpVIygkysG4PBgK6uLpSXl+Ptt9/GL3/5S/zyl7/Em2++ifPnz2Nqasr6Wx57pGaEbXhLS2Y7G8bSks/UVCRn/IzORKFQICIiAqmpqSgqKsIzzzyDr33ta/jud7+L73//+3j99ddRWFi4rpnTi4uL6Orqwp07d9Df37+lpnUSBEGstw1ttQQGBsLT05MEdRzIaDSis7MT169fR0dHx5pSqJ2RSCRCRkYGioqK4O3tbb15yxEIBMjMzMSxY8ewY8cORERErJgxw2KxEBYWhpycHOTl5SE0NBRtbW04e/Ys2trabBqBZbPZ8PHxQUZGBg4dOoSYmJh1HZl7XDEYDAiFQohEInI/JBxKr9ejt7cXZ86cwW9/+1scP34cp06dwsWLF9HQ0IC+vj46G2ctdVS2qsetZgSVCWRvNpBUKnXaZwSLxQKfz6cLJhMPx2azweVyIRAI4OHhgeDgYCQmJiIrKwt5eXkoLCzEk08+ic9//vN46aWXsGfPHqSlpSE4OBgymcxhgxNqtRptbW1oaGjY1No6BEEQrmZDgzrBwcFQKBQOu/kT/3/O+Pz8PNrb21FfX4/W1lZotVrr3VxaRkYGjh07htDQUOtNWwqLxUJgYCA+//nP4xvf+AZSU1Nt6lj4+fnh8OHDeOaZZ6BWq1FWVoba2lp0dXXZPOIVHByM119/Ha+//vqWP+6bgbnGpYoJ4kEMBgOGh4dx5swZfOMb38Df/M3f4L/+679w5swZtLe3Q61WW38LYWUtAY7HDY/Hg7u7u9Nm0VJBHYlE4rSf0ZlRzymZTIbIyEgcOnQI3/72t/HGG2/gZz/7GV5++WUUFRUhJiYG7u7u1t9uFyaTic7OTlRXV2+pVfUIgiDW24b2JuRyOSQSiU0dVWJ1ZmZmcOPGDTQ3N9s85cbZubu7IyoqCklJSfDx8dmSmQ1isRjZ2dk4fPgwtm/fjoCAAJtrrfB4PCQnJ6OoqAgZGRkQi8W4cuUKysvLMTExYb37IwkEAkRFRSE/Px/79+9HUlLSPdvJNbw2bDYbPB4PPB6PHEvCIcbGxlBdXY33338fH3/8MV2XQqPRQKvVwmAwkDoVxH2oejj23ofW8r3rjTrf2Wz2lmw3rDcqa43JZNKrwolEIohEIiQkJKCgoABPPvkknn76aRQVFSEsLMzmdos1i8UCpVKJoaEhzMzMWG8mCIIgHmJDgzrUkuZkZNrxDAYDWltb0djYiJGRERiNxi012ujm5ob09HTk5eVBLpdbb3ZpEokE0dHReOKJJ/Diiy8iJibGepdVc3d3R3JyMgoLCxEdHY0bN27g9OnT6OrqwuLios3nRFhYGI4dO4aSkhJIJBL667a+D3EvPp8PPp8PLpdL7ofEms3Pz+P69ev48MMP8etf/xqVlZXWuxDEAzGZTLBYLLsCMwaDAQsLCzAYDNabnILRaITRaITJZCLPrHUQFxeHvXv34vnnn8exY8ewfft2BAUFWe9mM51Oh7m5OczMzECj0ZC/HUEQxCpsaG+Cw+GAzWaTTsw60Ov1GBwcRFNTEy5duoTbt29b7+LSBAIBYmJikJqaCoVCYb3ZZcnlchQVFeErX/kK9u/fj7CwsDWv0qHT6TA/P4/p6WlMTEygs7MT5eXluHr1qs1LE0ulUsTHx2Pnzp0oKSmBr6+v9S6EDRgMBthsNmQyGdzd3clqgMSatba24sSJEzhx4gQuXLiA0dFReps9HfW1YDAYkEql8PHxQUhICIKCguDt7Q2hUGi9K+EkOBwOBAKBXdPizWYzZmdnnXrlTSrwtNXqDToLLpcLLy8vbNu2Dc888wz27t2L2NjYFWsBPsrc3BzGxsYwOjqKqakppw0aEgRBOJMN7U1Qq0qstdNK3M9isUCr1aKzs5Ne0np+ft56N5fFZrMRHByMhIQEBAQEgM/nb3iHxdEUCgVSUlJw6NAhvPTSS0hKSlpTMUez2YzJyUm0t7ejra0N/f390Ol0mJycRFlZGS5evIiRkRGbp2BIJBKkpaXhyJEjyM/PJ7UJ1oDBYEAkEsHDwwNyuRxSqZRMCyDsNjMzg/Lycrzzzjv47LPPcOfOnXu2O3qEm5pqQ03JYLFY9NQMoVAIPz8/xMTEID09HTk5OcjOzkZ8fPyWy67cStYS1AEAlUplVxboRmAwGNDr9Zibm3PJWoOuVN/J398fe/fuxcGDB5GXl7fiqp0PY7FYYDAYMDk5ifHxcSiVShLUIQiCWIUNDepwuVzIZDKEhITA3d2djFCvg5mZGVy9ehU1NTXo6OhwyYbMg7BYLPj4+CA6OhqxsbEIDg52qeDC8gAUl8tFUlISnnrqKbzyyivYuXOnQ5ZbZTKZaGxsxMmTJ3Hz5k16Pvri4iJdSPvKlSvo6+uz/tYVeXt7Y/v27di7dy8KCgq2VLbURmIwGOBwOBCLxVAoFJDJZCSoQ9jMYrGgt7cXZWVlqKysREtLyz1B/PUKeMtkMoSFhSEtLQ27du3Cvn37cOTIETz33HN48cUX8fLLL+PVV1/Fl7/8Zbz66qt4/vnn6QxEwjlRg2323ocsFovd07fWGxUgWFxctHmxgM1GfXadTmfTCpabiclkIiYmBrt27UJcXNw9U7ZtpdVqsbi4CJ1OR1bpIwiCWIUNjarweDx4eHggIiIC/v7+JKizTpRKJZqamlBXV4fOzk6Xa8w8ip+fHxITE9ec3rvRlo+2hYSEoKCgAIcPH8ahQ4cc1uGZmJhAXV0dzp8/j+7u7ntGtxYWFnD79m1UVlaiubnZ5nR5amWu7du348CBA0hJSXFIIOpxQ2XqyGQyyGQy680EsSpqtRrXr1/HqVOn0NjYeF9W5lpG96kpgjwejy6K6ubmhoiICKSkpCA3Nxe7d+/GgQMHcPjwYTz99NP43Oc+h+eeew7PPvssjhw5gkOHDqGwsBCFhYXIysqCj4+P9Y8hnASVeWVvUMaZ23EWi4Wuz+JMA1wWiwVmsxlGoxF6vZ4OYFCvqakp9Pb2or29He3t7S61tLePjw/S09MRGxsLb29vu7OPTSYT9Ho9DAbDmu5nBEEQj4sNfRrz+Xx4eHggJCQE3t7eTt0YcHWDg4P45JNPUF5ejpGRkS3zUOTz+UhNTUVGRobdjYWNtLyhzGQykZiYiH379uHYsWPIyclx2FTEvr4+nD9/HlevXqWnXVkbGxvD+fPnceHCBdy5c+eB+6wkJCQE+/fvR0lJCZKSkkitDBsxmUwoFAr4+fm5xPlLOB+DwYDR0VFcuXIFFRUV99TQcQQej4fg4GDs3LkTL7/8Mr73ve/hX//1X/GP//iP+PrXv46XXnoJTz/9NA4cOICioiLk5+cjIyMDiYmJCA0Nhbu7O33fM5lMMBgMZKTdya1lmo9laeq3rQMFG4HJZGJhYQGjo6NOFdQxmUxQKpW4e/cuGhoaUFFRgY8//hgffPAB3nnnHbz11lv43e9+h3//93/HL3/5S7S0tFi/hdPi8Xjw9/dHSEgIAgIC7G4jUJlKer3e5injBEEQj6MNj6pIJBL4+flBLpeToM46mpubw7Vr11BZWYm6ujp0d3dviYwdNpuNyMhIJCYmwsvLy3qz06EaygwGAxERESgqKsLevXuRlZXlsEyNhYUFXL9+HWfPnkVra+tD55+bzWaMjo6ivr4etbW16Orqsjmtm8PhICwsDDt27MDu3bsRGxtLMnZswGQy4evri+DgYBLUIezS39+P2tpaXLt2DePj43Z3xrGUgcfj8SCRSODt7Y3o6Ghs27YNu3btwv79+3Hs2DG88MIL+NKXvoTPfe5zOHDgAHbu3Im0tDRER0cjODgYfn5+8PLygru7O4RC4T3Pda1WC61Wa/N9htg4DAYDLBbL7ulXADA7O4uxsTGna2Po9XpoNBqoVCrrTRuCKiTd39+P3t5e9PT04NatW6ivr0dNTQ0qKytRVlaGM2fO4OTJk/j444/x4Ycf4uOPP8ann36Kjz76CCdPnkRra6tLBTao+4mvr6/dGdUMBoPOZlrLPY4gCOJxseFRFS6XC7lcDjc3N+tNhINptVpcv34dv/nNb/DZZ59hcHDQ5UdMmUwmxGIxQkJCEBUVBblcvqbG6HqxTmVPS0vDU089hWeffRb5+fngcrn3bLeXUqnE1atXUVZWdt/KNw/T09OD48ePo7KyEhMTE3Y1FpOSkvDFL34RBw4cQExMjN0Nt8cNi8VCUFAQIiMjHZalRTxeampq8Ktf/QrNzc3Wm2wmFosRGRmJPXv24LXXXsOPf/xj/PM//zP+9m//FocPH0ZSUhK8vb3B4/HAZrPB5XLJYMwWQy1eIRaL7XqWWiwWjI2Noaen575pgJvJYDBgbm7O5hUfHWlxcRGlpaX4xje+Qdebev311/Gd73wH//t//2+88cYbeP/993HmzBlUVVXh6tWruHHjBtrb29Hf3w+1Wo35+XkMDAygs7PTKbOhHsRisUAkEsHd3X1NtQ9JMIdwduQcJZzJhrfOOBwO5HI5ZDKZwzq2xMNNTk6itrYW586dw/nz53Hz5s1NbeQ4ipeXF9LS0pw2U4S60fP5fCQlJaG4uBh79uxBeno6xGLxPfusBbXa2ZUrVzA5Obmq91SpVGhoaEB1dTUaGhowMTFhvcuK+Hw+YmNjUVBQgJ07dyIkJMR6F+IBGAwGfH19ERoaandaOvH40uv16OjoQGNj45rv43K5HGlpaSgpKcGBAwdw6NAhHDp0CLm5uUhMTERQUBBkMplD7q/WQW7CebDZbAgEAkilUshkMpuDdhaLBePj47h79y7UarX15k2zuLiIkZERKJXKTTv/zGYzOjs7cerUKVy6dAmXLl1CdXU1rly5gsbGRty+fRvd3d0YHBzE+Pg4pqenMTMzg7m5OTqAYzKZMDQ0hNu3b2N2dtb6Rzgli8Wy5lXVsDQIspZ6TwSx3si5STgT257eDsDhcOjlfNdSGZ9YPZPJhOrqavziF7/A8ePHcevWrXs6BKsJBDgbsViM3NxcZGZmOqTTsV527dqFV155Bc8++yyys7Pv+axrfRjMzs7i2rVr+Oijj9DZ2Wm9+ZEWFxfR0NCAP//5z+jo6KC/buu5kJycjKeffhpZWVlQKBQ2dwgeNyaTCQqFAgEBAWsawSQeP9T0SUdkQygUCmRkZOALX/gCvvKVr2D//v2IjY0l5+RjiMlkgsvlwt3dHQqFwuZpoRaLBZOTkxgcHFxzoNGR1Go1enp6MDIyYlc2qiNQ2W1rva6GhobQ2tq6adPINguHwwGPxyPtCsIpUVNX7T0/19oHIAhr9p2Ja8Dj8eDp6QlfX194enqu+WFHrI5Op0NPTw/Kyspw+vRpXLt2DUqlEiaTySVvLHw+H9HR0UhMTERwcLD15k0nEomQnp6OkpISFBcXIyEhgZ5uY2vg5EHGx8dx+fJl1NTU2FUbBwAGBgZw5coV1NfXY2hoCGaz2eZzwd3d/f+1d1/BcZ1XnsD/nROADgAaORCZCAwgSICZIJijKImSZdnyWGXtrGfsqhlPzcNMzYN3H2b2YWtqqram1q4tj+2x5SCNaUmUmEAxASAJAiABIufYQEd0oxud0770vQU0KRLdCESD51fVRQn3NtDx3u+e75zzYevWrTh69Cjq6uqQlpYWvgtZICsrC2q1el0HIsn6ZDQa0dfXF1VmHYPH4yE1NRX79u3D2bNncfDgQRQXF0OtVlPm2GtKJBJBLpcjJSUl6tWK9Ho9RkdHYTQawze9MrOzs3j48CF6e3tfWdk5j8dDUlISNm3atKwS5fHxcbS2tmJwcHDd9S16Hg6Hwy4lH83YhMHj8cDn8yMelxCyVjgcTlSfz2AwCL/fj0AgsCLXBITgVQR1OBwO5HI5MjMzkZmZCblcHtUXgkSnvb0d//Ef/4Hf/e53uHfvHmZnZ8N3iQl8Ph+JiYkoKCjAjh07kJ+fv6w035XE5/Nx4MABfP/738eJEydQXFy86LGtxOe9u7sb/+///T/cu3cvfNOSMWnd9fX1+OMf/4jh4eHwXZYkLi4O586dw1/+5V+ioqJiRZ7fRsPlcpGfn4+amhqkpKSEbybkpbRaLVpbWzE1NRW+acnS0tKwZ88evP/++/jud7+L/Pz88F1WHB0P1jcejwe1Wo2MjAykpqZGHHwIBoPQ6/UYHBzE1NQUbDbburhIYVZ77OrqemVBHS6Xi9zcXOzevRtZWVnhm5dMq9WiubmZDVKtp4yob2K322E2m6NaZROhzxWHw6HyK7KuRXusCwQC8Hq98Hq9Uf8OQsKteVCHkZycjJKSEqSnp4dvIqtg4Ulxenoat27dwpUrVzA0NBSzBxQ+n4+UlBQUFhYiIyMj6hTIlZSUlMSuHHP48GHk5+ev+OOam5tDT08PHj9+vKxZe4R6dHR0dLD9lqJpxMjj8RAfH49t27bhyJEj2L9/P5RKZfhur7VAIIDs7Gxs3boVSUlJ4ZsJean5+XnMzMzAarWGb1oSqVSK0tJSHDp0CJWVlUhISFiTi6XgMpbLJmtDJBJBoVAgMTEx4uzpYDDILhs+MTGxLlbB8nq9mJqaWrRwwFp81sPxeDx2VTmVShW+OSJGoxFtbW24f//+ss/7q81ut0Ov12NmZiaqMQVCxyuxWAyBQPBK3jtCXmY5QceFQZ1vWrGWkEit7NVmBBQKBbZt24bc3NyovhAkMuGD6uHhYVy7dg1dXV1sGVYsiouLQ2Zm5rrp57Jr1y58+OGH7KpQK90M3Gw2o7W1FZ2dnSvWNNFkMqG5uRkPHjxAV1dX1M0upVIpzpw5g+985zsoLi6mEqMFuFwuMjIyUFJSQiv/kaj4/X643e6oyhlEIhFSU1OxY8cOHDhwAMnJyeG7rApmSeJX1dOELE0gEIBMJosqqMOwWCwYHR3FyMjIK80kcTqd6OnpwcjIyKLVvMLHQGuBw+FAqVQiMzMTCQkJ4ZsjwuVy0dXVhVu3bmFkZGTdjtl8Ph/0ej0mJiYwNTUV1WeBx+NBpVIhISEBYrF4XYztCAm3nKBOMBiEx+OB2+1+5UFwsnG8siOlSqVCeXk50tPTacC3hhYefEwmE0wmE6xWa1QXCuuBTCZDbm7uKy9pkcvlOHz4ME6fPo3du3cjJycnqgP9iwSDQYyMjOD69etobW2Fy+UK3yVqVquVLcMaGhoK37wkQqEQeXl52L17N06dOoXdu3fTst0harUaWVlZyMjIoN4lJCo+nw8ejyeqY7VUKkV6ejry8vKQl5fHrsC32rxeL2w2W9QlGGRtcEKr8hUUFET92XA6nWhra8Pt27eXVSK4XDqdDvfv30dHR8e6mAGPj49Henp6VKVtCwVDq4x1dHTg6tWruH37dlQBk9VmMpnQ29uLoaEhaLXaiMcpHA4HEokESqUSarUaSUlJKz45RshKiTao4/V6YbVaMT8/vy6OU2RjeGVBHZlMtq7KZl4XC2erxGIxvF4vHA5HzAbWxGIxsrOzkZaW9kp76lRVVeGjjz7CqVOnkJubu+Kfaa/Xi5mZGTx+/BjXrl1DR0dH+C7L9vTpU/z2t79FW1sbrFZrVJ8JgUCA/Px8vPHGGzh37hyys7PDd3ntKJVK5OfnIzs7e1kz4eT1xqRrR/O9lEqlSE5ORnJy8pquOmm1WldsxS6yuphMwmhLZ/1+P9ra2nDjxo1XkgEcCARgtVoxODiIe/fuob29fV0EE6VSKVJSUpCdnY2srKyoAzvBYBA+nw/j4+O4dOkSPvnkE0xMTITv9sqNjY2hubkZAwMDUWf9ymQyJCUlIT09HWq1+pWO7Qj5JkymTjTjfY/Hw06sO53OqM7rhISL/JO4gmQyGQoKClBTU0MlCa9IrPc7EIlEyMzMRFZW1rJr1qORlJSEEydO4MKFC6ipqVlWM8QXmZ+fx+3bt3Hr1i1MTEzA7/ev2Pu2cJbBYDDg5s2buH79etTlXRKJBIWFhdi/fz8uXLiAnTt3LtoezaxGLFMoFMjJyUFWVhaSkpKoLG0VrNR3YT3z+/3wer1RXShzQ8tWr+WMt8/nw8jICB4+fIjJycnwzWQd4XA4EIlE7EV0NJixxNjYGK5evYr6+nqYzebw3VaNz+dDV1cX7t+/j87OTkxPT0f1XVlpIpEIarUaeXl5KCgoWHYZlsfjwfj4OB4+fIhPP/0UDQ0Na/o6fxO/34+hoSHcvXsX169fx8jISPguS8LhcKBQKJCWlgalUvnajRdI7OBwOBAIBFGt0OZwODA2NoaxsTHo9fp1mXVHYs8rDeoAQF5eHg4fPoyCgoLwTWQdWo9BIIFAgKysLBQWFkKhUER8cI0Wj8fD9u3b8b3vfQ+nT59Gbm7uohr+laTRaHD9+nU0NjbCbreHb16Whe8nl8tFQ0MDPv/8c4yPjy/aLxJisRhlZWV46623cOzYsUWzv+vt87PaEhMTkZ+fj/T09KiWCyYvt1bf+VfJ7/ezS6BGamFTxrXg9Xqh0Wjw9OlTPHr0CBqNJnwXsg4xAehNmzZFnVFos9lw69YtXL58mV2CO5rPbKS0Wi2amppw7949jI+Pw+fzrZtzjUKhQGFhISoqKlZk8snv92NwcBCffPIJ/vjHP6Krqwtmszmq0syVMjY2hsbGRnz99dd49OhR1A3dORwOGwSjyV6ynvF4PIhEoqgm6gKBAObm5jA0NIS+vj7odLrwXQiJ2CsP6jCrYCUmJoZvIqssGAzC6/UuedBls9lgMBhgt9sjzhRh+kGslpycHJw+fRrl5eWLHtdqXewplUocO3YMZ8+eRXV19aqVGTEznw8ePMDTp08xNTW1qgM3n88HjUaDzs5OtLa2Ynx8PKL3eSGZTIaSkhLU1dXhW9/6FoqLixdtX633Zr1JS0vD9u3bkZqaGr6JrAA+n/9aBMt4PB54PF7Uqd42m23N6vcNBgPq6+vR3NwMvV6/pPMLefWEQiGqq6tRV1cHhUIRvnlJfD4fpqen0dbWhj//+c+4detW1Bf4S9XV1YXLly/jxo0baG9vX/GJj5VQVlaGw4cPLxrrLucc6HK5MDw8jDt37uBXv/oV/vCHP+Dx48er/lqHc7lcaGtrw6VLl/Cf//mfaGtrC98lIn6/H/n5+aipqYk6a4yQtcDj8SCRSCASiaL+Lg8NDeHPf/7zqrRUIK+fyEeHK0yhULCz2NEMVkn0gsEg3G43XC7Xkgbdc3Nz0Gg0mJiYwMzMTET16n6/H3a7HePj4xgZGYHZbGZLCaINGiyUmpqKuro67N69e9Hszkr87ufJzs7G6dOnceTIkVXpocMwmUxobGzE7du3l5U5E6mJiQk0NDTgwYMHMBqN4ZuXTCqVYvv27bh48SIOHz68Ju/NesLlcpGTk4Py8nIKXK8Sr9cLu92OQCAAj8fDrigRqzePx/PcMis+nw+hUBhVNqDL5YLRaMTMzAx0Ot2qBoYBoLu7G9evX0dHRwfcEZwnyKvF4/GwZcsWHDhwAOnp6eGbl4yZjLh27Rq+/PJLtLa2Ynp6mu0dsZTxxjdhsoWZfoC9vb24ceMGvvzyS7S0tGB2dnZdnluUSiV27NiBoqIi9mfLfZxOpxO9vb344osv8F//9V+or69Ha2srDAYDeyxZqTEW87oHQivaOZ1OGI1GtLa24vr167h8+TJu374Nk8kUfteIyGQyFBUVYevWrVEHFglZCwKBAAqFYll96vR6PW7fvo379+9Do9EgEAis2HeWvH54P/3pT38a/sO1JBaLIZFIYDQaodPpYLfbaRC4RkQiEcrKypCfn4+0tLQXznYHg0FMT09jeHgYXV1d0Gg0UKvVS06PDQQCmJ6exi9+8Qt8/PHHMJvNCAaD7Cz7chvhCYVCxMfHQyKRIC4uDmazeVEwItooejgulwuZTIbdu3fjvffeQ3l5+Yr97oWYpo9PnjzBxx9/jFu3bq1p3bzH48HMzAycTicyMzPZBr/RPFexWAylUom4uDhIJBJYrdZlBYpihUgkQn5+Pk6ePIlDhw698Pv1urLb7ZiZmUFHRwe6urrCNy9JTk4OUlJSYDQaMTExAY1Gg6mpqZi7TU5OYmxsDNPT07DZbAgEApBKpWzAeHJyEr29vZiamor4wsnj8cDlckGhULANk6Nt2PoiGo0G9fX1uHz5Mu7evYvp6ellD04PHjyIPXv2RFQONDQ0hPb2dkxNTUWcuZCamoqCggIUFxcjKysrqmPeSnG5XOjo6MDAwACmp6cjGhsJhUJkZWWhoKAApaWlS7pA5nA4EAqFcLvdGBkZgVarXXImbzhmImdqagpPnjxhm/oy5/xo+zsFAgHYbDYMDQ3hN7/5DX7+85/j7t27GB4ehsViWfbnbaGEhARkZ2ejvLwcJSUl4ZsjxufzEQwGIRAIMDMzw/bRWM5nLBgMwuVyYW5uDuPj42htbUVjYyO0Wi34fD74fD7b92M5mJ5ec3NzmJycxN27d/Gzn/0Mn376KVpaWjAyMgKn0xl+t4golUpUVlbi1KlTqKysjOh16e7uRnt7O7RabcSZWkqlEllZWdiyZQs2bdoUVeA8GhMTExgYGMDAwEDEYyIOh4OkpCTU1dVh8+bN4ZtXRSAQwPj4OAYHBzEwMBDxeQihcdGZM2dQUVERvukZdrsdjY2NePjwYfimJdmxYweqq6uhUqmiKpF6GYfDAZ1OB41Gg9HR0WcmYpbK7XbDbrdDo9HA6/UiISEBQqFw2d/ZpbBYLJiYmEBHR0dUfbA4HA6OHz+O3bt3h29aUz6fDzqdDkNDQ3jy5EnE533GKw6JLNsrD+ogNJvvdDphs9mg0+miOlCQyIlEIhQWFiI3NxfZ2dkvHeRPTU2hv78fDx48wMTEBEpLS5c8m+f3+zE+Po6f/exnuHnzJubn5+Hz+WCz2eB0OtmBmN/vj7qbvEAgQGJiIpKTk9la1UiX03wZqVSKzZs3o7a2FsePH1+1C3Wv14ve3l7cuXMHn3/+ObRaLbDMwd9ScTgcBINB2O12zM7OIj4+HnFxcUhJSYn6xCgWi5GUlASlUgmz2cz2WtjIMjMzsXv3btTW1q7IBcFGtBJBHZlMxh5fBgcHMTQ0FLO33t5eaDQauN1u9jvDfOf0ej1GR0cxMTHBHg8i4XK5wAk1dlQqlUhNTV32xQuTMcGsctXc3IzPP/8cjY2NGB0dXZELbArqrG1QRyAQwO/3Q6/XY25uDkajMepjtcfjwdzcHCYmJjA5OQkul8tmpDHZYn6/Hz6fD16vFz6fj/1/5sb0gnK5XDCbzYvGIb/97W9x//59tix8JT5vC610UIfD4bATHMPDwyu2elUwGITT6YRer8fY2Bi6urpgsVjA4/HgdDpht9vZCVN/qC8X8/r6Q726Fr4PTFm+z+eDw+GA0WiERqPB2NgYent78fTpU9TX1+N3v/sdxsfHodfrlx3QAYCKigrU1dVhz549EZcrU1Bn9VFQZzGv1wun04nJyUl0dnZGHdRBqGR5bGwMXq+XDawzmXY+n++ZTN6FWcnMvzabDVarlQ3EL6Vcm4I6i62DkMiyrIugDhZcSPb3969pmcnrjGkwnJOTg4KCAshksvBdWBwOBzqdDoODg7h79y6mpqawe/duFBYWhu/6XF6vF1qtFnfv3sXY2BhMJhNGR0fx8OFDdHd3w2w2w2QywWKxQCKRRJ3OKBKJoFAoIJPJIJVKYTAY2AyXlRicq9VqnD17FocOHUJubu6qRdK9Xi+++uorXLlyBcPDw1EPqpdrfn4eg4OD4HA42LlzZ9TvC0KBncTERPh8PszPz8NsNm/ojv/l5eV45513UFlZGfUywRvdSgR17HY7xsbG0NPTg+7u7pi9dXV1oaOjAxqNBjweD4mJiYsa1tpsNhiNRoyOjmJsbCz8ZViS2dlZTE9PA6EAdWpq6rKOYR6PBz09PWhqasKVK1dw/fp1tLS0sGnkK4GCOmsX1GEwFwLz8/Po6upiJ0eW81o4HA5oNBr09fWhu7ubDQYYDAbMzs6y/202m9nxADMLPjIygp6eHrS0tKChoQFfffUVbty4gZGRETY4tBpWI6gTFxcHPp8PvV4Pi8UCi8WyYt+VhSwWC0ZGRtDZ2Ynu7m42C1Cn00Gv10Ov18NkMsFsNrOPQ6/XY2pqChqNhs0c7O/vR1tbGxoaGvDFF1/g6tWruH//Pnp6eqJesvx5JBIJDh06hHPnzqGoqAhSqTR8lxfqpqDOqqOgzmJcLhd8Ph9DQ0O4d+/esoLKTMadRqNBV1cXpqamoNPpMD4+jtHRUQwPD2N0dBSTk5PsbWxsDMPDwxgaGsLAwACePHmCzs5OGI1G+Hw+yGSyl048U1BnsXUSEonaugnqSCQS8Pl89PT0oLOzc1lfDrI0PB4PKpUKKSkpKCkpeeGgz+fzsQPlpqYmmEwm7NixAwUFBRAKhS8d7LndbkxPT+P+/fsYGhqC1+uFxWKB0WjE2NgYHA4HDAYDtFotO1BgZpH4fH5EJ1mRSASVSoWEhARYLBZMTk7C5XKtyGcqNTWVXaZbLpeDy+WyM1lTU1PQarWYnZ1lewcIBIKXRsrDMVk6ly5dQkNDA2w224o89kgx76ndbofP52MbmovF4pe+399EJBKxafdWqxU6nQ7eNWjcutZkMhnq6urwxhtvICcnZ1kXzhvZSgR13G43LBYLezEYqzeLxYL5+XnYbDakpqZi06ZNKC4uXjQoCwQC6O3tRU9Pz6LX4GWY76vf78fs7Cw7C+/1etmsPJfLxf6MmRVceHM6nZifn4fJZMLMzAzGxsbQ0dGBpqYmNDY2oqmpCV1dXTAYDCt6kUpBnbUP6ggEAkilUrjdbvZvLweHw2FLiqenpzE1NQWj0ch+lqampjAyMoKRkRGMjo5iZGSEvVBhgkBPnz5Fe3s72tvb8fjxY0xPT8Pn863q+7PSQR2EXguxWIxgMAi/379o4mkleTwezM7OYnJyEhqNBkajEXq9HtPT0+wFIXNjLhqZ17u/vx/9/f3o6+tDV1cXnj59iidPnqClpQVjY2NsZhSWGehjxMfHo6ysDCdOnEBtbS2SkpIi/r0U1Fl9FNRZjOlzNz4+jsePH8Nms4XvEpFAIMCOiUwmE/v9HRkZwfDwMBvYWRjI6e/vZ7+37e3tGBoaQiAQQEJCAlJTUxEXFxf+ZxahoM5i6yQkErV1E9Th8/mQSqUYGRnBxMQEeyFJVg+HwwGfz4dSqURpaSnS0tLCd2HZbDY8evQIjY2N6Ovrg9/vR2ZmJpRKJZKTk19YHx8MBuFwODA1NYWGhoZnDhyBQAAWiwVjY2Po7u5GS0sL7t+/j6mpKQSDwagakUkkEqhUKjZSrdPpMDc3F75bxNRqNU6cOIGSkhLIZDI4nU6MjIzgyy+/xM9//nP86U9/QmNjIzQaDfx+PxITE1+YAfU8zc3N+OKLL3D79m2MjY29koBOOA6HA6fTCYlEgry8vGUFKeLj46FWq+Hz+WC329kSvI0iJSUF+/btw9GjR7Fr166IP7uvk5UI6mw08fHx2Lx5M0pLS1FUVMQGM6RSKdRqNVpbW6Me5DKY8tTGxkY0NjZiaGiIvVCzWCyYnp7GzMwM21h5ZmYG4+Pj6OzsxLVr1/DJJ5/gk08+weeff46HDx9iYGAAOp1uUSntSqGgztoHdbhcLuLj4yEQCGCz2eBwOKDX61fsvfWFSq+np6cxMDDAZqk9efIEbW1taG1tRUtLC1pbW9He3o7Ozk709/djbGyMLfVZqcfyIqsR1EFovMuMn6anp2E0GiMORETC5/OxAbWRkRH09fWhs7OTDZC1tLTg0aNHaGlpwePHj9HR0YHOzk50dXWxr7tOp1uxyTGEBYNKS0vx7rvv4uDBg1EHVSios/ooqPMsgUDAZhXabLZlB3YYLpcLBoMBk5OTiwI5/f396O3tZSd3mCDs4OAg+vv7YTAYkJiYiJycHOTk5CAhISH8Vy9CQZ3F1klIJGqRpRCssvj4eJSXl6OmpgYqlSp8M1lhfr8fWq0WQ6F+DjMzM88NpAWDQdhsNoyF6qnn5+fh8Xjw9OlTNDc3w2AwhN9lEQ6HA4fDAYvF8syglDmxM6UFMzMz6O/vx+3bt3H58mV89dVXePLkCebm5iIeTCgUCuzcuRNHjhxBWVlZRBcF34QT6jnA/C57aEWv1tZW3LhxA42Njaivr8eXX36Jq1evoqWlBXq9fsnZKEajEQ8ePEB9fT1GR0fDN78ys7Oz7Iz80NDQM+9jJEQiEfLy8rBlyxaUlZVtuNIktVqNPXv2oKKi4qUnVELC8Xi8b8xOjIuLQ2FhITIzM8M3LQlzvGVKYXp6enDz5k1cu3YNV65cweXLl/HFF1/g8uXLi27Mz7766itcvXoV9fX1ePDgAQYGBjA5OQmj0chmJ5KNIycnB3V1dTh06FDUn7nnCYZ6wMzOzrIlVlOhZuETExMYHx/H+Pg424tnenqaLVdyOBwx/zljFlzYunUrjhw5gr1790bcQyYSfr+fHYMZDAbMzMywJVbj4+Nsxs74+DgmJyfZEqyZmRno9XqYQ6XSK/m6M+M5tVqN3bt349ChQygqKlrWhBEha43D4SAzMxM7d+5ETk5OxNcp38Tj8cBqtWJ2dhZGoxEGgwF6vR46nQ5arRYzMzPQarVsOaXBYIDT6YTBYGB7lq7UYyGxY10FdYLBILZs2YKjR48uOsG9ypmyjYxJhx4cHMTjx4/R39//3It1Jo13eHgY/f39CAaD8Pl8ePr0KdsQ83n3W2hubg5arfaZHiovOuj09vbiT3/6E65evYqOjo6oMm1SU1Oxbds2VFdXo7y8fEWyJhY+ZqfTyZZcMX1v3G432tvb8dlnn+HPf/4z7t69u6QZDbPZjM7OTjQ1NaGlpWVF69WXyx1aDaWlpQV3796NKqK/EIfDQXJyMjZt2rQi78l6olarUVlZiU2bNkVcekcIFiwf/DwVFRV4++23UVxcHL7ppb7pd46NjeHu3bv4/e9/j//4j//Ar371K/z617/Gr3/9a/zyl7/Er3/9a/z+97/HlStXVryXBlm/pFIpDhw4gJMnT2LHjh2rGnh4HcXFxeHMmTN49913sWXLlg03wfE8C8fz6enpOHv2LE6cOIGysrKXlooQsh6p1Wps374dWVlZ4ZvWHDMhRNfNr6d1dcXB4XCQkZGB7du3Y9euXUhLSwM/tAQkWT1msxlDQ0MYHR19pgzG7/eju7sb165dQ3d3N/vzQCAAs9mMnp4eXL9+HQ0NDbBYLIvuu5DRaMT4+HjEFwMmkwkPHz7E119/HVUggcPhIDU1FeXl5SgrK3thmdhSMAEtJvNGJBJBqVSySxAy+wDAzMwMvv76a1y9ehX9/f0vnOnyer3o6urCzZs30dPT8437vWp9fX24cuUKHj16FFWQjcHhcBAfH4+kpKSXNnKLFQKBALm5udi6dSsKCwuRmJhIJ1ay4jZt2oQDBw6gpKRkRbIPEQrcM83LmV4n4bfZ2VnMzc3B5XKt2+MTWXlCoXBRv5Pc3NxVK2VYDVwuF1KpNOpz/2qOP/l8PlJTU7Fz506cOXMGtbW1yM7O3tDZKsFgEBwOB9nZ2Th8+DC7fHmkjZEJWS8UCgVKS0uxbds25OfnPzfLdq1wOBwad77G1lVQB6GTXE5ODo4dO4ZTp05BrVaH70JWgclkgsFgWLQEeDAYhE6nw82bN/HLX/7yuT0vNBoN/vjHP+IPf/gDhoeHn1tm5HQ6MTU1haGhoagCAb29vbhy5Qra2tqg1WojvqAQCAQoKChARUXFsrNCmF4ANpsNgUCA7Ue0efNmZGZmPpOZMTY2hlu3bqG7uxsGg+G55W2BQAB6vR7379/H5cuXMTU1Fb7LumE0GnH9+nXcvn0bfX19UdcPB4NBCAQCiMXiDTOATU5OxpEjR3DgwAGkpKSEbyZkRajValRUVKCiogJ5eXl0MURWXXJyMs6fP4933nkHBw4cQHZ2dvgu6xKPx4NCoUBqairkcnn45nUjIyMDFy9exPvvv489e/asaKnbepSamopz587h3XffRW1t7YZ/vmRjY1YSrqmpwfHjx1FQUBC+CyFrYt0FdRBKSd2+fTv27t1LQZ0ISKVSpKSkIC8vDzk5OVAqlUuKGPt8PqSlpSE7OxtxcXGw2+14+PAhfvvb3+L//J//gz/96U/o6+tbFPBhuN1ujI+P4/79+/jkk09w69YtzM7OstuZYEVTUxM6OztfmM3zTRwOB4aGhnDz5k18+eWX6Ovre2m510ICgQDZ2dnYvXs33nvvPRw+fBiFhYVQKBRLen0Wcjgc6OzsRF9fH3w+HwQCAdLT01FdXY0LFy7g2LFjKCsrQ2ZmJhITEyEQCBAXFwexWAyBQPDcCPrU1BRu376NBw8eYHh4OOImf2vN7/ejubkZn376Kdrb258bqFqKQCAAv98fcZBuvcrNzcXhw4dp1pGsKqFQiLS0NOzduxdHjhxZ1H/ueceX9SAtLQ1bt25FcnJy+CYSA/h8PtRqNaqqqnDhwgWcOnUK5eXlK5YptlIWfv7j4uJQXV2NQ4cOYefOncjIyFi071JwudyoVrCMlFAoRGpqKnbt2oW33noL586dQ2Vl5bInodYTHo/HfobefPNNnD59GlVVVeui5Gy9HjdJbCktLcXZs2dRXV29Lj7X5PWzumeqZcjNzcW2bduQm5u7rCWUXxdCoRC5ubmorKzE/v37sXv37peuaMVQKpWoqqpCVVUVFAoF9Ho97ty5g1/84hf413/9Vzx69Cj8Ls8YHR3FpUuXcOPGjUX9Y4aHh3H9+nXcu3cPg4ODz5R3LZXNZsPXX3+Njz/+mO3pEklgR6lUYufOnfjRj36En/zkJ6itrUVWVlbEWSJWqxUPHjxAS0sLG3xJSEhAdXU1PvjgA3znO9/B6dOnUVNTg61bt2Lv3r3Yu3cv8vLyIJfLnxtE6u7uxmeffYa2trZneg6tV319ffj4449x79496PV6+P3+8F1eyuVyYX5+/rnZXbGEz+cjJSUFZWVlqKmpWRd11WRjk0qlqK6uxtmzZ5GXl8f+fDVLRZZjy5YtOHXqFHJzc8M3kRiSmZmJM2fO4OLFizhx4gSKiorCd3mlFn7+s7OzcfbsWZw/fx5VVVVITU2NeBzJ4/EgEonWrNwsMzMTb7zxBt5//32cO3cOW7duXXeBs2hwuVykpKSgqqoKf/EXf4EPP/wQBw4cWDc9mtbrcZPEFiZbu7a2FhUVFRTYIWtu3QZ1EGqitnfvXuzatWtRPXSkJ+aNqqCgAHV1dTh9+jS+9a1v4Tvf+Q6+9a1v4cKFC3jrrbfw7W9/Gz/4wQ/w4x//GD/84Q/xl3/5l/jWt76FU6dO4ciRIzh58iTee+89/PCHP8TBgwfZi1GZTIaCggLk5+cjMzMTlZWVePvtt3H06FGUlpZCIpGEPxT4fD5kZGQgKytr0eyS2WzGxMQEtFrtov0j5ff7YTKZ0NXVhU8//RQff/wxHjx4wC6jy2xrb2/H06dP8eDBAzQ0NCxaqUkoFCI9PR379u1jD7qRDpgcDgd6enrw9OnTRWVSCoUChYWF2Lt3L86dO4eLFy/i3Xffxbe//W2cPHkSeXl5kEgki2b8/H4/urq60NTUhNbWVkxPT7PbYoFWq0V7ezuam5uX1Ah6IQ6HA6/XC5vNFpNBnYXHIIFAgF27dqGmpgZJSUmL9iMkGi87x3E4HCiVSpSVleHtt9/GkSNHIj6WrZaFj53px3Lo0CEcPHgwqmwJLOH1eJ5o7oN12JNgvT0ePp+PsrIynDt3Dh988AEuXLiAxMTE8N1eqR07duD8+fM4dOgQcnNz4fV6o1qOm8/nQyKRrFlQB6G/uXnzZpw6dQoffvghPvroI+zatQsymSx815iQlZWF48eP4/3338d7772H2tpaFBcXr6ts1kAgAJ/Ph0AgsK6+ayT28Pl8VFdX491330VdXR1ycnLCd1l1kR7nsIzzJVlf1nVQJyEhAQcOHEBdXd2iHhXRfGA3mqSkJOzatQsXLlzAd77zHXzve9/De++9hwsXLuDo0aM4fvw4Ll68iB/84Af4u7/7O/z93/89/vZv/xYfffQR3n//fbzzzjv49re/jb/5m7/BRx99hC1btrAXBXK5HHv27MGpU6dw/vx5fPe738UPfvADvPPOO9i/f/9zMxHy8vJQV1eH3bt3LyoH4HK5EIvFi5Z25nK5z70t5aBiNBpx+/Zt/O53v8PVq1fx8OFD9PX1oaOjA19//TWuX7+O+vp6fPHFF/jss8/Q1NSEvr4+mM1m9nPj9/uRnJwMtVr93MyZFwkEArDZbOjt7UVbWxtGRkbYoIREIkFubi727t2L06dP48KFC7hw4QJqa2uRnp7+TAr3wMAAbty4gaamJoyPj8dkGVJfXx++/vprDAwMRPS99Pv9MBgMmJqaWvflZs+z8LmmpaXh4MGDzwSfCYnWUr9LKSkpuHDhAr7//e+jtLSU/flSjqWrZeFjLyoqwpEjR3Dw4MFlzVwu9fVYKBAIRHW/4AtWHnsVlvN4or3fy6hUKuzfvx/vv/8+PvzwQ1RXV7PbeDzeks/nK2Xh3yooKMCbb76JN998ExUVFRCLxZiZmYl44gGhgL1MJlvzgGl8fDx27tyJ9957D3/1V3+Fs2fPorS0dNH3Zy1f36XicDjgcrnsuCo+Ph579+7FxYsX8cEHH+CNN97A5s2b112Ayu/3s0EdQparuLgYb775Js6dO4d9+/YtCuwwx8bV/P5G87tX61xB1hbvpz/96U/Df7he8Pl8KBQKiEQitjmtxWJ57T98W7ZswcmTJ3H8+HHU1NQgPz8fWVlZSE5OZmeVRCIRpFIp4uLikJCQgISEBMjlciQlJSEzMxMFBQUoLCxEZmYmEhISwOVy2dkKLpcLmUwGhUKB7OxslJeXIy8vDykpKVCpVAgEAhCJRMjPz8eOHTtQV1fHrtyQn58PmUzGHlS4XC4SEhIglUoRHx+PtLQ0ZGZmIjMzE1lZWcjOzkZ6ejqSkpLA5XKX3HjX4XBgdnYW/f39aGlpQWNjIx49eoSuri709PSgp6cHg4ODGBgYwJMnT3Dv3j3U19fjxo0b7GpdHR0dmJ6ejqonjMPhgEajwezsLIRCIcRi8aLnLRQKIZPJIJVKIRaL2YBOMBjE2NgYbty4gc8//xz19fXo7e2NuiztVZufn2ebX3O5XMjl8pfOwHk8HvT39+OLL77AV199hcnJyZjM1mFmrI8fP47Tp09j8+bNEIlEUZ1QX1fz8/PQaDRobW1Fb29v+ObXEofDQU5ODvLz81FcXPzC1eGYY7VcLkdKSgpSU1MhlUrhdrsjXmkwWs/7vMvlctTV1eH8+fM4deoUKioq4PV6cfny5UWrKC5FdXU19u3b98LXIVxXVxcaGhowPDwMj8cTvvmFZDIZsrKyUFJSgtzc3Oc+v7XicDjw8OFDtLe3Y2xsLHzzC3m9XqjVamzatAnl5eVRB9RehPnsbdq0CVu3bkV+fj4SExMhFovh8/mee15bjddToVBgy5YtbPPdQ4cOoaCgACKRCIODg2hqasLIyEjEPf0yMjJQWVmJkpISpKenh29edXw+H/Hx8VCr1SgsLERRURGys7OhVCoRDAajWnhiNTE9Hbdt24YjR47grbfewokTJ1BZWYmsrKxFY6SV1tHRgebmZoyOjkY8pmNWIdu+fTuKioqemYBbLaOjo+jq6kJnZ2dU76VEIsGRI0dQVlYWvmlV+P1+jI6OstnqSx2vL+TxeHD27Fls27YtfNMz7HY7bt26hZaWlvBNS1JeXo6amhqoVKo1zbbjcDiQSCRQKpXsuTw3NxfJycmQyWQQCoXwer2rMu4NBAIoKChAWVkZ8vLyFk2oP4/JZMLIyAgePXqEycnJ8M1LUltbi3379oX/eE35fD7MzMygt7cXDx48eO65ZynWcUhkSdZ1UIfD4UAoFEIul4PD4cDlcmFiYiLqN2uj2LNnD44ePYrs7Gx29SAmTXhh5gkTDWYyYZh94uPjkZCQAIFAgLm5OczMzGBychJarZbNmmCCOpmZmUhKSoJMJkNiYiKSkpLYYBtz8j527Bj279+P/Px8SCSSRSdtpVKJrKwsKBQKqFQq5OTkIC8vjw0qFRYWIi8vj30u8/PzcLlcL+3R4vf7odfrMTw8jJ6eHgwMDGBqagrT09PQaDTQ6/UwGAwYHx9Hd3c3Hj9+jEePHqG5uRltbW3o6enBzMxMxCd/hF5Xt9vNvmZMdgbzvJmZ1WAwyAbKPB4PW4rW1NSETz75BDdv3ozpgA5CFw4GgwEOhwMej4cNHjKfPaYRcjC0jKnP50NfXx/u3r2Ly5cv48mTJ6tyYlsLiYmJOHfuHM6cOYPKyspVHbBuVA6HA3q9Hn19fRgYGIDP51t0THudbjweD36/H2q1GgUFBSgqKkJRUdFLgxlcLhcKhQLFxcXYtGkTuFwuPB4PLBYLXC4XeDzemkyEMI3geTwem35+8uRJbNmyBUKhEHNzc2hqakJ7ezt4PB47uP2mm8fjQVxcHGpra1FdXf3S12GhoaEhdHV1wWq1wuPxgM/nQywWP/M3Ft6Y8UZOTg4KCgqwefNmZGdnv9LvtMvlQldXFyYnJ9ljrFgshkgkeubxMzfm4iUpKQmbNm1CcXExysrKoFAown/9snE4HMTFxSE/Px979uxBamoqO4nD5XLhdDrZ1x8rOBvMjGc4oTLE8vJy1NXV4YMPPsDJkyeRkpICkUgEj8eDjo4O3L17N6qxY3Z2Nnbu3InCwsJXtmgHP9SkuqysDAUFBUhPT0d8fDy4XC7m5+fhcDggEokizjpeDg6HAz6fD6FQCD6fD4FAgJycHJSXl2PHjh3Yt28fzp8/j9OnT6OoqAhKpXLVL6oHBwcxODgIu90Ot9sNYWiyTSQSfeONG8okT0tLQ35+PiorK5GXl7dmQR2NRoPJyUk2k0wgEEAikTzzOBfeBKFVQ0UiEbKysnDkyBEUFxeH/+pVEQwGMT09zT5mZlLzZY9ZFDpeeTwepKen48yZM0sKRDkcDrS2tqK1tRV+vx9SqRQCgeClN6/XC5FIhJqaGuzatWvNgzpYcF7Oy8tDcXExcnNzoVAoEB8fj/j4eAgEAvZaRyAQsBmOzL9LufF4PHb8IBQK4ff7oVQqsX37dlRUVCAnJwdxcXHhD20Ri8WC6elpDA8PY2JiAlwuF1Kp9JnzyvNuHo8H8fHxOHnyJHbt2hX+q9eU3++H0WjE1NQUhoeHYTKZIJVK2c/eUm//+I//GP6rYwonuFJn2VXk9/sxNTWF69ev4+c//zm6urrg9XpXbIAQa06ePImamhqMj4/DZDKxfW9OnDjx0tkkr9eLmZkZ6HQ6aDQajI2NYXh4GH19fRAKhaisrERNTQ1qamq+sU6eOQiMj4/D6/UiMzMTGRkZL1zGORAIwGw2w+Vywev1wufzsYEbHo8HHo+H4eFhNDY24tatW7h///5LAzsrhcPhRPRZWri/SCRCbm4u8vLyUFhYyPYhSkhIgCg0aPB4PLBarWw0vL+/n83yiSaotB7JZDJkZ2ejqqoK27ZtQ1FREZKTk8Hn8yESicDn8+FyuaDVanHnzh3U19djYGBgzbIJVhqfz0dlZSX+/u//HsePH99Qq5SsJbPZjMHBQdy7dw9NTU3weDwQrXGpw3oRDAbh9XqhUqlQUVGBqqoqVFdXvzTzbSG73Y7JyUn09fWhtbUVXV1d6O/vx+joaESN5aNRVlaGoqIi5OXlYceOHaipqUFmZiY7mLZYLLh27RpaWlrA4XBeOsh2u90QiUSora3F/v37n9vL7Zs8ffoUTU1N0Ol0bC+Vl12o+f1+cLlcJCYmIicnB9u2bUNBQcFL77eamEyd3t5e6PV6OJ1OcJdQ2sQER1NTU1FYWIjKyso16fc1Pz8PnU6HmZkZjI+PY2hoCOPj45iamkJvb++iPnTLIZVKUVRUhE2bNqGoqAgVFRUoLS1FYWHhoosYp9OJ3//+9/hf/+t/YWhoKKLzPEITaExT38LCwvDNa87v98NisbClywvHEiMjI+jp6YFGowm/24rjhLIJKyoq2OXi09PT2czr1NRUqNXqNS2z6ujoQGtrKzvJhCVkhTGTTXFxcUhNTUVVVRWKi4vX7Ds/MjKCvr4+DA0NQa/XgxOahF2KQCAAlUrFrri6FgKBAPuYh4eHYTAYInrMLpcLCoUCZ86cQUVFRfjmZ1gsFly9ehU3btxgAzUvwrzfzHHy0KFDOHr0KBvkfVWCwSDm5+cxOzsLo9EIvV7PBse0Wi2MRiPMZjOsViucTueSJjqDwSCEoYqAxMRENgsoMTER5eXlKCsrQ05OzkvHpjqdDkNDQ+js7MTIyAiCwSAbhH8Zl8sFsViM06dPv/JMHa/Xi+npaQwMDKCtrQ0GgwGCb1hx+EX+5V/+JfxHMSUmgjqMtrY2/PrXv8bt27fR09Pz2ta/VlZWIjMzEw8ePIDBYIBKpcKRI0fw4x//GFu3bsX8/Dw7E8rj8dhMCYfDgcHBQfT29mJ8fBzj4+MYHR3FxMQEpqamkJSUhIMHD+LQoUPYv38/G+VlvhRMOrXFYoHRaIRWq0UgEEBaWhp7El94MPD5fHA4HHA6nezMjkAggFAofO4BdmhoCE1NTfjss89w+fLlNQvqrARBaGnzvLw8NiIvFovB4/HgdrthsVgwMDCAxsbGmHpekUpNTUVBQQHKy8uRlpYGkUgEcWg59/n5eUxMTKChoQFPnz4Nv2vMkEgkKCgoQG1tLf76r/963a0AE0vsdjsMBgOGh4cxPj4Ov9+/pjPO6w0zG5mWloasrCzk5ORAGEWfJrvdjsHBQbS3t6OlpQVdXV0YHR2Fw+FAMBiE3+9ns+iY8wNzC8dZUP/PCWXiLMwuCgaDyMrKwt69e1FVVYWKigrk5uY+U+7jdrvZ2V2EZjJfJBAIgBtaNYcJEC8Vc37yer0RD+p4PB7EYjGSkpKgUCgivv9K8vl80Ov1mJubg9frhd/vX9LjYYJYAoEAcXFxbGn2WmGCDzMzM5iYmMDg4CBaWlrQ3NwMq9UKPp+PQCCw6HMYDGW2Mp9B5mJx4ectEAhAKBSiqKgIW7duxZYtW1BaWoq8vLxFvfwQeg2sVit++ctf4n/8j/8RcekVABw6dAh//dd/jerq6uf2EnyVAoEATCYTe4HY3d2NR48eYWhoCDqdDm63+4Xfdc6CySnmO85kACz874U/Q+j8l5SUhJKSEuzevRubNm2CSqVCUlISVCoV4uPjl/QZXWmzs7PLmigTCoVITEyEXC4P37RqbDYb5ubm4HK5lvy4mffN7/eDHyobW8vHbLVaYbVaI3rMjEAgAIFAgJSUlJeWBQWDQbhcLgwPD2NsbIx9vkvBlNxmZ2cjLy8P8fHxS77vWmCuCUwmE2ZmZqDRaKDT6TA7O4v5+Xn28X/T94j53opEIiQkJCA1NRUZGRlITEyEQqGAUqlEQkICZDLZS5/3/Pw8LBYLbDYbXC4X8IK/G44Zr2VkZCA5OTl885oKBAJwOBywWq0wm81wu90vHWM8z1LKAtezmArq2Gw2DA4O4je/+Q3+7d/+LXzzayMhIQFisXjRCay0tBQ/+tGPoFar0djYiISEBOzfvx8qlQoul4udKevo6MDAwACbomo2m5GQkIAdO3agtLSUrfuUy+XIzc1FQUEB+Hw+gsEgJiYm8OTJE3z22WcYGRnBtm3bUF1djerqauTk5CyaeQ0EAtDpdLh37x4aGhowPz8PqVSKjIwMFBYWYtu2bWzJ1czMDJqbm/H48WO0t7eju7sbY2NjMRe0Y6LmTIooMxAKBALwer3swXMjEwgEkEqlizKVmHRSJihoMplisjkyQhd8ubm5ePfdd3H69GlUVFS8dCaEfDO/3w+PxwOn0wmn08lebLyugsEgeKFllMViMcQL+nFFIhgK4s/NzbEXOwaDARMTE5iYmIDBYMDs7Czm5ubYsh6fz8cGDpj3gRsqc2EGhgKBAElJSUhLS0NGRgZ7S0lJQWJiIpRKJeLj49nym4UCgQD7d7CEgSPzGAShlPqX7b+Q1+uFx+OJ+vPEPO+XZROttmAoe8vn8y26GF8q5j0UCoXPvB+rze/3w+12w+l0Yn5+HmazGQaDYVF/RLPZzM5Qu91uuFwuNvDIlIorlUqkpKQgLS0NSqWS7RMYHx/PljNIpdJngsFerxd6vR6/+tWv8M///M9s9kYkTpw4gX/4h3/A1q1b1/TCeamY19jlcsFms8FkMmFubg5zc3MwGo0wGAwwGo3sxaLD4WBLPhbih8oTJRIJpFIppFIpO5ZhXu+4uDh2m1QqhVwuh0qlYssome/pWn/OGMzxK1qc0MTjyy6CV5I/1KCZ+W5HYuHxMVYeM0KvsyBUbvQyfr8fTqeTzbZc6rGPeWzMZ5ofKtVcT3yhtgzMMdLlcsHtdrMB2KVgzlPM91YYKofkhyZceDzeS583834y5/1IX2dOqGz5VZ8rEXouzPMJRLmS3VpmF66GmArqMC5duoT/+T//J3p7e9k373WXkJCAs2fPQigU4s6dO5DL5Th8+DASExPhcrkwNjaG7u5u9Pf3P3NBLZfLcfz4cZSUlEAikbAH0tTUVOTn5yMuLg4ulwsjIyNobW3FpUuXYLFY8OGHH+LixYvYtWsXFAoF/H4/eyGh0WjQ19eH+vp63LlzB3Nzc5BIJGwDyqqqKuTm5kIsFmNychKNjY3o7u7GxMQEOyu5UXEiLPci60deXh727t2LDz74APv3739uxhkh61EgEMDExARGRkag0+lgMplgsVhgt9vh8Xjg8XjgCpXH+kOlSIJQZiWTLSQUCpGcnIyMjAy20f2rWLKVxDar1coGG5ngosvlgtPpZMcnzOSASqViZ6LDs3FexGKxoLOzE3/4wx/wi1/8IqrywzfffBP/9E//hNLS0pg71ptMJuh0Ouj1ephMJthsNtjtdjbDYuE4RBDq08IEbOLi4iCTySCTyRAfHw+5XM72SiKEELI+xWRQZ2xsDHfu3MHly5dx/fr1Z4IUryMejweVSgUOh4O5uTnweDwoFArwQynLbrebLYUKD4LxeDwolUp2djUYSu0UhhrN8UIlXMyAYH5+HsXFxfiHf/gHnDt3jo3QarVaNuW/ubkZra2t0Gq1cDgc7EWCSCSCRCJBXFwcOwvtdrthtVrhcDjYSHUMfizJBhQegPv2t7+N73//+9iyZcsra5xJSLSYwA2TMcPM0CGU2cDMFnq9XvZ4zdw4oRINJtDD/Dya8jDyeguEFhBgspCY2elAqCQLoVloHo+3KLC4lNl9xsjICC5duoSrV6/i3r17bIbYUonFYrzzzjv4yU9+8tJV6NYjfygLknmNmQnQwIISNwaT0cW85kx2LfPfvFAJXDQz34QQQtZGTAZ1fD4ftFotvvzyS3z88cfo6ura8GUtLxJ+4RmJaO5bVlaGo0eP4sMPP0RFRQXMZjObCdTZ2YnOzk52uXBCNgKxWIyysjL89//+33Hx4sV1mYpPyErx+XzsRR4hL+L3+2Gz2eD1etmy2/WgubkZ//t//2/cv3+f7f+3VGKxGOnp6XjzzTfx0UcfIS8vb01LXAghhJBIxeSIjc/nIz09HXv37sXbb7+NzZs3h+/yWok0KLNQpPcVCoWorq7GwYMHweFw8PTpU1y5cgX/+Z//iX//93/Hb37zGzQ2NkKn04XflZCYtX//fvzd3/0d6urqKKBDNjxmpp6Ql5mdnUVHRwe7cMN6MTMzg7a2NkxPT0cU0EGor0J+fj5yc3Mhl8spoEMIIWTd4/30pz/9afgPYwGHw0F8fDzi4+PhcrlgMplgtVrZ1F2yOng8Hlt2Mjw8jLa2Njx48ABtbW3o6emB2WxmG1QSEuukUim2b9+ON998E6dOnUJmZialoJMNjz7jhOH3++H1etlm/3q9Hr29vXj48CEePHiAlpYW3LlzB4ODg0hJSUFGRsYrDYJ4PB4MDAzg1q1bqK+vj6o/X1JSErZt24bKykps3ryZSgwJIYSsezFZfrWQz+fDkydPUF9fj08++QQdHR3hu5AVtLDTOVO6xXQb94U64hOyUezbtw8fffQR9uzZg7y8PMpeIIS8VoxGI7vcrV6vx/DwMOrr63Hjxg3Y7XaIRCJYrVakpKTgJz/5CS5evIj09PRXVoY1PT2NTz/9FFeuXEFDQwOcTmf4Li9VWFiIt956CydOnMCePXvWxcouhBBCyIvEbKYOg8vlsp353W435ubmYDab2XRbmnFcOQuDOMxqKUzDzUjTmwlZz6RSKXbt2oXz58/j2LFjyM3NjahJJyGExJJgMAiPxwOz2QytVouZmRn09fWhra0Njx49QlNTEx4+fIi2tjZ2EQR/aEltAHA4HMjKykJaWtorC+rMz8+jtbUV//Vf/4XW1lbYbLaoJpqysrJw6NAhlJWVQa1W0ziSEELIuhfzQR2E+rykpKRAJpNBIBBgenoaJpMpfDdCCFmSbdu24Yc//CGOHTuG7OxsmqklhGxowWAQNpsN3d3daG1txZMnT9Dc3IyGhgbcvn0b9fX1ePToEYaGhjA3Nxd+d4hEIsTFxSEuLg6bNm2CUqkM32VVOZ1OdHR04Ouvv8ZXX30FrVYbVUAHAEpKSnDs2DEUFRVBJpNRUIcQQsi6tyGCOghl7CQkJECpVEIikSAYDLIzSYQQshQpKSmora3FhQsXcPjwYeTk5FA/BULIhsfhcGAwGPDnP/8Zn332Gbq6ujA4OIjR0VFMT0/D5XIBYYsrhAc77HY77HY7eDweJBIJlErlmmQ46nQ6NDc349KlS7h58ybGxsaiyh7m8XhQKpWorq7GmTNnkJubCw6H88zzJIQQQtabDRPUwYJlKDMyMhAXF4fh4WHo9frw3QghZBEejwe5XI49e/bgv/23/4bjx48jMzPzlTb8JISQtWQwGPDLX/4SN2/exPT0NAwGA+bn55c0ORYMBmG326HVajE/P49gMIiUlBSoVCoEg8EVD4wEAgEEAgE2oHPt2jVcunQJQ0NDUQV0EFr1qrCwEPv378eRI0cgkUhW/HETQgghq2FDBXWwoMdOfHw8pFIpeDweZmdno2qWRwh5PSQmJuLtt9/Gm2++ierqaqSlpdFgnhDyWnG73bh+/Tp6e3vDNy2Z1+tlextarVbYbDYgFDBZqTJWq9WKwcFBtLe3o6GhgW2KPDk5yWYSRXP8TkhIwJEjR3DgwAEUFRVRUJ8QQkjM2HBBHYRm3VUqFVJTU5GQkIDZ2Vl2ufOlzDgRQjY+DocDkUgEqVSKnTt34gc/+AHq6uqgUqnCdyWEkNdCe3s7hoeH4XK5ou5J43Q6odVqodPpYDab2UwdsVgMDofDLrDg8/nYcRmTeRMMBtlbIBBgtzP3sVqt6Orqwv3799HU1ISGhgY0NTVhZmYm6sfLyMvLw1tvvYWdO3dCLpevSekYIYQQshJifknzF3G73dBqtejp6UFjYyOuXbuG3t7eRVk7zIpOhJCNLfy7rlarUV5ejr1796KmpgZVVVVQq9WL7kMIIa8Ll8uFy5cv47PPPsONGzdgNBrDd4mITCaDQqFASkoKcnNzUVhYiMTEREilUkgkEkgkEsTHxyMuLg4SiQRSqXRRRo/X64Xdbsfs7Cy0Wi2MRiN0Oh36+vowODgIi8UCq9XKBo6ixefzkZaWhrq6OvzVX/0Vtm3bBj6fH1W2DyGEEPIqbOigzkKPHz/GH/7wB9y/fx8DAwMwmUxR110TQmIXj8eDWq1GVVUVDhw4gNOnT2Pz5s3huxFCyGvF5/NhdHQUd+7cwc9+9jM8fvw4fJeo8Xg8ZGZmQqVSQS6XQyaTIS4uDgqFAnK5nF05KyEhgV0O3e12w2azQavVYmJiAtPT09BqtZicnITD4Qj/E1GTy+U4dOgQTp06hTfeeIOC+4QQQmLOaxPUsdvtmJqaQkdHBxoaGvD1118vq26cEBKbqqqqcPLkSezZswelpaVQq9UQi8XhuxFCyGslGAzC4/Hg6dOn+L//9/+ivr4eOp0OXq83fNeoCIVCCIVC8Pl88Pl88Hg8CAQCCAQC9md8Ph9cLhcINUP2+XxwuVxwOp1wuVxwu90r3iMxKysLP/rRj3Dq1CkUFBTQ+YAQQkjMeW2COozZ2Vm0tLTg6tWruHbtGqampmC328N3I4RsIBKJBEKhEGlpaXjrrbdw/vx5lJeXQyKRhO9KCCGvNZ1Oh08++QRffvkl7t+/j/n5+fBdNoykpCTs3bsXP/7xj7F3716IRCIquyKEEBJzNmSj5BcRi8VQq9UoKCjA5s2b4XK5MDw8TKVYhGxQAoEA+fn5OH36NP7iL/4CR48eRWFhIaRSafiuhBDy2mP6j1mtVjx58gQul4v9+UbC4XDwxhtv4N1338WOHTugVCo33HMkhBDyenjtgjrMijdqtRppaWng8Xjg8/lISEiARCJBMBiE1+tdVtM9QsirJZFIoFQqkZGRgR07duDQoUM4duwYDhw4gOzs7BVbWpcQQjYaHo8HsViMYDAIo9EIo9HIBnY2CplMhsrKSrz99tuora1FSkoKW/ZFCCGExJrXrvxqIb/fD5fLBZPJhIGBAbS1teHmzZt48uQJTCYTu1/4qjmEkPVl4XeUx+OhsLAQW7ZsQVVVFXbs2IHS0lIoFAoIBAJappYQQpZAq9WiubkZly9fxm9/+1u43W5gA4yJBAIBTpw4gbNnz6K2thYFBQXhuxBCCCEx5bXL1FmIy+VCKBRCLpcjNTWVXXWBWYXB7/fDZrOF340Qsk7l5uZi165d2LdvH/bv34/du3djy5YtUKlUixpwEkIIebG4uDgkJiaCx+Nhbm4Os7OzK96keK0lJydj3759bEAnNzeXAv2EEEJi3mudqRPO5XLBYDBgfHwcPT09uHfvHj777DNqpExIDFAoFPjud7+L2tpaFBYWIi0tDfHx8RAKheG7EkIIWSKNRoOmpiZcunQJf/zjH8M3x5Tz58/je9/7HqqqqpCZmUk9dAghhGwIFNQJwzQHnJmZQV9fHx4+fIi+vj5oNBrodDqYTCY4HI7wuxFC1phcLkdaWhpSU1OhUqlQXFyM2tpalJaWIikpCSKRKPwuhBBCIuT3+6HRaNDc3Izr16/jyZMnGB4extzcXPiu645cLkdKSgpSU1ORl5eHo0eP4uDBg0hLS6PMTUIIIRsGBXWeg3lJAoEAvF4vent7cfPmTbS0tKCnpweTk5OwWq3hdyOErJHExEQUFBRg165dqK6uxo4dO5CTkwOhUEip9IQQsgpcLhe0Wi2++OIL/O53v0Nvb++6HQvxeDwoFArk5+djx44dqK2txb59+5CUlAQ+n08ZOoQQQjYUCuosgdvtRn9/PwYHBzE4OIixsTFMTk5iZmYGOp0O09PT4XchhKwgPp+P3NxcJCUlITk5GXl5eSgsLERJSQny8/ORnZ1Ns66EELIGOjs70djYiN7eXgwNDaGvrw8TExPw+/3hu74SzHkhNzcXxcXFKC0tRUlJCTIyMsJ3JYQQQjYECupEgOm5MzU1hZGREfT09KCzsxMdHR2YmJgAQs2XmZeUXlpCIrNw9pTL5bIXCcXFxaipqUFxcTHy8/NRWFiI7OxsyOVy8Pn8Bb+BEELIamIWkZiYmMDTp09RX1+PBw8eYGZmhu1ByKyQtZrjIOZ8wfwbCASQlZWFM2fOoKamBiUlJcjNzYVarQ67JyGEELKxUFAnQj6fD3a7HRaLBTqdDhqNBhqNBpOTkxgdHcX4+Dg0Gg1mZ2fhcrlWdUBDyEYjEAggFAqRkpKCwsJCZGVlIT09HdnZ2cjJyYFarYZSqYRSqURcXFz43QkhhKwRh8MBvV6P4eFhjIyMYHp6GhqNBmNjYxgfH8fU1NSq9SDk8XgQiURITExEYWEhNm3ahJSUFOTk5KCkpARZWVlQqVRISEigUitCCCEbHgV1lsnj8cDr9UKv1+Px48dob29HX18fJicnYbFYYLVaMT8/D5/PB4RmkoLBIPvveklXJmS1cTgccLlccLlc9r+Z2VyRSASVSgWFQgGZTIa8vDxUV1dj69atKCoqglKpBI/Ho8E5IYSsQ263GyaTCaOjo3jy5Ak6OjrQ09MDo9EIv98Ph8PBjoWY4/jLhp8Lj/ccDgcCgQAikQhSqRRxcXGIj49HZmYm21etpKQEycnJVIpLCCHktUNBnRXi8XhgMplgMplgtVphNpthMBig0+mg1+thtVpht9thNpthNBphtVphsVig1+vDfxUhGxKPx0NSUhISExORmJgIuVyO+Ph4xMfHQ6VSITs7G2q1GnFxcVAoFEhOToZKpYJcLqdgDiGErHM+nw/z8/MwmUyYnZ3F3NwcLBYLLBYLTCYTjEYj7HY7PB4P/H4/AoEAfD7fM5NbXC4XPB4PfD4ffD4fQqEQIpGIDegkJycjOTkZMpkMCQkJSE5ORmJiIhQKBQV0CCGEvJYoqLOK5ufn2cCOxWLB3Nwc21jZaDRCr9djbGwMBoMBCM1EMQMdphZ94Q0LZrbobSOvUngvAw6Hs+jGZOQwg3OhUAiVSoX09HRkZGQgPT0dSUlJUKlUUCqVSEpKQlZWFpKSksL+EiGEkFg2NzfHTnrZbDY4nU74fD52hdHw7B0ulwuBQMDeRCIRJBIJ+29KSgpUKlX4nyGEEEJeWxTUWUXBYBAejwdutxs+nw9erxd2u53N2mH+2+FwIBgMwu12w2w2Y35+Hi6XCx6Phy3vYgY+fr8fXq/3mZktQtYSM4PKzKYyvXD4fD7EYjFkMhni4uKQkJAAkUgEHo8HiUSCuLg4yOVyyOVySKVSiEQi9r4SiYSWIyeEkA2GGQt5PB52HPO8SauFFpbpMpMDzL8ikYgycgghhJAFKKjzCvj9fnaA4/f74fP5EAwGMT8/D61WywZ2nE4nXC4X3G43XC4XG9xhAj2EvCpMIIb5l0mNF4vFkEqlUCgUUKlUSEpKgkQiWZROL5FIIBQKw38lIYQQQgghhJAIUVCHEEIIIYQQQgghJAZR/iohhBBCCCGEEEJIDKKgDiGEEEIIIYQQQkgMoqAOIYQQQgghhBBCSAyioA4hhBBCCCGEEEJIDKKgDiGEEEIIIYQQQkgMoqAOIYQQQgghhBBCSAyioA4hhBBCCCGEEEJIDKKgDiGEEEIIIYQQQkgMoqAOIYQQQgghhBBCSAyioA4hhBBCCCGEEEJIDKKgDiGEEEIIIYQQQkgMoqAOIYQQQgghhBBCSAyioA4hhBBCCCGEEEJIDKKgDiGEEEIIIYQQQkgMoqAOIYQQQgghhBBCSAyioA4hhBBCCCGEEEJIDKKgDiGEEEIIIYQQQkgMoqAOIYQQQgghhBBCSAyioA4hhBBCCCGEEEJIDKKgDiGEEEIIIYQQQkgMoqAOIYQQQgghhBBCSAyioA4hhBBCCCGEEEJIDKKgDiGEEEIIIYQQQkgMoqAOIYQQQgghhBBCSAyioA4hhBBCCCGEEEJIDKKgDiGEEEIIIYQQQkgMoqAOIYQQQgghhBBCSAyioA4hhBBCCCGEEEJIDKKgDiGEEEIIIYQQQkgMoqAOIYQQQgghhBBCSAyioA4hhBBCCCGEEEJIDKKgDiGEEEIIIYQQQkgMoqAOIYQQQgghhBBCSAyioA4hhBBCCCGEEEJIDKKgDiGEEEIIIYQQQkgM+v8MCbJpT7eclwAAAABJRU5ErkJggg==;" vertex="1" parent="9y-pd3OVOo4H0gQNzhl5-1">
          <mxGeometry x="93.35" y="238" width="127.93" height="25" as="geometry" />
        </mxCell>
        <mxCell id="8-EVtDwhSgNOyVy5udmj-5" value="" style="shape=image;verticalLabelPosition=bottom;labelBackgroundColor=default;verticalAlign=top;aspect=fixed;imageAspect=0;image=https://upload.wikimedia.org/wikipedia/commons/thumb/c/c2/GitHub_Invertocat_Logo.svg/250px-GitHub_Invertocat_Logo.svg.png;" vertex="1" parent="9y-pd3OVOo4H0gQNzhl5-1">
          <mxGeometry x="540.5" y="40" width="40" height="40" as="geometry" />
        </mxCell>
      </root>
    </mxGraphModel>
  </diagram>
</mxfile>
